<mxfile host="app.diagrams.net" modified="2022-05-24T09:39:11.043Z" agent="5.0 (Windows NT 10.0; Win64; x64) AppleWebKit/537.36 (KHTML, like Gecko) Chrome/101.0.4951.67 Safari/537.36" etag="2rfJpPq_glBoXSXtMVQn" version="18.1.1" type="github">
  <diagram id="WhT_UPsiMmQ0WYSbJ_dF" name="Page-1">
    <mxGraphModel dx="1530" dy="721" grid="1" gridSize="10" guides="1" tooltips="1" connect="1" arrows="1" fold="1" page="1" pageScale="1" pageWidth="850" pageHeight="1100" math="1" shadow="0">
      <root>
        <mxCell id="0" />
        <mxCell id="1" parent="0" />
        <mxCell id="LAPRnQHf4kiXfBzCoPBS-1" value="" style="shape=image;verticalLabelPosition=bottom;labelBackgroundColor=default;verticalAlign=top;aspect=fixed;imageAspect=0;image=data:image/jpeg,/9j/4AAQSkZJRgABAgEASABIAAD/4SN7RXhpZgAATU0AKgAAAAgACwEPAAIAAAAGAAAAkgEQAAIAAAAJAAAAmAEaAAUAAAABAAAAogEbAAUAAAABAAAAqgEoAAMAAAABAAIAAAExAAIAAAAFAAAAsgEyAAIAAAAUAAAAuAE8AAIAAAAJAAAAzAITAAMAAAABAAEAAIdpAAQAAAABAAAA1oglAAQAAAABAAAH+gAACPRBcHBsZQBpUGhvbmUgWAAAAAAASAAAAAEAAABIAAAAATE0LjgAADIwMjE6MTE6MDEgMTY6NDc6MjAAaVBob25lIFgAAAAjgpoABQAAAAEAAAKAgp0ABQAAAAEAAAKIiCIAAwAAAAEAAgAAiCcAAwAAAAEAMgAAkAAABwAAAAQwMjMykAMAAgAAABQAAAKQkAQAAgAAABQAAAKkkBAAAgAAAAcAAAK4kBEAAgAAAAcAAALAkBIAAgAAAAcAAALIkQEABwAAAAQBAgMAkgEACgAAAAEAAALQkgIABQAAAAEAAALYkgMACgAAAAEAAALgkgQACgAAAAEAAALokgcAAwAAAAEAAwAAkgkAAwAAAAEAGAAAkgoABQAAAAEAAALwkhQAAwAAAAQAAAL4knwABwAABLAAAAMAkpEAAgAAAAQ3MjkAkpIAAgAAAAQ3MjkAoAAABwAAAAQwMTAwoAEAAwAAAAH//wAAoAIABAAAAAEAAAMAoAMABAAAAAEAAAQAohcAAwAAAAEAAgAAowEABwAAAAEBAAAApAIAAwAAAAEAAAAApAMAAwAAAAEAAAAApAUAAwAAAAEAHAAApAYAAwAAAAEAAAAApDIABQAAAAQAAAewpDMAAgAAAAYAAAfQpDQAAgAAACQAAAfWAAAAAAAAAAEAAAB4AAAACQAAAAUyMDIxOjExOjAxIDE2OjQ3OjIwADIwMjE6MTE6MDEgMTY6NDc6MjAAKzAyOjAwAAArMDI6MDAAACswMjowMAAAAAPHGAAAi/cAANYnAAB+RQAApmcAAB7GAAAAAAAAAAEAAAAEAAAAAQnMArEC8QL0QXBwbGUgaU9TAAABTU0AHwABAAkAAAABAAAADAACAAcAAAIuAAABiAADAAcAAABoAAADtgAEAAkAAAABAAAAAQAFAAkAAAABAAAAywAGAAkAAAABAAAAzwAHAAkAAAABAAAAAQAIAAoAAAADAAAEHgAMAAoAAAACAAAENgANAAkAAAABAAAACAAOAAkAAAABAAAABAAQAAkAAAABAAAAAQAUAAkAAAABAAAAAQAXAAkAAAABAAAgAAAZAAkAAAABAAAAAAAaAAIAAAAGAAAERgAfAAkAAAABAAAAAAAgAAIAAAAlAAAETAAhAAoAAAABAAAEcgAjAAkAAAACAAAEegAlAAkAAAABAAAAAAAmAAkAAAABAAAAAAAnAAoAAAABAAAEggArAAIAAAAlAAAEigAtAAkAAAABAAAcgQAuAAkAAAABAAAAAgAvAAkAAAABAAAAOwA2AAkAAAABAAALmQA3AAkAAAABAAAAAQA7AAkAAAABAAAAAAA8AAkAAAABAAAAAAAAAABicGxpc3QwME8RAgBKAK0AwADLAMgAsgDKAOwA8gDgAMkAlQCqAK0AmwBOAF0ArQDAAMYAwgCxAMYA7ADzAOkAuwCrAKsArQCeAE8AegC0AMAAsQC0AK8AwwDeAOoA6QC+ALcArACuAJ8AOgCUALQAugCoAKsAqAC8AMoA3wDsANMAvQC0ALMAngAvAJwAsQCuAKUAsQCqAKUAvwDTAOsA3AC8AMIAwQCpAEoApACuAKcApQCtAK8AqgC0ANMA8ADSAM4A0ADIAK4AZQCYAKAAmwCfAKkArwCpALgAygDwAPIA4ADTAMcArwBUAKIArACjAKgAsACuAKkAvwDJAPQA7wDoANMAwgCyAGUApgCsAKkAtACmALEAuADEANkA5gDYAOUA0wC5AK8AfwCnAKsAqwC6AK8AvAC+AMwA2gDmAM4AzQDJALcAsgCRAK0ArQCqAMEAuADHAMMAxwDcANgAvACwALgAvQC1AIAAsACzALsAxgC9ANUAxgC9ANEAyACwAKEArgDIALkAUQC4ALkAwQDLAM4A1ADFALgAyADAAKIAmwDBAMoAugBEALcAuwDEAMgA0ADKAMQAtgC7ALYAqACmAMEAxQC5AEYAvADBAMUA1ADVAMsAwAC4ALcAtQC3AKwAwADDALYASQC9AMYAxwDSANEAyQC+ALgAtQC2AMAAuQDIAMQAtABNAAAIAAAAAAAAAgEAAAAAAAAAAQAAAAAAAAAAAAAAAAAAAgxicGxpc3QwMNQBAgMEBQYHCFVmbGFnc1V2YWx1ZVl0aW1lc2NhbGVVZXBvY2gQARMAAVSpuRFnxBI7msoAEAAIERcdJy0vOD0AAAAAAAABAQAAAAAAAAAJAAAAAAAAAAAAAAAAAAAAPwAACqsAAmp7//8cZwABAAAAAFFlAACpkQAAAnUAAAEAAAAAcQAAAEBxODI1cwAzNkEyQzE0Ny03MkFELTRBNjEtQTMyNy1FOURCQ0JGOTVCRjIAAAAAAAAAAAABAAAAoCAAAQsAAAAAAAAAATFENTdBRDFELTBCRDAtNDVFRi1CNkMxLTQ5MzIwNjIyN0E0QQAAAAAABAAAAAEAAAAGAAAAAQAAAAkAAAAFAAAADAAAAAVBcHBsZQBpUGhvbmUgWCBiYWNrIGR1YWwgY2FtZXJhIDRtbSBmLzEuOAAADQABAAIAAAACTgAAAAACAAUAAAADAAAInAADAAIAAAACRQAAAAAEAAUAAAADAAAItAAFAAEAAAABAAAAAAAGAAUAAAABAAAIzAAMAAIAAAACSwAAAAANAAUAAAABAAAI1AAQAAIAAAACVAAAAAARAAUAAAABAAAI3AAXAAIAAAACVAAAAAAYAAUAAAABAAAI5AAfAAUAAAABAAAI7AAAAAAAAAAsAAAAAQAAABoAAAABAAAKNgAAAGQAAAAaAAAAAQAAAAEAAAABAAAKkgAAAGQABDR+AAANUQAA5TcAAVSNAAjdrgAAB8cACN2uAAAHxwAAAGAAAAABAAYBAwADAAAAAQAGAAABGgAFAAAAAQAACUIBGwAFAAAAAQAACUoBKAADAAAAAQACAAACAQAEAAAAAQAACVICAgAEAAAAAQAAGh8AAAAAAAAASAAAAAEAAABIAAAAAf/Y/8AAEQgAoAB4AwEiAAIRAQMRAf/EAB8AAAEFAQEBAQEBAAAAAAAAAAABAgMEBQYHCAkKC//EALUQAAIBAwMCBAMFBQQEAAABfQECAwAEEQUSITFBBhNRYQcicRQygZGhCCNCscEVUtHwJDNicoIJChYXGBkaJSYnKCkqNDU2Nzg5OkNERUZHSElKU1RVVldYWVpjZGVmZ2hpanN0dXZ3eHl6g4SFhoeIiYqSk5SVlpeYmZqio6Slpqeoqaqys7S1tre4ubrCw8TFxsfIycrS09TV1tfY2drh4uPk5ebn6Onq8fLz9PX29/j5+v/EAB8BAAMBAQEBAQEBAQEAAAAAAAABAgMEBQYHCAkKC//EALURAAIBAgQEAwQHBQQEAAECdwABAgMRBAUhMQYSQVEHYXETIjKBCBRCkaGxwQkjM1LwFWJy0QoWJDThJfEXGBkaJicoKSo1Njc4OTpDREVGR0hJSlNUVVZXWFlaY2RlZmdoaWpzdHV2d3h5eoKDhIWGh4iJipKTlJWWl5iZmqKjpKWmp6ipqrKztLW2t7i5usLDxMXGx8jJytLT1NXW19jZ2uLj5OXm5+jp6vLz9PX29/j5+v/bAEMAAgICAgICAwICAwQDAwMEBQQEBAQFBwUFBQUFBwgHBwcHBwcICAgICAgICAoKCgoKCgsLCwsLDQ0NDQ0NDQ0NDf/bAEMBAgICAwMDBgMDBg0JBwkNDQ0NDQ0NDQ0NDQ0NDQ0NDQ0NDQ0NDQ0NDQ0NDQ0NDQ0NDQ0NDQ0NDQ0NDQ0NDQ0NDf/dAAQACP/aAAwDAQACEQMRAD8A/HPw7pj6trVrbRAmS4kjhUDrvnYLx+fFfv54E8Nw+HtG07RoVxb2dvFCo6ZCKBz71+N/7MPhZvE/xb8PWrpuihuH1CX/AHLVcr+bYr92dPsg6qB0UgnNZNXKRWurRAoIHWsY2atMQRmu7uoEEY/lWOluryknr2reMTOTscjd6dx049O2Koy6fCYyCuM+grtbyEAe+elYzp7c1sodyHI8y1rwnpWoQtHd20c8b9VkQOPyNeJ6/wDsyfC7xDuln0WG1duslmTAxJ7/AC8Z/CvqW4jJQgj6VAtvgY6cUnSQXPzk8TfsXaGru3hrW7q1Y/djukWZf++l2n9DXiOq/skfFPRfMm0422sxsdw8mbZJj02SBf51+tWr2qqysKmsLFZogrAZzxUOimyuex+LC2Xxq+F0pa3i1zQxGeTCZBFnr/DujIr0bw1+178YNCdY9SuLTWY04K3kHlyH/tpEV59yDX6xX2jqJvu53AAjsa4LxJ8HvAXiaNm1nw/YXDt1fyFST/vtNrfrSVJx2E5JnzD4a/bn0ScJF4p0C6s243S2ci3Kf98tsfH517fov7SHwl8UKsdl4gtraZ+PJvc2r5Pb96FU/ga8m8V/sf8Aw/vFabRzd6S75C+XJ50YPbKyc4+hFeA67+xt8QLP5tD1PT9TQ5O12aBwPpIrD/x6i8+wkkzzr9pvw7b6D8RJdf0h4pbPVR/aEMkLK6MX+WZcqSPvc/jXzx/wkEn/ADyT8q9Y8ZfBb4neDrGS81vRJVsYPvzwussCZOMkoSACfUCvI/sM/wDz7r+aVzOLuan/0Pnn9hfwiJNZ13xaygrZwxafCSOjP+8fH4AV+rek2zlPrzke/rXxb+xp4XbR/g/Z6lIhSbWbme9bPXYW8tP/AB1a+3tMLxKY8k4xnPWmo3BfCLdxEqfb8KwijAkj866Kfe5PpVAwH5vTrW6gZNnP3GW69fWsG+u7KzwbqeOHPTewBP4da6+a33DjtXBa/bppck2rreLaPMojPnxrJEzKp2rnG5AQCDg4J7Z69VOKk7MynLlVx9wAY9ykEEZGOQe9JGhPPrVWDUoLq3QvGYJGiMvktwyhccH0zninW2qWrKu/dGxVm2EZOFUOemQeGFEqbTtYSnFq9yDVrfMW8jgGpNKVSqj3rnfFV7qSzW32CaQxTWs7qkUSyq80bIV3kjKqVJBIIx1rZ0e8hZMq4J27vl+YH12kdce1KVKStLoHtI3aOpktUcjHtipP7PWSPgdDmqukavp+qvJHayMzwHbIjxvGynGcEOo5wQceldZBGhXGcAiqcejCLucrd6QksLYUDnIPvWQNBEiB1H3eD7mvTFs9ybccEVRjsJBMyDhc5ArGcTRM8a8S+BYda0TUNHvIg0F7BJDIuP4XGD+XavnP/hlbwX/z7tX31cWirG3y5LDHSsn7Cf8AnkPyNc8qZrzH/9H6N+EHh1tC+H/h/RmiETW1hbxlf7rBBn9a9ts7VYo+e3FZ9lawwxRxR4GwAAduldJGVCgHrW1NdSZ6FVrQHoKrG2Vk+XBIyDgg8jr0roozFtHeuTstA0k63rF7HbRB5ZrcsyrgmRIhk5Hc5GfU9a66dPmuc8pWsV5rYZx0xWRc2qtlSAQex5rW8S6raeHorae9V3F3dRWqhBkr5h5dvREHLHsKztS1bTLG8k0+ZpDcRRLK6xQyShQ/3RlFYbj1C9SOelXGLTuiZNPRnM3umQS/NNGrkEEEgHkVzx0eCONQV3yxpsDAlSwA6HB6HAB9q6iPXdKv7N72CV1iVpV/fRNCzGHO8KrgMSu05AHauPfxPbXNu97p8LTwxpG7qwaGfE2DEVjdfmEgPByK1XtL6GcuSxx9xqzJCPtOmTTyfPLCsfI2yqRICTgJ+8ygDZ9ao2GrWEygz2V1avCWRY2ILMzOqMAQcEgsDkcY+lesNkDJ4qqlupBby/MxltoAJPfAz3PStfaw2dzL2c3qcha69ZPqxkjvjaR3q7/KniZJVuUVowRxtAKqwOT95Rj37LR/EWnSwLHJqVrPICwUrIFLCMZbO7HzAct6Ci0tdL13TkupLPMdwuds8exwM5IIz69ecGq8/hXQpQdtssUmHVZI8BxvUqRn0wcYrR+ymrN2foTHnjqj0TTr6C4iLwSpMmSu5CGGR1GRmtfaG2Og547VwnhjRhpANrbuTbCNI0Q5JBjyASe+FwvrgD0r0q1iQhcj5a46kEnbc66c3JakP2QTHBHGDTP7KT/brpU8qMc9ABz60/7RD71i4mtz/9L7vt3DHbgjaep45q6ZyB6VlWska26BDn8c0r3ABrqgtDOo9TaiuCrE5qjpt5fQTXSSafLtkupH80yRgOrYAYDcWxgdwDVRLoVpw3KnrXTTlZNHPNXsRat4a0nX9Rt73VohdRWsUiRQSDMYaXAZyO52jbzxg1kPoq6KhnS/ljiVEExkCHesHyx5YjIwmFJHJAHfmupS6ReSRxVO8uUcE5rdV5KPL0MXRi3zdTye88MWd3dW9954cW9xPcRlAr/LO4kIDHO07hgsOq5WuWGjp4b0a8t5p0ZSyzRyO+HYoFO3LHkLt+QdgcV6dqMEE8ZUqVGTgoSjAkEZBXBB5NcVercWhEk3+n2ysMiRFaWEdNwOPnHrxu75PStI4ibXKZOgk+ZIXU7Oe/SEWt7LZAOJGaEKWddpwvzggDJBPHOMVFpttqFvcF77UDcKE2KiwrEuSc7mwSS3p0A9K53UPGsGn6k1jqFlcQp87RTrtdJI0/iwCGG48Dg9uaq2PjaC5uriaW3uLexSCN4mmjCM778Pjk8fMMAnPytio5J2+HzL54p7mjdXOtm0sLfQLhFx9qt7hCygAZIR+5DowyPXkGsNtU8bW18ZLve0CTzOjKoKG23jBkAXJZEBIGQWDZzkVdPiXRbfU5klVMyiN7NY4P3krEHf8wHXd/eIrsIbe81La1jKsNs6qwuFw7uG6hFPA4/iOfYd66oyil70L36mdn9mRT0jxP4jh0wXl5bwk29wVnIRgZrZ3ZUkiCthWAAypz61q6T4ul1vV5bJrdrWYWZuLaaKZwdjAcNyEfEmQQBkY5610EGntaWqxGSSU8/PK25j9eAP0qB7BpJEnCp50efLdlyVzwemDg555rJ1KN3oNqp0Z1en6o01hbGaUyuYU3uwGWbaMkgcAk+lXPtkfrXK6JpepxwPDdeXhXYxGIt/qycgHcOCCSO/Fbn9mXHv+dc1S3NodVOTcVc//9P63t710jABxgdqs/bHesW3IKgHr9aujb0HBrsMZGjFd9Q3Y1bS+AI+b86xCDioMMSSM1omZtM6ZL9zlTk47nv+VP8AtDv/AIVhW8E7cjJGePaujsLCaZwMZp8wcpUlUlckVkS25PSvRzpQaLZt+prGm03YSccA9aFITR5bHY21rejS/sg8poXnSQ4ZRmT54wCMgZIbHTn2rTls7d4xHLEjopDBGUFQR3AxjNa+sWtys1lcW3mFUuPLmjjAIeOVSuW9kbDcelQ3EDxgsRlVDMx64Cgk8VvKrNJNM5+SN3ocdHo+kXl35dpaWhgjMiXBRcOJAFAQbcY4Pze3HrXotpbABQowSMfgPaqnhzTBJplpcO5mM0SymTZ5ZcyDduK4GCc9MV6BpWmRmdTt3EMMDtRVrSkuVvYulRiveSMBLWV5NgHB/nW4uhsERyvHXpXpdpoNusgkl2g9SK6C4sLWRQkXQdu1c/MbqJ5hY6bKxASPI9cVrf2Pcf8APOuzitDDnBCr/KpNo/560rofKf/U+lElKrxV2G4ORk1q/wBjbFKkfMehqsthtPPGK2UzOUWPWTf8vWtKyhjdwGNZZ2Rt1qe2uUjcFjWilcnlPRtO0yNoyQRmt6wtPJkIVQV7muEg1aSJcxr5ihSeDhsjtg8c/Wuq0jXFlRSVZGbqrjBB9DVBZHVy2jPbyGA7XKOEOM4cg7T+Bwa45HuF8A2niDUWklljsree7liRS7MNolYKcKOckgdBnHQV6Bp8odkLdM5NU9I0XXLjS7nw7qsdjHp00VxAksEsjTLHKW2ZVkCkgEZ57VrBXTM6mjR5tcaloaXN5YyCVL6yn1CKW2Vd8gGnxiUvgH7ssbBov73Tgg1pWNpY3Xh+68Qvb3Ecdmha4hkj/fR/IsmNqlgxKMCACeuOte3jQ7PBkAjdpbmO5kYoMsFjETrkc4ZQevGTXOt4KSbTbzw3ZQQabp1xHbQTOmf9IjSVWkbahBSRowY92c5OecV0OFBx92Rz3qqWsdDz24XTNJsUuGOIjYyX0IXCI8EIUna7bUUgMvDEYHPQGus0u0d7eKfyJIC6hikoAdMjODgkZ+hIrf1Pw9am0t9FgWL+zLaaYeXJueQW8sbIYgxJyDvIOf4cd6Z4R0YaBodvpMgiC2qmOMRNK4CjAGWmZnJOMnkAdBWVSMVFyTuaUpybUZIsQxTzkLk8cZrYmjNpa7nz7H1rmp/FehWGqDS7m9gjvcKwty4D/Pnbkdt2OM4z2pur6s90qKrHapzxxXKjqGy30zbomOAelVfMk/56isK5uWk3MBgis7zpfb86oD//1f0Gk0AzRF4Qc/mea86ggu7nUm0y+0670538w28k/lsk4iPzFSjsVOPmAbBxz7V9JiK2iAkDhURck5wBjqT7V4lfatJqfi/TtReZINJMN8LBWAU3EiqimYk44YM3lr/dBbuMRh5c7aNMRHkVzlb7SHtSxLc1xuraimk2N3elGuGs4jM8EODMVXrhSR25GetdX46n1E6Ffvocm69aCT7NIoEnz44IGcMR2GeteOeCNLsLWOYxBru9kQJcXc1k1tPIDyVkdxuc55OScV2UIuUHPojmqy5ZKC3Z3GgeIpb+O4F1F9mmtnwyh96NE43xSo2BlXTnkZByO1dZomrS3S+ey7FZiYsnJKfwk+meuPSvBLa8Ml9BosM6RnyWttQOceVHbykICegaRTtUE5wc+letnRrjVbQ2iXNzZqxX99aP5Uq7TnCthsA4weOldNWEY6rZmFOUpPXoe8aPrXkIM/MT7102neK7eTWBosheG5ZFeIOjKkobtG5G12X+JQcj0rxfRvCtrZtbT3tzfXMQyJjLdSMynsTtI/QV7Jo/hW311jGFnsNJITcHlc3U5Q7hs3k/Z1z/ABD94egIFZezjfWWhbqyS0Wp6jCI4o3a8uIoTFGZpA8iqUiXq7AnhB/ePHvXkXirUNfn8ZXfhzS74Pp+teGTJp8wceRFqG9ypV0BJE0OTnJAC5FN1TRnHj3WtUtNOTUBNe28V0jBSzWV5p4hMchb70CugYrzg5OMms7xVaeJY9WnGj2+mxaeqWP2Wd5nSWBrQMAscKR7Qo3EdcFSRitKVKKa5ndNfp+mhFWrLlfKrNM1vC0kmm6zNpE9w7WkEFxFAkrl9gguSV5JJJEcgXJ5wop3jD4iWHhg2lvBbte3N3JtVFljh2RLjfITIQMLkYUcsTgV5T4jPiZNYfWNDeFz5Uq+Q7bcyzBFJyeNqlA3qelYPibQxqWq2GuZs3u7OJoC93b/AGjYrsrFoeQFfIxzkY+lVKEJ1It6Jk05zjCSWrW1yn4x1K5tPF2pXMUkj2+vLDBOGYmKMSRiJZdvTMTQ5BHI316mmqSwph2LYAGSfSvLNcb7dLC6bB5YZX3DOeVZeO4yOfY153r/AIz8Q6D9vt4186zghg+ytGA1xGspZDJIZGCuInAG3GSpyc81U37SnGMN0KN4VJSlsz6Gu/EGFK5Hesv/AISD3FeNQeILq5sx9qdWuI8xzbOFLj+IDnAYYYexqH+05fU1xyTTszqTTV0f/9b9LNQMOsadLpiymFbgBHZe8eRvX/gS5X6GqOp+HdK1m1SxvrWG5t42BSKVAyqQMDAI4wOBiq1tBsJxJx2zV/7R5Qz5oryoYhw+FnpzoqfxI8P0bSLa3h1GGK7hLXWrXkkFsJULRxB/LREjByqgJnAFaA0K4WQtLnFdtb6B4V065a807TLO2uJHaRpo4UWQu5yWLY3ZJPrWmLeKdvmywHvXdVxSesWclPDu1pI+dvGfhjwzY+H5Y7qCOCzm1C2uLwhSfMPnKzFwMs24gA1y7aXqEMWoazqmpTw21qVfQGZjbRLGW3lNild7kfuxvGdgBxnJr65/suyDhjGOn5Vl39vp/SdFcZyNwB5/GumlmSStPUxq4GV7w0KWlB3VNzYVhuwfcZxXpOn6mbVQEl5AryufVbeJgEwMdKfDrRaRcGuaVVS22OiMLb7nfm+v11nUbqFD5d1DaqHJGS0IkDfkGFZ13bardHG4Y+tZEeos54Y9auC6nIIQ8USq3t5AqVr26nOalp9xbsTJID9K4fUJ5YyQc4rvb+3u5gx38VwmoWL7iDIT+GKtV0yZUX0OdmnnkBCgVzt5oi311DeXAPmQZ2EMQvP95Rw2DyMg4NdZHayg8KSferS2spGSlVHEcrumQ8M5KzR58+jG2WTyQq+YxdsD7zHqfrVX7DP6H869Kktn28gVV+zH0pPF33GsLbY//9f7CtPG+kS6oNFXVrI6g2QLQXMRuMgZI8vdvyB144rf+1SucCTk1+Fnwv8AFHjD/haln40g1u2j13V5fJuNU1CKOaJftACySMDtXhV6gqffmv1s8M+NrPUNNiK61YancQIiXc9nLH5XnY+YhVdtgJ5Ck5AryZ0XE9CNdTPaVe4MgVu3cnr9K0ovtG8SK+CBjG4gflXkr+N7GA/PfWyY7tNGP/ZhVOT4o6Jb8S61psfs91Cv/s9LlZftD3AvdHkuD24rIvYbuQH+L8a8os/iZp+psV0vU7S8Zeot5klI/wC+GNXn8V37cEkfgRVxg92LnR1kmmzlssg/Op4rdImRnCjB45rgn8R37dWNU/7aunf52xg1aT6kpo9hW9hi6lamOsoicAGvFL3XliMdvJMqTXBIiU5yxT5jj6Cp31uQrxICDyCMUpIrmZ6bda8xGEIFclf6lK11byl8Ll1ZezZXIz9COK8m8ZfErRPBWmDV/EN0YbcyJGCAMkswXIBxnbnccc4BwK8bvP2mvh1cuUs7m/nNtfJEXjtHZHiB5lVuAUIPH8R9KlR7Bz9z6yOqSA/IQOTVaTVpgPvCvG/C/wAQtH8Y2k1/o5ufs0cvlCWeMxB2xyFDc5B4INdFLqkUaFycAdSxwPzND03LUrnZyavKFbJFVf7Xk9RXmV9418O2Cn7ZqVpF7NMmfyBJrG/4WZ4N/wCgtaf99/8A1qzHzM//0PzNit9Jih8uVIQDwAw4/WtTNnaxrFbRqpkILCJccKPQYHNYWqaImpCAyS+WI8NgDPJIP8uK1S5EisDjg/0FcUjRXHtCjE7ogcnOSuaabZRjbCvHT5RU3mtt61EZTkc1F2O7Klre2sV00Sny7hTkFAVbt0Iwa9p+DvxMv/DvjOzivdcvItKkaRbqGeV3hYqjYLK5bGDjkc185anAssszkHLcZH1XvVN2ktFnlEwwZdyP93HHPXnOTWvLdCU7O5+sDfHLwCAWGswnv0Y/0rynxp+05BpF9DZ+FLeDUt8XmSzSu6rGxfYq7VXJJ65yABX51p4kE0hV4k8yPvgEHd25Nbdpq/25fO8tIzGyodoxkbgSSM9fQ1m6Nup0PE3WiPbvG/xJ8T+PNUi1K+f7JNawi3CWkkkSNiTeshUuQWQnj0rb8H/FfxzpOmp4f0q98i1sgcBY0ZivJJLuGO4np0AA6V4vezptb7OzQuDlnJJB/PoKv+FpSdQu1EgO2LzCGPIKkEfn70PYyTlzXZ2T/E/xX4203U7TVdRupY1kidkeYFfkYD7qqAOnauEWWO7urmzlRxjLOTI2HwQvY/Sr9vIDqmp28QjXdE8m1Fx1KkZOByCayZLq5NyE3kxlSQM/LwM9PWqg7OyE9VdmxBd3llaSW9iJIEWXzBEkzqsjx4KPgNjcCOCeRWonijX9RvYre+u7mXzomJilneRd4G7GCxBPFckbuUE8DaCMNnrkc/TFY41Cf7RBPIvlPHJjAPTJwDn3qZWfQpN2PXY9WllieRIUUw24mTjaWxncD6Yway/+Etu/+eH6ipf7Sl1GS32MQbiOROehcKAST7frR/Yuo/8APRP1rmlZOzNU5NH/2QAA/+ICNElDQ19QUk9GSUxFAAEBAAACJGFwcGwEAAAAbW50clJHQiBYWVogB+EABwAHAA0AFgAgYWNzcEFQUEwAAAAAQVBQTAAAAAAAAAAAAAAAAAAAAAAAAPbWAAEAAAAA0y1hcHBsyhqVgiV/EE04mRPV0eoVggAAAAAAAAAAAAAAAAAAAAAAAAAAAAAAAAAAAAAAAAAKZGVzYwAAAPwAAABlY3BydAAAAWQAAAAjd3RwdAAAAYgAAAAUclhZWgAAAZwAAAAUZ1hZWgAAAbAAAAAUYlhZWgAAAcQAAAAUclRSQwAAAdgAAAAgY2hhZAAAAfgAAAAsYlRSQwAAAdgAAAAgZ1RSQwAAAdgAAAAgZGVzYwAAAAAAAAALRGlzcGxheSBQMwAAAAAAAAAAAAAAAAAAAAAAAAAAAAAAAAAAAAAAAAAAAAAAAAAAAAAAAAAAAAAAAAAAAAAAAAAAAAAAAAAAAAAAAAAAAAAAAAAAAAAAAAAAAAB0ZXh0AAAAAENvcHlyaWdodCBBcHBsZSBJbmMuLCAyMDE3AABYWVogAAAAAAAA81EAAQAAAAEWzFhZWiAAAAAAAACD3wAAPb////+7WFlaIAAAAAAAAEq/AACxNwAACrlYWVogAAAAAAAAKDgAABELAADIuXBhcmEAAAAAAAMAAAACZmYAAPKnAAANWQAAE9AAAApbc2YzMgAAAAAAAQxCAAAF3v//8yYAAAeTAAD9kP//+6L///2jAAAD3AAAwG7/wAARCAQAAwADASIAAhEBAxEB/8QAHwAAAQUBAQEBAQEAAAAAAAAAAAECAwQFBgcICQoL/8QAtRAAAgEDAwIEAwUFBAQAAAF9AQIDAAQRBRIhMUEGE1FhByJxFDKBkaEII0KxwRVS0fAkM2JyggkKFhcYGRolJicoKSo0NTY3ODk6Q0RFRkdISUpTVFVWV1hZWmNkZWZnaGlqc3R1dnd4eXqDhIWGh4iJipKTlJWWl5iZmqKjpKWmp6ipqrKztLW2t7i5usLDxMXGx8jJytLT1NXW19jZ2uHi4+Tl5ufo6erx8vP09fb3+Pn6/8QAHwEAAwEBAQEBAQEBAQAAAAAAAAECAwQFBgcICQoL/8QAtREAAgECBAQDBAcFBAQAAQJ3AAECAxEEBSExBhJBUQdhcRMiMoEIFEKRobHBCSMzUvAVYnLRChYkNOEl8RcYGRomJygpKjU2Nzg5OkNERUZHSElKU1RVVldYWVpjZGVmZ2hpanN0dXZ3eHl6goOEhYaHiImKkpOUlZaXmJmaoqOkpaanqKmqsrO0tba3uLm6wsPExcbHyMnK0tPU1dbX2Nna4uPk5ebn6Onq8vP09fb3+Pn6/9sAQwACAgICAgIDAgIDBAMDAwQFBAQEBAUHBQUFBQUHCAcHBwcHBwgICAgICAgICgoKCgoKCwsLCwsNDQ0NDQ0NDQ0N/9sAQwECAgIDAwMGAwMGDQkHCQ0NDQ0NDQ0NDQ0NDQ0NDQ0NDQ0NDQ0NDQ0NDQ0NDQ0NDQ0NDQ0NDQ0NDQ0NDQ0NDQ0N/90ABAAw/9oADAMBAAIRAxEAPwD8aNOhFtZ71XDrGzBOMZPIGayo98kaTzEl5CWbI6c9B9K2HnLWZ2EEynbxzgn+dZpVYi8ZzhcYxjkGsbdjWTdyo25JAzDg+npVG4hLSrKD5ezoVHPPpWy6KV2sTxz17GqsskJgJGAB3PrVQ3IbsVLLzL2+jhYDahyR3I7/AOe9d8MZ6d8CuW8PQ73luyMqvyLkdK6xAD9481T2MW7iBpHljiTOxm2tgc8193/s8+GBHpz3UqkFmCgjpgYOBXxRo8DahqkEUYJ2sM4+vQ5/rX6nfC3RV0rw5ZRCPBZdxP8AtN1NYzeljelpE9j09PlCg+ldNaxrGvXJz/OsaziywCDHH4Vpg7SVzzSWw+puLIipgLnb2HWkWSR2VoztGOQO4rPtnwcyFhjnK8/n7Vv2kcZBYjb745xTsXaxJBCxGdwyvr1NT+S8gwTwKtQwYBkQjjBxjqDVgsCoKDnv7VojOUjPe0KRhlOc8N9PxqtiRTsXhcflWyQSqsODmoWgC8ZJLcnNNIW5lNEwYZ5phUFsVo7OoPOe9V2X58AH8apIloqbc9P1qJkAOO9XypC5I59arPGpcEn8KYEE0BQ7t2QBng9azydznjv3961GAAxjpVGRcOePzoAgkiUNwc49Kkb505TpUiqB0xnrU2SzAMO/WgZU8smMng+3eojAAjOeuOntWuSGYjGDQY3ZduQAep9qqJDMhLdxEHCnb2p7RheB7VeYMqAknaDiq0hXq3IPp2psFIgDFV2rwarSRc4AxzyfarSnLDsBwKZJu7D8aEtA5jLuI1UnJ6/pVQ2rv9zrntWn5bcmQ5zwDT40I78noaEg5itLYzRRg7gVftVf7KSoYjJB4zW8yzMNjtkY6VEVA+U4yP5VXKxcxi+Wc+pHYVNl/uBAVI7jpWky7sFVxg8UioFGT68g0rBcyFj3btvGOTULoSjRn8K35PIZAojwQeMGsqeEhvl5z19qqzEYv2eEsVbIOMg+hqmbXYcOOTzxW6bRizFRuAPJFRukanEhHTg/0qZalxZyktkqjJUENnr1561lSaSnJ2AKw712j2bSgSHkc4qJraUpuTlRyQajlY+ax5hdeG7ZyUaBSucgHlf/ANVcXqXw20S7YrdWUYyDygxg/wCNe7m39iQKpXVgXQyBTtPpUtNBe58k6x8ENDnZ0gBUngZwR+JryfWv2d5yXNoEmwMjoDk9s/06V99NYxbf3iA5PcZ6VE2lxyLlF5Pp0q730BxvsflbrXwL1rTSWNtMoJ42jI569OwrgbnwLrtkzCNj8vVWyRx24HUV+xU+jJNFtlUEg8A8j69643U/Bul3YZJ7aNgcLwgpMXIfkXPZ6rZ5E9qzDGCQfzJzVL7RGwwQUbuGGMEfrX6eap8G/Dt/uFvbmI45CnH1Oa8t1X9nmGeRzbyRkkHhk6+nPoKXKxNdD4aCK6ghvy7VF9mVuWbce/tX0drn7PHiC0UmztHcesBzn6D3rynUvh/4j0l2V4pBjoHQg49Dx1ocRJ2OBeBlHznkn9O1Vf3kI6E1vz6fqduMTW7ELySvPFQLGhG1ht45yMVD3E2Za3WSDyPw/wA8VcMysM4wOOc5yRU4s1I+XH4VFJpwOCCeM/TP50i1tYfG4cZ//XzRvQfQ/wBKrm2nRfkOf61WaGcDAXJxxzyKTfQpIllukX5dvTp/9es6TV4Y3C5xnp6VRvnlWE7VYHrwOwrlzullCnI5pKDauXoj0O2vBcJ5iggHjHuK0FIz3x39q57SYWji+foeefbtXQoQOR3/AA4oQFhSeQB9DUZAPYde9OHzH5SR607pgiqJa6lV4nMscqMVMR+7njB61cS+1G3YNa3U8TKQf3blDweuVwaZt7/n9aXgEjPHGOOuOtRKCluF+56ro/xm+ImioEg1m4kT+5K3mBvbnpXqugftf+JNLK2+t6fFfLHhPMjHlu3uTnGcV8rtyMHvzVaRAwIAGfXvmkk1sJQjax+mHhv9rXwHqeyPUkutOZ+u9Q6D8R2r3Lw/8X/BOuJGmn6vazM5IVWcK3AyevpX4vxLtAA6Y9Kk3SK29D83rkjke9aKbS1M/Zn7zQ6qk6gxyCQYBBU7uv0q0L5CDubLd/Svw/8AD/xE8b+GZhPpWtXcTLkANKXUZ9A2cY7V7poP7Wvj3SlX+20g1KMcMSCjkDHOemc/zrRVV1FyNbn6qJe7TwQfSrw1N5UCHHoTXwX4b/bE8H6gwg1mzmsX/idDuRc/jn617doHxr+H2vlVsNcg3kA+XKTGef8AexWkZqxMo9T6GjuIg+3qT6VbDKR1rz+21qzu1EllNHKjDIaNw2R6jFbNveKE3q/Ppnk1qpCsdYsjDgdKVL0K4jxwMdK51dQXt3p6XReTc2O3Tim2VbQ62RwwBz70gdXHFYnm8BlPU/5FOErK2Wz/AJ9KL6EcpuBiOhpqFmyM8A9Kom4cKccmlSbI4OPpSsBdbqai6KQehFRI45Un35pdxdSFPtRZhYXd8w9xQwC9OaiY4IBpJDt68cZpWGtyIthiB0qFz+FBkQcscfWomZC2c0DkiMnk5P8A9es27j3buAc9q0G4yRVGSQFST17jvWTQdbo+Uv2gfDC6p4d+3RAGW0LHOMna3UZx2PavzTurZrXUyhX5WY8D+7X7LeMbCHUdOurV1ASVCuD0+YY/ya/KXx9ocmi688brjyZWQ+2OnbkEVg9HY6Zyujzi8gQlgy57H1x6V5zqLNFdNbY4zle3B6V6tcIudwB9R2rg9dsz5kVyoJbO1mHv0p3MolzQ7oCKND1UED8On45rr7pBd2ckGRlhjOO45B+leb28ht5AjEAMRkrzgdjXeWc+Yw2dwAwaylE2jLQ//9D8R9KmmlmEDkN5ILj8en61pBCzMx4LsT+PSsTQ3CyzfKT8oAYDgEV0K7ccsd27IHXisVuW2DABChIPGMnnFYF4rFRF2Y856DFb8owpyPxFZYhM90kZPJbuO1aRIZ1GlwLb2EcY75bPrn61pMMJ8vBx1o6fKMflSTSYQAHliABTZmlqe9fBDwY2t30crgsu/wCYn0HPPrmv0fsHGnNp1ksTeVPJ5IcY+Uhcgkfhivk39mXToms5pD97gD19ufSvu2106Boo2njDGPDqD2YdCPeueWrOmKVi/Y2a2SsFkaTeSct2yc4+gq4kZeb5l4A4b1pjBIoxJMdqsQM+5q/HG/DDpTSESwwjr09624RvQYYEDgcYrNiG5QMEVsW4jCZYHjGBVod9DTs1MIK7lYHDH/CnGNI3JVD1yQfTrT4tixhduGYA5606RCxL4wpABpk2QkLeZHvPynJ4+lMcA8f/AFqkjQEjHQc0k6KAHBzuPbpTQNaFLbtbtjtmoXQdRxzmrskW0Anp69qpu4P3eSDz24qyCF0JYKDyMj86q+UPMLdD3/CrZz1HUk9fSmohLbwOvQH+tO3UTuUnQ/gf1qExoTkgVfmGT168ke9VpFAxxSGmyqyRxtuHU8VOoUrnIJqPAc0lvbskzO5ypAAHuO9NITbJMYJ71YRGfpUuxSpz3qVdxJ2cHufWrjEgpSK6Ag/db+lUmQkiNUzu/StFizAlhnNQphTwfmptAU1hYggADtUEqMFCdM9cd8Vq52nBH+TVWUHcQRwKEBkvGcc1DHHJuLc8YwO1aTqoGetRor5ZQeOtUkA9XDKCTznmh1Bw3GaSJCRz0H61NtI+bHGaYFYoyHr70qht3C54zVrC9SPzpd2DtxxRYCp5YHUYzVae2Vo8gk9jWg8buSecAcUiQx+Sd5wwzgZ/zmhIVzMRSqeWf4uB3qCaBHwu0A9PwrTDEbcj6HFNljV3ypJPGOw4ocRmbIkSHy3XKj07VnmI7jtG0Hp9PetnYCSSOc1DOH3Boxznt6UrIDAmicKz7gAPlIHes+YzBVjwdhzxW7sjH+s5yelV5VkyY4jhTknioaKiYwiXHI3D0pUgOAy8g9q01jQdRilMbBsjHtQkgehiyW7FiccHtTp7C1ktVdZFWQN90nBrQlikGT2NVzbrJIr7C20YoDmZhtYrGfmx7laoDSlkJZDu9K7ma0BG0YHHGO9VvsUjoSgXCdSMZpWBSOWXR1K726k9Kr33huwvYPLubaKVc9HQMOfrXWpbnGWBqcxkjpx0q43E9TwbVfg54M1JWafTY0YnO6MbD+navHvEX7NXh25LNZzyRkjAWRQQM89R/wDrr7Rkg28EcHvVGeyDhRt4PeiUUB+autfs3a3aln011kOSB5bYHfHDda8q1P4V+NdKZvOs3dUzuYIefyr9ZrjTo1bBGDn04NZDaYjBo2XIJ6dR+VZ8qHofj3caRqtq2JbRuvBH9ayJPkx5sTxk56rkce9frbqvgHw/f7jeWEEm7AJ2AH3+lea6r8A/B2oh/syy2zEcYwyjt0NKUBLyPzSnWJwQuOPT3rIfTommUmPIPXjr+NfdWu/su3DBzpdxFKSxwHBQkHvkcZFeO69+z5420oeYsErAZw8f7xT65x+lQ4MfM0eErZLGoWM49jTzHJH8o+auuvvB/iLTNq3UJBGAd6FTn1rGmtr62OJ7Z19SBkfU4pKIKbMvzZl+XZg+pGak+0DcAavB4WwMhW6YYYoa2ifsG/z60WHzFZZBjPX9aeSrDOT9PUVG9khYbMpx19KT7NPHlg24ds96QMmIxj8vaotuWBbPX8/rUEhuEUnDFVGfXj1qAXzK+GXouSMf1oGnoXuhCHqeM/SlA4x/OoluYpOSOQM88E/SpWdMcNnHYDNAClSwwQOe5qFkUjBBPWhZG3npjtT+T90E460WApm3QSMwAB7H8aciTxktFK6n61KzqDg8Y556U5fmBxjHrUtAdJo3jfxh4eIfStTuIXXAGJGC8egzj8Ole1+Hf2o/iVooT7ZPFfqvBE6ZJHbkV85kKOvO3kUKu772McEVSbWzFyo/QDw1+2Ppl2Auv6PNA2ATJA24HnBO0+n1r3jw5+0H8MvEGxINXS3lbgpONhH1PSvyIbKdM/0pRJJGMqWHfg01Ul1Fyan7sad4i06+iE1jdQ3cR5zDIH/ka2Y78MRn5R71+GGm+KvEGjyCXTr6e1f7w8uRk/Hg4zXregftKfFDRWVTfi8ToVuRvDDtk9eBWiqicWj9fRfKWGWOD78U6SZkkYocV+efh/8AbGDHyvEOkY5H7yAnkd8D617t4d/aV+G2uKim/axlbjZdADH1Iq41exLa6n07HcniRjk9Oaka8VWAz9fb8a8+0rxXomsxmXTr+2uVPTy5VJ9hjrWwl5vGCCPUkVpzdRROua4WUbxjH1pouMqOcgdK56O4GNqnIPf1q2k6YAzg+hpcxRoO6MmRxj86h3HGSc1RlYk4XNQtI6jDEikmS0zQeXcpXt7VmS8cL0Hek812IOeAeaQsuCR06UmUkYWpRF4h5gD9cD/Gvg/9oLwwkV4dTRMLcpubHGGTjgfSvv28wY8DnNeD/Fvw7/bPhu5KqDNCPMU45IXqK55LU1S0Py4hlx/o0hyyglfcVn31uZY3Tdjjr2zWt4itH0vUDIvy7ST9MnkH61Wu1Bj+UdV6+veknqQtzz2XAOwkE5rb0+5jVUDEkRt09Sf8/SqpiO6ReCAeM9aqBhBOSx+U+npmpl5Gl7n/0fxQsNkVnhO7NnHIzWjEBtyfX86x7KN4rZYnGGJzx61rlwkajPHqKzQ3uLO2V4x8vWmaXGZb3zCOIxn6E1SlkABJ5J68Vv6RGy2hkdRmRsg+w6VUSJM1gBj+VNaIzXcKJk5447U9Tgc9BWhosX2zV4IlHAYA+/1xTexNPWR+iX7N2itZaBJcMdqSsMAjngV9iWah0VvvV4r8KdAGm+GbOFF+bYCRnnJ5Oc175Z25ULjHy8muVau517Ektos0ZikwV71aKlIwEGQF6fSpBjaSc8VYA81cBTzj2xWliCjp8lzPHuZOScr2rqBFE0IYZXaOQeo9azrePylCjhqvZlCOmOWBU+2aq4mWIvK2K9u5Y9wasHzl2M3Abr6VnRCXaoIxj5ePb+taolmf924yB61Vid2LvTdlc49KbIHMWEx1zUnlAxhl+8ODTPMKZUr/APWqkhszpvPKohzjqBVIlQTGwKnOR3BrVmClsqSSBjn+lVGiU5J6gU0Tcq7WzxyBU/AXc3emquCN3zE+lWJtoj+Ue1VfUDPfDtx0qs65+8elXCmBTc4PTNNq4mymFXpjpwKnjVjwBzTdvzfTmnqxU/KaaIuOAIGOmalQZjcg8nGKFXOT/OrKRDaWY4I7etWgKYBdNo6j/PWmtAUKhsVeClfu4H4U7qdx/L0p2uBkkFmz0qGWIscA1psq7iR2NVH4bK9M5xSsBV8pY4yx+YjqPWqsIAyffp6VffbsPrVSNQWYgEEevemAMjcbef8ACj2qXkDPFN4C5A696AGgZAz270bcEZqQZ9P/AK9B9TTaAgILMUzgDmqjZ6HNXgAWGOB1qvKGdyG4AHanETRTBbI+YkAYFSqMYPegRHBxxiiI7W+ce1NoEKhWLsGz1qo5zwBtGevtVxGYH1x0p0SrvG7AGT+tLlGYnlqwYEA56HvULwk54Pv7VqXNt5bnYQQelVCXH36iw0zN8sK27r2609B5kh6E4zUlwFPKA4PX602NElxESU6ZIp2EXHt4Daqz5BOcYqgLeQj5FyPyq/Eo27CwIB6HuasXZdnGECHGAR0NNIaIYdOCJ5twwUDp3FRCC3Ax5ZA67h/KrqmaS3FuDuyT74xSSNtGxQT8vPbBp2EZDISdingHvUbrjjHUVoCEnkfjmmFcJt9TzSswMmWLKAnkelVHBbrnitd4mY43cdhVWaFkHH40AjnrjcWJI6cCqAjPmZHQnpW7dIXI53beKoeUN3Xms9gKskKyDBAPeq5tVGeATWoUXpk03YOwJ9PSptcDPS03AFhwDwKkewLghRj3rUClyCePpVtU3cGtUugXOLv/AAvpV8hS/to5VbJO9FIJ7+9eZax8FPBd+TKdP8lmBAaI7f06GvoPylfgjp600oM4AAxSa11BSufEms/s3aRchlspzGR08xM9a8i1r9mLxHZ5bTglwOq+S+GwOeQ3GfbvX6UvaBmwBliT24xUIsI5MKwyfcdKXJFhfU/IXV/hX4w0d3M1rcKijOXiJA98iuNn0nVLclZrdjjqFHb6Hmv2pl0a3mUx7QQQMgjI49q4LWvht4a1OPFxp8JYkksUAY568jpUun5j9D8hTth+WQMu045HQj/CoTbwzKQBnnBIPQ1+jmt/AjwpdO0cMTWQI+VR84z9D1FeXa1+y9JLHI2j3MSucY35Vjx3xxUcrCzWx8Vvp0fG35T3xUL2Lt0bPNe3a38CviXpDM0NoLqGPq0Y39PQDnFeeXvh/wARac5F9YyKwGSApXkfUUmhXkcX5d5Fxtzj/wDX1qaO4baNylSeo+lazSiMbZ0eNicDcPlHrz0qIrbyDOVYD0NLlK5jLlnOOg5PenLPDuEZ+X29DVt7G3dcOvFVG0dCQYJGB44bpScbDui2MY3AjGacVyAvTr0qkILyLCt8+04yOD/9enGa4iO58jPtxSsFy3gEcjPPekCjqOtVjcBAMnrzUqTJIBgjJ70hkp4UuOQKbx259MdDTGiQ4PqMEA8UeahIjGPQf4UASAEdOCP0pS3Tdg+nrTV6469KcQdwIXPX8KTSA0LPWNUsGJsbue3bpmJyvv2NereHPj18T9BcLHrMkyA8JP8AOMAdDntXjeCSSOgx9adt57fjS5mtmNRT6H2RoP7X+sWqhPEWnQ3GD80kJMbbT7DjNe6+Hv2o/hxrRVr6eewmOFKSruA/EV+Xkke87DnjP/6qaoMRDE47HvVKqxciP2s0n4h+F9fUHStXtZs8riRQxHsDXWPfNIBv4QHg/wD16/C63uLq0mFxazyQyLxlGI/ka9E0P4yfEXw5tXT9XmeNOAjncuOODmqdVk8rP2MEm/lWyPUGl8xVXaTxX5teHP2wfFFo4t9e06K6TGC4yjHHcY6f/qr3PQv2qfAWpskeqLPYSNjcdu9AcdOD1J4qlLQWx9V3DoFwWBORx6VhapbLc2jowByCDkcYNcVpvxT8D6zsax1e1keQj5N+1h2wc967qO9ilj3AqyMP4SG/lUNou9tT8ufjJ4YOka7eWzDG1mdV7bX5FeN2rb7RQfvx/L719y/tF+GvOjh1qJSd2YpCF5yOQc/yr4XCSw3rxvkb85X0IpE21MK9Uw3AbqG496xr5WbBfGDxkfp9a6nUojLCfM455x1wK5aTfKhEmAFPHPc9qTZdz//S/FIDDKRwB2qxJIIlIIzxz0qtCDI2W5z6fzp0zNu24zioSBsz2ujJMIlBznAz0ye1d3bxiKGNCPmCgVxtjbmbU4sgGNTvYdRwPz6124AzgZyKfUhsZOxiiJx82OAe+a9J+E+jf2j4htIlGWeVMdeuR/SvML11YxxJ1PDD619Vfs3aQsviWKWSMMsSlvmGV4HqaUnoVBa3P0m8KWKWtjEi4C7cD3x1r0G1U8EDjiuZ0eMJEiIPvLkCuvUlQBjBxwRWUYmrkWxbSPCZocEqelWIGe6VWuFMe0447j6VEwZYCYeWGCKvW7l06Y6ZJ45q0K42SIIhcMeD8ppkZuZGUM43H+XrT5wdpXOcUkUMeBuf5uoX0osDRYdZoiELDg8+2av28bgFgxYVVS2MgLFuvGK07VJAuwtgDg/QdKtMgTax4PTrUjBSpyP0qR03KAQeemKY8ZVASfrmqAzZI1HP5YqBxsOPXnFaLowOVHHc5qB1Eg3AdM00hXM8A7iBxUhXKYOKMnPQ4qTvj+dFgZTZfl96plT61pEKD61WKZbcB07VSJuUypBAIzUgjON3p2p7Rlm+tWSnAFWhEcTYGD0qx16c0xYv1qVUxQtwEI+XBqPDFgMYq6qgpg9s1X2bfmHNWgKsgZV3dRUJwAGHWrmGJIOMVEU68f41Qtbme/AJFQ4P3u9W3C55pmBmhITIipxg80zaDmrBGBwaacmnYkh4AwRnNMzu3DrjrUpTP0phXaeOp6n6UmrmhBwBjtmmgZJP86nEY6gE+9RkHdjpSQCIvJPUVBv+ctjOaewO4dhUZxuJU8dKYFnYGiG0DIqky5Qr3z+npVuJx0NRqA7sTgAZPFNAUNpxwOBxULoGIGKu/wALAfdNRCaNWCNy3Yd6TQrmU6NkgjvSxIEJwM54+lT5ySeSevvTI28knf8AN9aSDmQqJzu/KpjuDAEsePyp7AINwGQaUZIUL09KoFIkVAFLltoyfzqHClt6tu3DFOcNtEeBg8njnrUsQjYklQOMADjBFAyBtvKD6VXmB4U9V4BA61bAz+FNdcjHBPU/hQBRZcAAfe71XkUAbn6jnk1ePHJ5Hr3/ABrPuQHIyCQOgpMSMaVBjcD1qkq/Nk8VoSrhiB0zVfy9p6moGREIOSpP0pDx071KQe1M2nHFAAuc4FaEadwKoIQGAPU9604hyAPyoAWNd5ps0JByo571fRAMDFPki2j5u5qrWI1Rkop24P0pzR7iNuQauiI9RzUgheNg3r0/rSsGtyosJQFQDk0j26xIWlw5PpWwse7r0PaopY9owfzpuOhSZw91axuwO3oMfnSvpKRQb3HDDgiti7hCyb1/L0NQN5xUDqvpWeiLexjJYo2Fx9Kz9S8N6dfgx3lpDMp6h0BB/SusiAU8j86kkUN1I49KtMlNnhetfAf4f62fMfTFgfJJaA7Dk/56V4zr/wCyRoV0HbSLwwsDnEqc5+q9819wQKh4Iyc5qSS2Vx0x9KOWLGfltrX7LPjbTleSxcXA6Ksbcn8G/wAa8j1j4aeOfD+5b7TpgU5yY2AOPcZ/Gv2XezVmwwzniqs+nW7qVZAfYjIqXS7CbR+Ik9rqNpu+1WsiIDgkDIzjNVPOiY7G4bPAb1r9hNd+GnhjVm33umQSO5GX27Wx+GOteO67+zX4Mv4y1kksDjPIwy9c4weelZumwWp+bZtopHxsU5z09+tU2sVb5ogRn0H9PWvtHW/2WbqJyuj3iydTub90cdh3H6V5Pq/wO8baXJJi3Z0QnlR5g2gdcjn9KycWhxueESW0vlH5ge3PWs1o5I9sjITg9ucEfSvQ7/wxr9i7Q3VjJvUZxjGcemcViywyWnM8bRDn7y4/+sKXQu9tznhdRHIYkH3FTLOnTOfTmtB7aByS2Cce1VG0qBsthlJGAVbH/wBahIlMf5q/wkcdfb3oDKRksOuPxqA6dsHDuw7nNQtbTRHO889MjoKnlNL2NEsAC35+lRxyCRdyqeuOaynuLqPIYblHB2+p9qbLfyQqoUEg9eMY/nTsSbBTAIzwfaoTGANo4B/OmWl0Z4yxUrg96lJQZYMW6d+BQCGeWgGOp/Wq81sZMFHKnIY+/wD+urnb5u/NKDzmlYtlRWuIT+4kdCByVyM4+npXZaH8RvGvhtkOl6pdQFVwAJSygdcYPFc0qoufTJP50NGDlgcbsEUmkK19z1Cf45+NdX0e60rXwt7FM4IaXAcepBA4zXlt/qNteyCVB5bn5sN6/wCGfWmPGrHJHJ6j1qqbdEJbP1HtREbRYku45kwWG/B+TOT6Vx2owTrNGiHI+9jHTHT8a11sTHcb4jjcSflOBntVvfKv+sIcrxkjv9aolRP/0/xegRY0/vZxVG5l2bzjH171ZaRAgUE5xgf5FYt93ZmPtn2qUDNzw6pk8y4YdDtGOn0rqmdVBLYwATjOOBWbosPkaZEM8sM/gaW+k2xiPglj0xyRVMzI7Rvtd55h6McgH296/SH9mjw7GmmyakYwXdgMkcqB6f196/Pnw3aCW7ijHXvX62/A3R107wjYkrhpY9xOOQD2PvUVNtDWC0PoPToyArZ5HHSujii3MCO3NULBU8rIycHBzWzbxl3wDgeo9KzRViNDG7FCDnOAOgP0q+rxOAkWeOCfSldEh/eMpIJxkdqsyRM6q8fPGMdCfeqQMY0cbquMZPWmRxW6nbyZBxk/0pUhAkAII7HHWpo4Skg+UnbyM9xTVxNlqNdir0NWQhOMcH0p8CocmQAbvWpNoBMnJGeKtIi+pZyVGF49h61VK7s5OPrVgZ2/IO9QsrKRxn60xlZgR8pwRVV4yo4zj0rTfb0HWq7DP0FUkIz8Z7fpUbEn5j0HGM1b6k4weT0qu6p0YdPSqSJbKvzH2IOaYwIHQsfapXwvI6VHkngdfamIgkjZwCvy/wA6uoAVH0o2LtGCc1KiCMkDlSevrV2Aj2EGlwTyCOOoqVk/u85pRFtHvjmqsgE3+UobAOc/hiqqjPP/AOoVMw3DGOPWkSMAkkVQFf13ZqszGNsGtQoMcdO9U54gFDY596AMx8fN15OR9PSm5yOamYgUw4OPWglsizRyRig/pSDGeeadiQ5H40hpfY0fypAMyRUTHmp8Y5qAgA5xkUDIzz0qrjD4Iq7hFBPf0qvtLtuHUdTSSGpDQGwWxTSMgheM1NuymDUag8+4xTGmiNVOdp+7VKZPnMg6itaPytu2QVmyYJI7A9fX0oCyZCMxj5uWP403YWUkYyetK5pYuVLEGgTRIOAF9BUiKoweeKjVW6txUm3Iz70EiO4AP+109qIyFR1PU/pTmTAx/ninpGByRk0ARbV2/L17mlEYBDU87QpxT8DAOOCOfagLlaeArh1bk9cVSljyMGtghSvzdKzplfecdO1A7mJKqMxQkADn06VmOuCcfhWtcJglmXp7VSkUEZH8sVmWUiMjilA4HrUmDn3pTgdeKAGqAKt25KyA9KhCcjOeeasxrkAsfwpoDXR1f5VHvT2TP3jnP6VXt1G4Hp2rUMYC5bPPWrFIzgnRRTghL7f51c8okgj0xUiAISWXI6c0EtkQjHQU2SLeuOhz39Ktpsc/KMZpZQx9AAaA66HN3MMZzu/DFVzbgIMHJz6dq6abTwbQzcD+6awtjKQoOD+tTyllCS3wSQKaIyCNwJU1osFIApuw59fYUrCuQQKqjj171aVNw4HHvT2Qbsk1IQMdfTiqsh3IPLXJGP8AEVC8I4IHNaCoO9P8vA4FBLZjS242g8Z7iqJtkI2lcAc1uyLnqOKqmLZ9COPrUsaZgtYo+VxtH0rMudEt5st/H1B7enQ11UkbEDAPXtzVcqc4I5NJodzza/8ACmnXSGO4topGP8RQE/nXnGr/AAa8I6juWWwCFs5aMkAk+3T+lfRnlg9RVWS1UE8DPoKlxWw+Y+DNf/Zi0y4Z20y9e2lIwpZcqee+P8ivKdX/AGc/H2lK8lo8WoKgGAh+Zgc9uxFfpjfWCtFkAAjpWV9hR49qnBrJxVxM/HrVNL1XRblrTWLGa2lX+F19DiqEbxPlUOc8EEV+vOqeCtD8QR+VrWnW91xjMqbnGfRv/r188ePP2XdK1P8A0nwcwsJtp3RSEsjEdNp/h/Wk6b6DsfBrW8ZbJX/PpVeWwt5zukGSOma+iLn9mL4rwxvLDHBJsGQglGW/OvNNY+G/xB0CUQarolyhP3WVCVYn0Izk1PKwuzzKTS9nMTYGTj0A/GoHgvIlOMED8a6KcTWsrQXlvLbyRnDLIuCD71BHLE7ldwz9cUrD9okcuLieFjvjORU8F6rShSwBJ6Hr9K6VoUdMNg569D3qpLp9u5H7sZzyRxmkwU76lUTo465+nNR+eSSBgA4wfSh9JRTujZlPseM037HPHz95cUWLUkMnlkXDhsKuSwxkn6Um4mPzGBUHHDdRmhhIq5MZx2xz0/DrVSa4A4k7HA9sc0WFe5MshMn7sdPaoLk3BdcKAvBO7pzUb6tbxttAx0qVL22umyjZAHTP9KTYX7H/1PxSkjMYBkxuHIweaokfap44E5LOBj6da0rj51y2Djv/ADp2kWiPeGY8iMcA+/FJbCkdYqrGoVfugflWXfAvOoxuAHymtVSwzg5461XvIjsjfjhun1p2IO9+HmlSanrFtaRA75pVj4GSN1fst4N0s6ZpFva7VVUjReBjkDGfxr8zf2b9A/tLxVb3UgBjtSZz6j0H4mv1f06DfDGOmQKzm9bHRBPc2bdQke0n+laygogb1H3hVeKKMx7Txg4z6VbWWWPKqiupHBz09KSKkOFxMh4YMj+o71qQuAQxIK4we3NZYumlhEDwgbT1zggjuKtxQl2CbiV78dKNbmbZpGNQ4fqT29amVMjO38adDbxwRZZixPTPapSJsfd+UfhVpdSbCKqgAdTTfMxx1HoangVvLG/7wNKQqPkc59vWqCw9GTYAhBHtQ4zwBk0BY1BAAH0FAZV74J/SqiFyoSd2f8ioZGHIHepS2S2D9D6VXZO/c1bE3oQAqp6Yye1VZAd5LdM1aPf2pjY4A5z3pxIICQB6n6VCg2ncTjrippOOx9qi5B9DTsBIG596lOeN2RjuDUXBINSncy/L69KpALGNzZJ6GrbqdvHeoYkwN3erJIzzVWuBT2MoIP50wAk4/WrTkYPHFVQGQHHAosBGGKHLjjOPXBqOfaSOcj+tSZAyW71WYk8fhTAoyqFZh1wepqNl6bRmp3dQSP5UxgBgA9qpWJkiBhxgDmmr34p7g5z61Hg1TJBqbz1oY0q4xUJDsNbpzzmo+p46VKT6Dj0puMD+dNxEQk+uKg3MpO3jNWiB0qERF5D0ApWAZnJ6UCpGj2HFRNkkjHSkBE+d+B0qu8fzsD90frVofe54qCcNkmgpMqZ+ZlXoP605HbDovQj8iKWFCwJqeOI4YYINA5Ase9QQcU4x7U9s9aUB402lTyTzUjlvLGOfWrRA0gEqwwQKlc73LDjHpUSHCc4yTx604Alce1SwIePu9ec5pxyUHTimlSOnarRXKDaAMihICu/MaoBj1qGSPKlsipcetNmXKjZ074ptAZjqzKwODx1FYToxJ3McYxjFa12rLt5wtZ8rxv8A6tsnv9ayasXfQqcA5btQSrj2HTFIQp6HPrTo1x9ykNDgMHOTxVuJQ54PFRKPnHQetXoFUuccAelNITZdiXHCgYyOTWnFjdy3FZ6MXcIOvQVbRgCEZSoBOWqyLkxGTUnlI+QR+FRpuJwOn0q9EBnpkep700gIYoMH6HpSyQlnz0HpVtepP1pGAI+XrVWHcxro7RsZjg9R0rIC75Acj8a6C6jVf9aN5PT2rHSISO6gEYOfoKgsrSwurAMvUcY71Gu8EkjBHGKvfZdh3FyxA4HYe9NWE9cHrk0EMiRV+/Lwo/nVry0A3IMZwamjj43Y4HrT8Hn9KARU8pvvDGPSp8/KQvfvUqoW6VIIcL8p7cUW6hoZ8kOfTcfyqk0bE4I6VtNG2QDjgdqrsntQJGWIjjJGKrMAx5GfTNax4PzDGTVeS3bO7A69BSaAzfKOSAPxo+yA9TitAIFfkZqbycYDd6OUDmbmDCsPbrWAYX388fyruZrbIO4EAdqw57fqAOnNZygWmZUYwQDV5IkxkLz61GsZB6VaUHgYA+lNaDZMqIw6YxQ1nBIuHQN6ZAxUqI2OlS5IAB57U7kp3PL/ABF8J/BXia4a41jSba4lZdpkK4f9OteG+If2SvA2oxudLlnsJSSRk+YmT7Hp+dfXjkg8ilGOSQDn1/pR7NFan58j9je5VWP9uiJxyqxQkj2zuPeuEvv2VfiZazuljc2dzHgsrs+0nHYjjn9K/UDyDICy9qpzW4PPGR8uKzlTiDPyM8QfA34teH42uJ9NW6jznNt+8wPoDXml1o3iKyLfbtNnh2D5iUI9sDIxX7QXNoSeQVHQ46VlXGkWV3Gbe6gimRuodAwwPqKjlKSR+L7XEa8Sq8eTj5lP6imottOCcI3sa/VrxD8FvAutRSh9MjhklBzJCNjZPT8jXiGqfsiaPcDzdP1SWB+waME/oealxsFmfANzoFlN8wBRvVTisW48NtGA1tKfTHoPrXv3xG+Emv8Aw6vZIfNe6gRBJvKnbtPUexFea7HkRZQuMqDgfr1/Sk9dBLQ//9X8UBLvJycf410OmW4ih83oXHfuB0rmIrd3ZUJJJwBXbwp5cSpgDAxj0xSSsSyWPOcgD/PpVZ386dYEOdjc/wBasNIIY2kPYcY9e1N8OWn2q+j3A5dgP1phFH33+y/4dureSTVm2+Q6CIE8ncDnFfoJp1u21TuwRycCvm34LaI+j6BaxYx5yiUY45b2r6f08fKny4I4Oaya6m/Q3FKBMY/+vU6THy/LIAX/AD1quo+f1p5YKRkcE80riHxt/OtRS8QD25DZ6jsaq2NuJC0g5XPGeMVrA2yjag2kdfcmq6CuSwgsSfU9K1QG24x17msTbID+7bBPWtOHz9gDOcLxz6VaJbIZnmRxg8dMe9TBfMj6jf8A54qRl+YZGec1OExyg5PNUhFMBk+Ug9aikzjcDVqWNgRg8k03yivXBGeoqyZFADr6+9VJUdpEIYYB5HqK05Au7B4+lUyuDwOM9KCRjqO3FQHCjGetTn3PSoiehqogVyG3AZxnvULggnPNTOxwQaZ245q0BDyx9KuLlVAOD2zVRVJOAce9WlG3heabAl8zbgev6U8SeYoJqucEZpqyFDtBqkBdHIw3rUEyjjHI9aaZCRxTd2Rz1oArS8MBUL8Lup83mGQg42nv6Uxhgdf/AK9UkRcrkBuophHtT8EksRwOlRMTuyB0o5RXGEevSmgevQ9KkfDEEDnvmo3AzwMVQEZA3E0mOPanhMkcgDvSBR3PegdyOhuRkHOKcFGe3WmYAJx60CIycc0mR171L0BqJvYUANLZNNOO/GKXp2pHOTipaAaqgj5hVK4l2sePwq42dhdT061Qm5G7uM5qQCHkDHGe3eriuVBB9elUE2gBlOG71aVW25f8jQO5LPOJFCoCPXPSosHIOOKY3XA5qfbuC9sGmlcREis8hGOhNTKuM0irkkH8DUoHPNPlE2RsAqhsYzTlVgefwFKy55/SpcHgmqsJvsVXBGOMg9aYcFNq8VcIGMn0qrtGdvpQx3Rk3sY8sA57/Q1hmJIyWX5c/wA66q5UOoDDpk1z0+N2OvoaxkUtdCl5IAODTYinQDbt61Myt5fPX0FMgSPlWH4fWpK2JlIJ4q3GMHikjjCpkDjpUiK5kClfw9qtIlsvRgBsr1/lVqPJchuPrTYgAxP0P41OUCvvY/KeSaqwiRQ4fPHPFXFzjp1qFMOR8pHpmrYUCqWwCLzzjnpUjNgZxTTlSeKGTAzTAhmjV+vp/nFZaoyKykEbsc9q2gFPGcZ4qJ4gGwScfpUtDTMoqMMxOP8AGowhXDdz+VTTrHGdzf3uRihSJSioMZ5NHKDZJKjFdnTvRHGBkk4WrssZxnGQRxTPLLIqMMAYyfU0+Um40RrtDKP/AK9AXaCSM96upEAAB90dqZsJ46j9aYGe0eRnv3qsUO4hjjFajoUQlQfbFZrbi/p9TUMYwRZamtF8xHJ9a0Y4mYAjpn8MVI0YQ89fSi3UVzFSBd4zkAdanEab/M9KueSN1SrCDjsO1IV0Y1xHuRmHeufnRgCUTrxk9q7WSHn5M/Wsm4tNxwXwT1ApMtM5IQZfngjgk1dmtRCVBIO9Q3HbNXJLMozbH345y3FItpJtaTbtAAzz1z6CosWVEB+7+tDgsc8Ejt0q2saMwAzjP6U54EDEJg99wFO3ULGaU3cn/wCtShFyP5Vb8og+xpRGudx5xRdgRLujTA49cd6gkiJO7HBq7tNIy8E+nFS+4GBcxtghfQ4JrOSM7sMOPbmukmjIw2MVSMfIIHGe1ZMrm7lEwE8rx9aFgC5J5zWmIsnvzTxEF6DNGo0jzDx94TtPEvh660+eMMJIyq7hkhj3r8o9c0C40TVLnSbgEPbyMvPUr2/Sv2iuYBJCyE8YIr85v2iPDI07xGurxrhLkBGyOjDpkgY6VnPTUbR//9b8YdPBkuFUDgck+gFdPyxNZGmR4DuBkHjPpj/GtdRkk96EQyjqBIgCjqzAV6F8N9JOpa3a223O50UjHQE/1rzzUFBMYJxtY/5NfUP7OegSaj4mgldSywsJD0xhOnXnrRcqnqfpd4U0eLTrG1gUHECBQe/AFepWYAXPXFchpYTagPZP5V2MB/T0rNo2LoyzcHBHpVqI24bZMB83c+orPG/JIOKngWVmywzyeT3qbCNa1ZSyxxnaOe/WtNbZW/eybcZxwawyGZlOQu30rZ01beQBiwkU8gqcgn0yKtIl6E0exW5OMdM1bjmDHbu3N1OPSkeJvusg2+1OitkgyI+TgZz2qybEhdfvjtUySh+Rx2phiQA478H3pVTYBxz24pohokckjI4qBXEgyDkVMckc9KijiWJNiLhR0qxtlWZgRyOlVMEk1bmUk4H1qr0GBxmmkSQyhQcDnioTjac9amIxk96gZeaaQEJBJ9KQqhJ7be9PMZJ4OMdzUZVQx456VSAAnGT0pVZlJOAQKMkKKTbjvxV2E2KxxwvSmjdzj0obkjH1oJOOvamCYgZuc9qd820k9PWoug+tKOFINWgbADe2e5quw52t1FSZpO/9KZBEwwtRMPQVLIOP5UygCHBIyaYQD3qd/u4qNhzz+FAETA44qPqOanwMdeaiIHHemkAgHrTGUAnmpiPaoiM5wKGgITn8aYpJJzUpx24xTAACTjrSATHOaryZ3ZWrXQ81XwMk4oAYrfwdQaryAIxFWSoBJHSq8/QNj61LQFLBMp4wF6VZPyoe+6oxz1OPQVYVdyc1IDExjJGKlDhRuHOaXadoQinZBKqO1aEyQign5mGPQGpRzQF+Xce9RnKnnNXYW5LjC47+tSg8c9qbGokU84qYqu0E89qmzKRDKAVAXHHPHeqxU4O0c9anZPnDDt+uac/QYOKRBSlUsgZvpj0rBnXB2ADg5Jrfckg4PANZNwDnkde9Q9zWKM8LhSWqDcqyDC5ZvSr7eWBzz6+1UEUb94ORU9R36FtSSSvT3qxEp3iQkknNVgXBwFLcVbgBdRximSaNufmwRnNWcHcOhGenoKgtlZVYg1ZCbpFIGAP1rQlMuZwQynOetPjy+cj6UxcbVUDnpU8fHFCQcwoDO3IxUroh55zzUidPWpCoII9atIOYpmNVQE9fXtS/IynPX+dPfcYyB24IqNY9q7x/kUWKKF3GWXIXep9ahjXDA55Ax0rZkhDQ8deDmqgg5LA9ahkuQ4n5FLfT8RTtvtgVGkZyozkZNXDGUUE/lVKI1qhqKxAK+uOaFTBIx3qRUyoIJznn6U8INxH400hXsVphlORx3PSs6WIHGBgdOe9b5ACkFQc8nIqjLEzfMg4AqZIaZWgQjgkcdOP0q2sXU9/6URAbBjGe9WAjdAOanluLmKTxheg/GmFGb24q2wYqeAe30pyptx3p8hVirtwOefasu6iXcuXKHpxW8QMkAY9KqTJGRtfkk4wRUtAmcpLC6lxnzufvn+QqFY5ncm4AVccEHk/h2roLmGQngfLn6VUKKqMJdpJ7EZ6f1qSuYzY4gJdo5xzwOlTmIyNnGAfwrQhTzIvLCBAOgA71bghjUkBPMBGNvocdaiwrswJYsALjtkVXMQH/ANatt4gccY5Iz3FQPB85yaGUmZW0Dk1MLcDp0PNaqwFsBkzjkYHNJLFgHaMH0NIZgXEY6KOeM1VEG4/Mee+OgreaEZww60wwIvzY6dRUAY4hjRip5B6UyOIHg8jPXpWo9uGJC8Uw27pkgcD3/WoaaNE7mXPbghgDjuK+aPj14VTW/C9wwQu8QMo7EYwDg9sV9TvFjGeD1rhfFunwX+nTwycb4mA4zksMc1En3HFq+p//1/x409DHbqCc+4Oc1poSx3ZH4VVHyKF6AdsdKuJx74/DpQYuXYjaD7VcW8J6M4A46E1+if7M3hSaytpdUdcb1Eakgcg9T+mMV+fvh+AXmu28QX5VkAyeRzX7F/C/RoLDw/ZQxJtyozjgnIzn8aJaI2p7HrdjbhQG2AgDGff6VvRRKj8DBPXFVoMRhR2PFahAXBxzWZoWlUYGeT3qzAI1JDruz6cYP9aowuwVmc5rTgCyxkAgnOeOoqlEBTCk26OMZ4+YH3q1oWk2eg6esFuCV3s/zHJy5ycVPCqJE2Gw3YVoFJVt03rkMPxqiXqRwyuxKY+Unj6VbSMRtxyM81HCoxxVtABn1ppEhs7gYpSoyufqKm2MR8pGOuO9MbnqMY71ViZMrMSWwR+VNy+CQevrUxAJyDUbgEY6c5pkldwTmqkiMvbr7VeIIxjkVA0bEHn860AokYqu6/N7Vc2/hiomQdzVNCTK4x9KrSMocnv61acELn/OKgx1JFEUMb32k9RxRt43E4NP2cg/yp+3n1qhNEKgHJ60MhIwPSp3C7sgcgYqIkjOeKBWtuV8sU24wc9fak6CpDgDNNcdqaE2RE0nU+lBDAZ9f0pAccGrEMPP1puD6U8YoNAEJ60z2qUjHvUY4oAYRj+lRcknvUpPOKjHJwKa3AXHHPeq7EL1OKnII4NVpomlK4zwcn3pyAaQxOaMcU8AYx0puKkCPqT70zipttMZQDkdKAIm6Gq8v3cirJNV5M4x+NJ7E31KfO4H8zU8T/w9qgXIJb3qTG3A9eaUSizgbix5x2pNgxk+tIH3EKQM4qZRlfoaolsYqkDA49Keyg9c8Y5owwbB+ap8YB4p3BEMaBTx9asKOpPaggFRjjFOHTHejfUGhm8kAMOKbgN0HNPKE+xqNQVkwv8AF60hJFJ1MYbJyPU+tZEpDSKz/KBXRMpLEEZUg4zWRdxhVzGNxHUVMjSJmyhTGWHTv9KzgF3YUfLVhmxxjrUfzfgf51HUGXEIHTt6Veh2bMg/U1QwQv8AkVatpGc4xxjFMRdGOiHAParqyDoCT2ql32qBkVajXLD261oiXE0V2kAjg1YiTcw9PWqIBB46Voo6ghkGPWqTFYtLEqtu9OlEgO3IODT0YFDn8BTcMpDdj2+tUNor5ypyOfXtUfUVZGC5A70xtjZCjvjP0oJIkOGJJ+UjpUhUKAR0IzQQF4YZpVHAPTPtSaAjQfvAR0NWiuenNKyFcbuc+nalZygGANpBGe9MBkanpU4UHjvUURIwD0JqwECNyfxoAVlCqMelQEl/l9Oa0PlK7cZqBocn5B0FS9wuZvkfPlqvEJnaCPYUwDGQaeAXI4xjjOOtDdgKzxKGyCeewpFQ4IYDdn1qw0eTuByKURgtn9Kq4FcxEjIBxUbIVXB5J6/jWntPpgUyRGyCMVLRSOemifzG3MQMY29qrpbo0gSY4XseOM1rXEckr7M8flVR4kKDfy685NRYoprHLDJtVhtyeo5qyqFsgAn370EiQFsYYdqtRKyRCVfmZuOvJqAKaWsUYzIWOCTuf/CkEALEgDnpjnitTaxYYTnA4PIJ78VfMcZi8tQAcfMcdPpUtdho51cxnJOCM1B5e48A5J/Ct2ZIEXO3cV5VqqCMud2NgJ4BOaVmVdGS1o4O9h8v61AY88AdfwrpjAr/AHvvddo9Kpvb+ZIdqldvr2qWUYf2ZsZP8qDA/UglT3rbSA8hhuHTip1t1dfLUlQoAz/SpdgZykkOQa53VLfzoWTHTP5V3c8MCSEqDIqD6c1h31q6sxkwDnoKzcR7o//Q/IYencGmzlI4WcnGBnNJHngdBwfXNVdQYMEi7MefpVaWMIq7PTfhRpT6j4htwi/Mzg5PSv2Q8IQG2sYLc5+RQBn1x+lfmN+zhoouvE0IK4CKTn+R561+q+i26rCigYIHHqcVnLc66a0OohGApI6GrpBJFVlIwB0zWkpUZRuSQOaqOg2MCYTjn1rQskIYsV2sPl+oqoCiD5+cVp2htSvm7zkdFNMl7F0+UExj5yauLJ5qKMnCjGDVF52uEChRkHrjmtGztgE3O/OencUNE3sW7U7RxxVzGxs4Bz3+tOjgjChgSc9zxVqUW4QbDk8fjVJWM22VMYBIHXio2wMn0q0MYwKa8eOnSq5RGflc4PApjfe6VMwBI46fypTGrZYH8KpRAqtkcnpULEoc9c/pU59DzVaYfwg5P8qqwEL8rgCq5NTsCvyt0qNwDVWAgPPFQnpgDrTn8wPgdB+tOXlsUrAN2jAx9DQAN3XFSlaaFVny+QPbrmqJbGlQemearuq5yMkdasPjaRVcqelNIlsQgEAEdKYsbbctz71Pt4/lSAN2p8pPMVmGBioMYq6wycnGDVaRGzkDj1zVFEPvijijr06mgqe1AEbHoKjcEHgVY2L3FIxHFNIh92Z88sduvmTuqKBkluAK8/1z4leH9IRhA5vZVJGyHB5+tcd8RfEl7qurnwnpedqsscpj+8zt0XPYc5NdJ4X+Gej6PHG9/GLu5xuYv9xW7gAcEV6scFSpJTry+XU8/wCt1KjcaC+ZxQ8afEPxZv8A7BsDZwnIWQr6epPFNbwt8X7rbO2sRxOvOCfb2xXvscEcY2xqFA4wowMfQVOAMEeooWIwqdvZ6epXsMQ1dz1PnXQPidrfh7WYfC/xEtzG0xVIb5QdrsTgZ7Y96+gQQ3I6Gs/UNC0rUzGdQtYrgxuHTzFDYYdCK0sYOMcVxYj2Sn+6eh10HUcf3m4mcfjTWGFBPWpMc5xUZ5rCRsQOMHNQsu7r+dWnGOOxqF+BgVJC3KSbQWzzinZU4AHQUgQsW9e1PTPTg+5oLHxgk1Z24U8UyIEZ4GB0qVsgcf5FBKXcQDBPHNSYz16Ui7cc/galHP0ppBe2hEB8uKlAwKcp2nNNJLHp+NUhoUk5BB9qay/Nnv0zTscYx1pVUAc0NCa7ETL84weBWfPGrSMTwf51oHBOTxVC5cpJkr9PSs2CWpzckf7w+g9ajA5ww4q/cA7zJjI9fSqj7VIMnAxnioLRK+GG2M/MelQWUk8ZKzDkMfrTGdVPyZPoenFTWw2XAlyXx1X6/wBaaEbEQLAseCcflVtMxKSADVWFxvLdB6emf8KudTk9KsnmLaY4Ld8e9S7gFYL1zTADtyenanDrimtxNl2Bi/D449KsEHpniqsTNyTirWeOuapsRHsH0pko2AMvOeKsBeD79Kj2uwK9CPemNDFPmEbhjirKBAhVhn0+lQLhiW5BHDelTAq4yhyRxSuDAJx1zg9TUbK5bZkBODx+tTJ8oZCM55qsY3BJzlc0XBItOhByvKgZqx5b7VPr0pqrjCrzx1q5CcoecimDQ0RlRyecU7DDGMH1/GntkqQvOaaN3SgRQlARuBz+lPSUgdPx9KfKCeSOBxTEQOCqnBqeo0hyBsF17+tSAAnJHNBjI5HXvUn3COAaoPJClPl4B4qtcMQoUjrWgOetRyIrdelJu6HsY5+UAHpxVa4t2Ylhs2juOtacyfJ8gxjmqhAYcj8ahjv1MyeVWVYyoQg4zng1d01A2QeT0x7VBcRgsrAAkHp3/Cls53S4WNf4s+xBHesxm0sMalZudwHH41HdTJGHIBPHTHQf/XqeW7igKRklpH4xiq8qGRWkQcqMemc9aAIW8uaHhQwxnHvSwwK3zH5FHAGcn/8AVSLk8N8ozg/hV5Qduwc5GARQA2SJcKy9TxjHNUTG8wdgjjbxg8ZNXwnlorF9z8gjPQeuKRiFG3aQMZ69aTRXMZ8UdzMWRD5e1ckgelNS0Mu1d25wTluhJFX0ijZ/nLorfdXuRQsaC4VssiqO/Q/4VDQ+YrSxMIThMnoRn7vvXO3FuNjlzls8H3NdVABlraM7tzFix6YPp9aoX1pJcFhHGQYhk+hJ9PpUNWKUtND/0fyGHJx/KqLIr3oV88YAq+hVeT2/pUGmBbzUQVwQSPfj1/8ArU1uZxfQ++P2WPD+TPfyRkBVChuuSTyBn061+iGmQBFVcZwOvfFfLn7PmgjT/C0Eu0Kszhj64AHFfWNsoVQR06fhRbU3T0L6KM5q2uO/TuagVE2dTzVrOAuQPf0p8oNjZACuVIbr0psAKNvwSKVU8yQeUTyRkCtCSB4kLqOD1NFrAnc0LbaEV2I7/nWpwzZTkn0rnbc/KRjnvW1Z/ugCvOD+lUS9EbKFyoU/hSRMxJX8qgS5l3ghRjkH6UoLM+7oTyaZncth8cU7fhcNk5qsTxwaazE8t2rSKESl1GeOKz5XwflJA9qdMSw4PHpUTYAGO1D8hpCxnJO79aic5ORTi/rTM8H6cCqSERnk5pjA9uaeM520Ku7IHXtTEypJy1C4Wg4JpcZP0oJuPJpMelJjODTuc/SmlcQwimYOSalIOMik2mmkwIW4GaQ5HIp7YPBpSCBVEtEAI5J5FVXJJwavY4qEoGOTxQCZTUY57UEAdKsFSMr198VCVBOM9qChh9qjkPBPoO1SkY49KYfWtKU+WakzOrFyi0j5R16e+8GeP5fEc1u0tvNMXC9juUA4PTPpXt3h3x/4a8RIBbXAgmzgwzkK2T6etdVqOlWGpwtb3tukyN1DjPNeQa98F9A1NzPYNJYzdAUb5fy6jHtXt1qVLFvnpzs+zPIo1auGXJON13R7RtBGV5HqOf5VG4K8d/pXzvD8OfiLpapFp+utJGG6NIwAX6GqGsTfFfwky3n2hrqFB8+AJFx1+YdQPcVyTyytFN2v6HXDMaTdnofSpPy+9MOcc1xHgrxvY+MbJioEF9AAZ4M9AejL6qf0ruQoI6V59rHfzIi5App9BUxGOlMxkZPek1cZEcnrziqchbfuGcVoEdqryIp60rWJkVlH8WadwDT2G5c9v501exB6VJJJsbGAffFSHtz0qPLdfWpF6fSgtCjr6elPBJFR9D1p49/yqoiaHdsClBIoweoFNHNUNIeDzxTuMEGo/elIP8QyO9VFXaTFJ2Vzhdc+Ivg3w/ctY6rqcUNyoDGMfMwB6Zx0rEb4s+AbvEa6moxg5KkDBrwb9oPwpoulSabd2lk5mupZPNn3E/LjIVj6k9Poa9Q8LfDXwRq/gzTLs6bH5lxaRSO4J3F9vzHPrnNetXyinTspVVdnlQzGpK/LT2PRrfW9H1KL/iWXkNwGGcRuC35de1RFi5weQDivBvEnwjl0dTqXhaa4jkjJdVDkEAehH6V03w38Z3Osw/2LrXGoW4PzEYMqrxz/ALQ715eKwU6FnLVPqd2FxcK10tH2PVQFzxzjpV23UEkBMd8+tV9pHK856CrUHQ5bB9K4zpLqfLyK0I2DbcHP9Kzo1GPl5qwrYVSB1rREyRp5IIUfQCpSCOagR8kFhjFTLhmOKtEkikA4HergdQOeDVIcDJ5zU5O5TuptATNJ1x+lIH3D3PFQKN/Q45FWFUBiPShICSMbR1JqSIr5g2qB/WowD0AqVAxG7bipAmkicfN69famuuJAOoIqwWJQZGBwKgf55Fjzg9c+gp8oE21/L4AOOPerEahYznjgmnpEEY8kgjpSRqcncMe1MHqJGXkQHjHTjrUoTBOTnHbNCEdB3qfyweDz79KARRmRnAC+tRJ8jhduM9T3q7JhVyOMdarICTv69hmgpDzlHGPumpjtPHX0p7YQY4yT2qNhyuD9ahsaRIPTtSMqkeop4HGP1+tOCgDjnNCGUJMAlD6cGqU0W3Dgle341pPFyDgkUx1bHFOUSLamU8eULZxjp61XQ8rHEo3ZzngHj3q86qWywJx05rOlhAYXG05B52ntWTLNRQjkseoBJY8mkyBHuJA3HGDWcrfuSSH65BPHBq5FE7R+Wy59D3pANaMAb8nJPQVety4O4ZzjrSPHkhQuOPpjHFWlQKoUYwcce9AEUEZABm+ZyTyPSgD5nMuG5+UdKnG6NTtGT6+9EW4lix3FvbpigCs7sjr8vTuOv0FTBnkl8tIWO5TuJ4C1JbSP5uSgB/hJ55q75YALPw5Ocdc5pWCxnG0Zdwt9q/KBycfX8ao39sDtSeXcxX7qkjA9c1q3N1DFJ9nkUh+MbRxWRcG1Er75W4XPI5GewqLXNI6H/9L8c764aNFjjyGc7R7V2HgfTDd6nbRLyWcL0z1PauGu1zdovJAXI+ua+g/gdobap4psYtuR5qscjOApzmmiIo/Vn4eaMulaBYWqJtAt1OPQn/61eqWoAbyyD8vPPSuf0S1Nvbx5OVUDaPbFddbICSdpJ/SqWxq0WkWOTlWGV7U9EmeTC9O4/wAKfBbnDsoAPYeopVYq5I4J4xRYTRZig5BHUHNXPNmcGIgbRjrUUbHYCmAe461LGrxLmbluT+fShhcVcAYAwc1bicKmCOapowdhnjNWVQyPtTJ+lESGzQDqEyMkntT+gz39KgjiYtz0HapwuGyOSOp7VfKySdslQehPWoj90kc1I3zYHTFMbgVpsgICRjmoGzn0PpUkhwB+tIcO3GeOvakgIgcDmlAGcnP8qlC/NikYFSD79Kq4EJUhiT19aF5BPrTwcvupOOSOBTAquhVsdaQLgc1OcE5xmkKgn2oJaGlfTtSbctnvUvSkUDd0q0SRlT2zTe9WWXIyOKqnqaYDGUZyO1IQTUoXPOaQgCgCArxgAjmmle3WrHamY9aCWrFZgQuAetQAdu/rVthuHBqHYQ3PfpTSuCehCVx1qHBI6VbI7GmkDGO9Fh3KRUHrUJX5sgVaP3sUxlIoTsJxKrJuPaqVzbxyqUdQwIwVYZBzV9poUdYnkQSN91CQGP0FNKhu3eurD4idOSnFnPXw8akXFnypqVu3w98ZpqtoCLVyX2gYDwuf3if8BPI+gr6PfWbQaN/bMTb7cxCYMO6kf54rzv4rNpMOj5vV3TowMQUfNk9fwI61ynhjUL6++G12siOscMxWInIzHkEj3AJIr08RhI1Kiqx0jLU87D4pwg6UtZLQ9b8O+IDrsXmG2eHO4qTyGUHGa6JjzjpWN4XMf9hWXlgYEKA4HfHI/OtPU5jDaSzIPmRGYfUDIryFBylyxPXdRRhzSJR0qGQnae3pXJ+BtVvdW0qSa9fzJFlKgnrjGcfhXYSEA7fSs5K2jLTTV0Zs13b2dnJdXUgSOIFnY9ABTNN1Cy1O1F1ZSrJG3Qj/AOvWT4ttjc6Bewrj95C2R645/pXn3hXwmupaWLs3ksRLFFSJiAm317E10rBtwU09zjeJSm4NHsecd8c8U5QSN2eteXy6hrvg6aOLVH+26bI+3zCMyIW9/wClenwyx3EMcsDBo3UMpHcHmuadOUHaR005qSuiXHcVIuMgMOtY+p6tZaPb/ab19qkgADlmPoB3NXNM1G21GEXdq2VPGD1FCTRfMi+f3Zx2pjHvVHVtZs9JgWa9DbGYJlRnBPrU8F1bXkIntJFlQ8gqc03oCdyX7wqQcrio1+an/dFJXGeF/Hm3iufDNuj/APLO5QjHHIDV0vwrkD+BNNjB5SHy8em0ms/4yafNeeGPMjBPkSpI3GcryD9MV5j4P+I0nhbT7GzvrNm05VYSTpklHGPw5r3cxpTnRpTir6HiYKrCNapB9z6PuEEhKc4IxxXyv4vmPh/4hWcunIElLwbgP4md9pB+qmvaoPir4OvUJW7MMmA2yRSDg+/rXi9pBc+OfiPHfxpm0tZPtEkmDjbGfkX8T0rnoxbwdT2my29TSq4rFQ5N3ufSbloztQ5A4yecUoAblevenSKyx8/Kp796bbx+ZuCHngj3rwz1y/bS5cKRwMCr/wApYAdO1ZMJ2TMso5rXhzI+1/ugcEVoSy10AI/+vTwdvqaiGcjNLLd2kEkcc0qo0pAUMcZPoKaJL4I2bWHNR4diAOmefpVN9S09JTCbmHcOCu9dwPoRnNW4b20f5RPGSSMAOpz+tWFy4E2nA6A1OuN3PamgY4FOAxzQBIqnqO1TKeBuzzTUVvTrTyAFGOMelICVAFYndwe1MCjzg3r27cVCcFT3J4PtTrc4Hl4zg5BpgahyelN+bfkjjHakRzux2qRsDnIAoASHgkDr/OrC55qBVViCefQirQXv1oAYyDBx0xUCxl8Y4Udat5AGD3FRxqd3UY9KBpikbunaoTEWIx0zz71aCk5pPJcjJOBUbMpajCFHAPI7U+MDBOOtMEGTk9asBABk1YyB0/KoWQY5q7t5GR1HFNeNGGO46VFmFzGuLc+XlOAp59qgeDapd25xuAxWxMrbAisO4OR1FZjRlX+b7oHUfy+lS0BnCK4kKuHwM4Ga0IopzIyK2Tx7BacbZJ8MpYBT93PBPrV+ORYYzbgHcR97GaXKK5WhwxK4KlepPrnFWvs5Dqytz1x61cjgwwYEEe/vUfll5PMbIK8YB4ppC5hoDHORjtTnQFSpA9TilkLHhT35ApxV3XHUkdfaoKGLEpZfKYsB39KsMBG6tk56/SocSW8arHgk8jPFQvcuXMbxjeR1BoAbOY5ncuNmMnI4JNYEyM0ojmClMZ6c1tyssMfmSAsvfAzg1nNdW88JlXO4ZwuM/rQXFn//0/x2uYQLmIqeeQPavuP9ljw8LjWxeBdqQIWBJyM8EY7fhXxQAtxcxRJ2Pp6/5/Kv1L/Zp0RbHw+twwKyTfqeOc+hqkTE+x7FCEAx1GRWzG6x8sDkelUrAARLuxkf0rThTdMCvfqfaquapmnGvy/WoWDpIQANrdz1H0qV5ngAZV3DPT61ZGJodwXg/mD70Cv3IoYN0gEgwPWtWSFHTCEEjv8A0rFjneJ/IbnaccVdileQnoBVJITK7kZwAcjjFXYd8Zyc49RThEjg7uG7VcWH93iQ57Z+lJIiRLCS3zDmpyGOccUlvGEILHII5qbHPHrWqYmiIZUYPNNIGc1Y8tulRFTuPaqEVZRhvlp0Y4560/YD96rCqu0Z7f1qEgKhX5ulKwJ/lUzrjpznvUXoCOPWq5SbkBjC9AMjoaDtzgDkCrXIOMVGyE8k07DexX2IetJs+bb+NShOcVKIxnNCIuVNrZ6U9EHJqdk44pCoU4rQCIjK1UKYzmr+3PFRuhPGKAKm0imspHSpz0pu007AQ9aYyk9KmK4pvfHWkBWZSO1NK5HPbpVzGelQuMn3p7Ca0KpQnOOwpm2rRxjNMYDrVJkFJk2tuHOTUcgJ6d6suNpxnPNReWckjnNCSuNbWPmT4y6pq+ia1pmsWUUnlWY81nTPLKeVOOxHWu38OfF/whrtokjXAtZ2QN5UvHPcDPXmvS9X0i01W2NvexiSP0b3ryjUvgp4O1Ni8kDxEn/lk204/CvdeHwdXlnGfL3R4samLp3hKN+zPIvFfiLUvG/iVNP0uESRFxGgGScA8ufQd6+iNP8AD1vp/hpNDQDasGz1G4jk/wDfXNSeGvA+g+FkP9nQnzGXa0sh3Ofx7V1yxDGMZ/Gs8Tj4SqxUPhWhdDASjTbl8TPOfAl6YrefQ7n5Z7SVsA8EoT2+hq5441ZdL0icq48+VSka55JIwT+Aq3rXhgXd2t9Zzta3I48xRnI96xoPBktxqCahrt014YuVT+HIPGfb1rLDU4Qqe0k9DTETnOnyRWpg/C66byryzY7GifzNh+8Q3Gce1en4YsxPc/pXmmrW0vhbxPHrluv+h3XyXAX+HPUnj8fwrY1zxvplhARYuLmZx8oXkc+p7Vy1sPN1XGJ10a8VSUmdXfRLLaSRSDIdSvHPXivOvhmxjg1LT3J/cT5CnqOo/pWt4Qttajtbm91iZ3+1yCSGN+qDHP0B9KyvDCS2Pi/VbQ9JQz4x75H6GqqRfsPRkQl++9UdR4wtVudBvQVDfuHIz2K8g/hiqPw+uZLjwzBvJYxO8eT1wD0/CunvYftNtJb9d6FefcEVw3w6n+zwX2iTHbNbTFthGODwauraVGEmRSvGrKKKvi1Tc+J7C0uGIgEZIHUZJ9PXjFa3w/Lm1vc8qLkhfpWN8SIjE9neRPtddyYHUA859TXa+ELFLHQLXDb2lXzWPqXOf0rbHpKEUjPBNucmxni61+2aLOh+UoN647la5LS7O+sdOh1bR5DtdMy2zElXI649Ca7nxJcJb6TcSP3jYD8feq3he226DZq38Sbvf5ietQ3GUIxmi48ynKUWXtH1m01m286D5ZE4kjP3lNa3X6V5hIRofjWJYDtivkxIgGFye+PrXphO361w1abhJxZ3U6ilG6OZ8Z2Jv/D19bgby0EmB3JAyP5V4f8AC2xtNTs9S0y+jWVNwJRhkYPTr719HXgEkBVhwwwa+d/AUZ0z4i6jpR+VJFlAA6Eqdyn8jXtRxU4YOMoPZnjSw0JYpxls0dbc/CnwtczJNJCW2MCFzj+QrpIbfQPB1k0cCxWkDHJIGGdgO56k11EziINjnt+deTeLLddR8T2FtegtbsgAUcA5OSPxxXHKvUxKtUlaKOpUYYfWmrtmjZeP9I1Big3JFkjzOx/CujlgW9g2wP8AJMmVZD2PvWHdeENGuLMQ26LbuOVCDGM+vrUHg+SaCa60iYlmt2wjeq5rjqUYwtOOqOinVc04y0Y6Kz8SaQ/mWs63kQ5aOTlse34fhXSWviO2laKCcm3mfgBuAT6A1da6t7Ji9y4jDttUt61w3jW4sr77DaWGGuHl3FlOcAD19zVKlGom46EyqSptKWtz1qLJQFuvrVTU9HsdYiEV9HvVWDKQSCpHoRUlu8cUMcLSBnVFyNwLHA5OK5WwvrqTxrc2LuTCI8hc8DCg9PxqKMZR/eW0RdSUX7h5d4i/Z90/Wtbudag1m9tGu5WmdFO4KzdcZ968/wDF3wa8R+E9Dm1fSNbnvWtcSNE4Kkxg/MwO7qo5r7VAArK1e0W+02ezIH7xGXn3BFe7gcbTrVVSqU1qeXjMLOEPaQm9D5U8A6f8QPE2gRap4e8RMWQmKWCV3/dv1HJPRhzXrujWHxks7yy+1XFtPAsg+0CSQMWQnBxxkECuB/Z5tbiw17XNLmJwIiwHbdHKVz9cV9ZiLA3fjXDjKlFSlTULNHRhYVbKbndFiFjtZT0HQU6XeqAoARnBz1rjfE/9qzWayeH3P2qBhIEBA8zHVT9a6u1mlns4Zp4/KldFLxk52sRyM+1efODjv1O6FRS2HqvZh1qRkKAEU4fMPenMDwB3qDQkDKoDMfrSu+Txj+lV8EKT6dqezR7cgdulAEscyhttW1c54PvWXHJnt9Ktsx4IoAukhmBpcDqKgTHl9eaYjv5mR0759KANeMfIGPelk3FBtIwetQh0jUMTktzj61OhVlwe/aiw0xNmAADn+tBjJIANTiPvnH0pWwvK/rQMhMfyjnpUZBwSas4ZgMdv1qJyx4YcHtST6A9ylIhUBh3pkiDJ54I7VenQNCCvX6VDHGCN0ncfSoBamcN0TFJSNjDgrwQatW0kVzvKc+V8hJHf696HhQghlB9DSqwtowYkz04qbisX7bYzMOoTjr6094cNlQcdfXJqpBERljkB/mP4mtBfmCr1K8H6U3qUikAqEs+enpTi653RqSDyfTirHlyO53Y2jpj0+lRuG8wDpgdccVAyIyq2WcEDAx6VSli2Ey7iOuAOmKvup5C9vSoCDKBG/OM57UCRnLbpc5Ql1DcnnHPaoUs4oozFggk5JPetUSpu+VSRjAPTmotqJCzvy2e/agZ//9T8nvDtibnW41ZQwLrjqOvpX7AfCPRn0vQLNWDD5R1GOozX5bfDmzNz4otNuPlYHnvyOK/YDwGqppVug5GzjPtxT3BLQ9Qs0byxz68dsVr2KHe5IK4GOe/0rPtkdY94yNwz+VbdiySx7ycnkVUYse2o9kDD5hz2/CpIZWVRGUx/WrTbovmIG1u/U1GzIv7zoD09KYiKQLuyBin20Cknc2CeRTQzH72CfWrkUJfHBHpTQ76WLfkLuG0lieTzUhjYEqeMU1Y2Rid2D2xVqGKSRt8hGO9aJGbY9UxUygg5pwVTjAz7VIy+1UkDY3aOh/OmyRqFFWCoA+aoB8wx2FMRVaIhS3YU/blQe1WShZcCmFJBgEjFAEePaoSvPFTg4OB2ppjkMqsCAhzuz19sUGZXkVlUso3H09qTacepq+Yxt569vasuQtCzOOVzzjrQA/Y4PQ9am29PWpbeQSKcjntmpSgPSrWwFBlPGKUjuRVh1x05xTApbgUwIcADjimngetPII60wnjigCtsxyKbtq2Y8CoytBGpUkB7fjUYUYJq2wJBxVYKQmX69xTTLQzp0phXmplUsc+lPKED1/CjcTsVNo4pjLVgrg1GelINCqY8ng/nSFQOBVggVGQByeoppisVZB6j2qq0IFaBG481EyA/WqEZkihQOOppqnn3q5JGDiocgcYqWFmRSLx06VDsz1H51b470xuefSqTEZV5Z293CYbhA6ZyVIzXP2nhHRLO4+0wwKXzu+bkA+wNdcVyQBUbpsb5fTntXQsTU5eW5msNTvzWKjL6815pIPsnxCh9LiMZPTOVI5/KvUWHzfhXl3iGUJ450jacNtXP0JIrSkr0ZmVRWrRsejMmclB0HSuQ1Hw5JJenVdMmNrdH7x7P7Gu1ZNpPJx296WNQVOeRWVKvyrlaujWph+Z8ydmeZx+EL7VLg3Wv3HmbQVVRz26+30o0rULnwq7aTqgd7MMTBMOcA84+nt2r00ADiobi0t7hMTxJIAejDNdE68KqSnpY51RnSd4anl2t6y/iWeHR9NDeUzjzGxwR6n0AHNelW0C28McUfCxqFHHYUy3sbWxyLaFY9/PHWrfzA5H5isq1RSklHZGlGnKMW5bs8u8TskPjHSZG4BHOfXdxXpu4OQfWuD8baZNcfZdStULSWrfMB1KZz+lO0bX73VNdWC3T/QUhPmZX5vM4wc9h2xWmMpty51tYzws0o8j3O7kQFMGvn640XUdN+LNnqMSE2s+5mf8A3gVx+f6V9DMoIziqM1rA7pKyhnQnYT2z6UU8Slh5UWtxzoN1o1F0Krocg/nXDeLNKnl2apaH9/bNkY67PQV6ERu4I/A1nzQg7hnHpmuWlUUbp7M3qwcrNbo4A+JdO+zGVyVlx/qyMHP/AOupPBVnLJLPrFxlTcsQvoV6kj6ngV002jafMd00Ebt1OV6mtZYxGoVQFHGABgACrqVIKnyRM4U5ufPIyNeS3j025luEEiRKXwfXtzXAaH4WfVLQ6jNIYS5Plbf1P0r1SazS+hktJslZlKn8a446V4j0uIWmnyo8Ab5VbggGu/D1P3aUUvM460PfbfyJPCdhphvrqVHmkvrUmN/NPRGx09iRTdxs/iBCzDi4iAHbOVxW54a0ifT5Li8vJBJcXAw2OgHX8TSeIdGuLm6ttS0xVa6t2XaHOFODmsbpxnFGvK1OMjtywKADr3qKUM0eAODkZpisdozw2BnHTJ6/rVhWLJtPbpXPhqnJVjLzOnER56bR83eBrtfDHxfvdEcb0v3aCN+m0y/vF/XIr6rV8rnofSvk74mW76N460/W4SQ26CQnGOUfA/Q13vh/4zWU3iW48MeJbNtLmErJBJITtcZ4JzxgjGCK78xw7jXdS3us48DXjKioN6nQXFzLpXxGt1kdhbXsIVUz8u48cj2PevVc4UivMvHWnyywwata/wCss5BICOflz6/0rpr/AFbzPDTalbkEvbNICORuC/0NY1aHPWUYbMulWUKblLdCXHjbw9ZzS28txl4c7wgyox7+vtW3out6drtoL3T33oSVOeCCP8a8z8D6BY3HhyW5uo1lkuyykuMkKMj9TzVL4YtJZ6re6TISPL3Bh2OwkA/lUYjCqEFOLujSjiXOfJJWPamLEmmg46/lVeW7s4rhLaWdY5ZP9WrHBfHXHrVk8GuI6x0KIDnue9WBUIbPWlyM4FAE49M8UoyOnaolYk4FTKMdqALA5YE9VNX0w2MDPOfeszk8g1cjkCbQe/60AaoIIppAxz2qFH3cjqKVmYt7UFXRPyRk0x+RntTBv49qnB/OpkhshCkDjp60pjLq2OB3p4jYdOBUoyFK4z60K5BQMQbioZyqKNoPvVsRup+TOO1Zkhm3sqqTt5xWbKTNO2LGJQRgntVgMoclhtycE1CkwX5nAXIHTmp5MEpu53DNUUSMAOxzUTH+E96nZiW45FQsDI+9wBj0ptAU2VgMHgetQPnHHWtFthXOeKrvGBHlV5zjmpaEVkt5QoCvt444/Kqt5H5ERDgnIzvWtlAQuTSXKZgJYjHoTjNJxsVHc//V/Pj4NWyz+LLZXAOCWx64/wA8V+tngyLFnCrAAhRkjrzzX5g/s86d5viuS5ZdyxRnPGcH/Jr9UPC8a+VGFAzjnHQU47g9jv0CBBjk1o2cROcLjvx3rN2B1EZJU5xxW1bx+UioCeBirGiFJZdxhJyhORntWp5lu0QGPmGDz2p8UL4ZguR3qFbVpG9PY0MQ+GFZHDAcVoDCfKe3GfWoUUrhG6jj8qsJJIGPfjGDVJCuPh2lsOM9cD3rSjTavIySKoRAFsOOK0Y+W46f0rSJLBQFwBx2/Cp2RfXNMI55NSemBVCGlSR7VCqtu+XgA9asBTRgfdoAjZQvT601wvBXn2qYjOFNRqRnBGKCWQiPcTkcipQBt2n8KeyyKDtI5pCCEwBzQSRuQOo471llS5J/T2rWKBk6kE1XeNkUufpQBDboAcDGauMueCapWrxyyN5Th/LIDYPQ+hFaLAZzWgMrmPHJ71CV21bYYGPyqJl5PpQTcruoPOOTVcptHr61d+UjJqMgHjHFVylIrZbGSMj1NRFe9WWzggVGVOMmk0DIGGeM80wpxmpyBj0pCMAj1pGdyvjtihu1SFR0pp64qroCCRRxxzULAA1bYEiq8i4607XKSTICKiZAPmFWCMjioz0qWK/QhbGeBUDAg81OfSmsu7BAppiKgQMc1CykHJFXNuKYy7hz0pspSKJXHIHFG3K565qztUjBpTGP4eBS5R6FIL3NROvzZ9atlSDwMDvTJBnGOtC0E12M9hk59a5fV/C9pqmp2mrktHPa4AI6MoOcV2JVQccVG6jGa2jVcYuK6mUqalJSfQqPn8KE6c05lJXjk+lKBuYjpjrWZo2JgU1iwPtVjaB7GmMtAiqw3Hce3SvC/iT4p1a28V6B4Z02ZoYrh2uLkx/fdI/uoD23HrXvRAA9K+evH6RaZ8SvDGvXHywbjA7E8BnPFd2GpRlTnOXQ5q1SSnGMep7erSNaJLeqI5CgaRQeFOOR+FeYzfFz4baNqZ0k6hEkzOEYxrlN2ehYeldt4wtb668PX9rpzEXMsLpHg4JLdf0r5T8N6V4L0rSJNA8XaZLFcFj5l4Eyx5457H3rqjgr4b2kp+iOWWIUa/LGJ9nxSxzoskTB0cBlYHIIPINYfiS01K/0me10ic2104/dy+hBz+vSsTw74s8INaWul6VertiiSKJZMhsKMAZPevLfjn428QeGBpUWhT/ZxO8jSSAZ3Fdu1focnNcGGpSk5SUbpLU661RWSva57J4cttV0/Q7Sz1u4FxexIRLLnIY5459hxV2eSOYkQSK+DztOcH0OK4b4ia5faN4CutWtGCXP2VDuA+60gAyPpmvl74X+ONZ8PTXGpal5t1p9yZIzuYn96v3SCeM5OD61pHK686aqxWjdjKePpRm6beqPs6Gc5fOCU5Iz0HuKbLfrEJLiRvLjRdzE8gAda+LtB8XeJ7b4i22oX0sqxapNtdGPyvC5wMA9lPSvb5fipa2njgeCr60OyQpGZSc5Mo449Kzngp06rp1dLbs2jiozpqcD1Xwz4p0PxPDLLo9wZWt22Sqy7Sp7ceh7V1Dx7m3dDXh3jzWP+FWeH/7S8NafEDNcgTZGV+bufx49q9H8C+KYvGnhez8QRR+SZwVkjznbIhwwB9M9KipSlT32ew41FJHWFo0G5yEXHLH0HrUWnappmrQedps8dzGGKFkOcMOxrA8U+ItJ8M6XJqOssRbAqhAGd284xWJaa74D8J+Gl8U2cqQaZeuspkUEl3c4Ax2IOeO1Tye7dbiU7uzPSsfMFH4VIvHSuM0n4g+DtbXzNP1a3bgNtZtjAdOhrq7e/sbg/up4pBjIKuDn3qNjZHOeLPCNj4rtVgv5Wj8tgwdfvDHPFfPHx3EKro9lYMks0JBaVfmlVVGAWYcYPp619ZFEmjeJuVcEE+x4rzhfhH4WN6LucTTxqdywSPmIHOeR1I9q+gw2Og6Uvbu+lrHjV8LJVIqkuu50ngL7VqfgPSm1pS08lsFk3DllGQCfqK6iHS7K204aXDGEtwGG32br+eavQhUXYmFVAAABjgDApxHGf5V41PESjJPsejKhFpp9TzyCLVvC6y2VtB9rtGYvDg8pnqD3rmdNfUvDOsHX9ShZLa9YiQkcqG7kdq9pwD82D6ZqG4giuI2jnUOjcFWGQa7FWpSh7N6dTndGqp88dTyPWdVtvFPiTTodLQzfZ23CTGO4JP0r2vO+IE/gTWNp+lafp0jS2VvHCz8MVUAkVqKzfMAODXJiHCU/c2OmgpRjaW5YAIGT36U9eBTAw2jtio5pzDE0qxtJjnavJP0rnaOhFnn71WFdT8p6npWJZ6xBcDbLFNA2cASpt/WtraFI9RTYDlBHB6VMWCqFPUVGP508AZz1+tSBbgYFS2eBwKvKocZrNjbC7RwKtRybOBzn1NAFgsUII5qdiu0NuAx2qoZNpz1pruXwfSgadjUgk3oVP50jIAcLz6Z61Vhd1ACcA1MWYn096AQ7tg9aryHaN3THX3qdmLfexmonAON3I9DUSKsYs0roRJEytnseDuHT8K1ohLPsmlxkLjC/dzUCwRpk7Adx+vFaNsUYbAMAdBSi7hsTgYBzVaVFkYLnHTP4VYbjhqru4VcbcknrVsYxlKnC8j0oOScr3q3GN7hR1xxUO07hgZ+bac9hS5QJVAVBgZHWkniWaLnp1GeDVsxAJlOageSNADMOhxke9S+w47n/1vE/2d/Bv9naWuoTqxmujliQOFznkda/QHw/YJFbK6jHGAOnHevFvAPh9NNsIbQLt2IqjjHTtX0PpMDLGoboBjJ44pxZXKX0g8wgIANvcdc1rJFuCu42t0wagjhAfchw3qPerkQdUHmkFvUVYWJ4bie3cpGNwOCRVhULZfcVYnPHSqBuZImWS3IOOGyeoq/FKZBvbqewqzNosQxAYXOeasJDErHcd2OuKdG24ccZNPCNGxdeS35UySJdvJA47VZiTIzTo0Ow5GM+tPUbe/FUkAMDgCmsWKnbyQOOalJJFSgAIFA59aoXMirby7htkG1x1BOTzVnaDjNZ7WVvFfG9jBEjhVY5IBA9umfetDIbjuKBOQwr82e1PC9+tPCdGP41MyZxt/WmkSVmBIpWGVHr/SnNuLYIHpxSrGWzz0p8pWgwLj3pNp7jg1NjnB61IVJ49KdiXJGXbafbwXEtxCm15sbyON23oT71LLEQ4J5BrzHxT8cPhz4K1p/D/iHUGt71ApZPLYgBhkEkdjWnpXxa+Heuqo07XLSRjxhnCEe2GxVyi1uiVJPZndBGIwP8ikZfzFFveWVym+C4ikGeCjqwP5GnOxzwPxpFFUp175phTaKuMFI+oquR2qkyb2K+3rULgdKt4A+tRyIp5oaHe5U2nrSbSTkjpUjEIrEjoM/lWTpi3q/aXupfNjkmL24I5SM4+U+vPSlyhZGjt5pnen/NnJpG+Y8VImiI8cVC2T2qSThSx7d6OCPUGrQkyqy5OBxTNvarDAg5qDHc8+lFhEJHOKaQcHFTkZ5puM8VLQFcLnrTWTirBGBUXUZNCHylTYfTjvT8DFTeXkZBxVdgeoqriIW6c1UJPcVcINQOpCA+tMLlfGTRtLcVMyggbOMe1IF4/nQBTcBVOBzUQVgSetW3jyDzz1qvkgc9aADcSMGlIG3BHTmmc9TS5A60ARuT6cV5F8XfD8mseGmubZD9osm86Mjrx6V66/UY4FRywrNE0bgMrAgg9MHtXdga0YScZ7PQ5MVTlJKUN0cX4I8RQ+KPDNlflh9oSMRXKfxLLH8pyDzz1rYv9F0i9VpL23jkABLFgO3Oa5C18BHTNdh1PSLlrS3WUyTQgnbICPu46Yr0OWJJo2hcZVwVYex4/lVUqtSlU9kpaE1KcKkPaOOp85fEMeC7Pw5/aGioi3l1gW3k5Dbs8nHbHesDxDompeI/hNpWoakplvLVxKrMMuYgxXOev3cH8K9WHwi8Pyaoby6aWaHcWWBmwn0OO30r026022urI2DRqIDGYgmMKFxgAe1enLE0Iz5IvdNNnnxw9Vwc2tnojyrX3Gu/Cxjt3s9gocdfmjGMfpWV8KvDuny+CIo7q3SUG4lbDKMZyK9F0fwudM0m50i5l8+GV38tegSNxgr+PWk8KeG5fDlrdW7Tb4nmLxJ2RSMfme9ctTHTjh4Rpy2udEMLGdaUprc8E+J+kQW/jDRbuBAgVVwF4AKyDoO3XtXM+PtDli+IWl6zt2rI0TM3ujjv9DXu3xC0H7fa2+pRLuezfJA5OD6ceoqPWvD0niPTra6iiWO6RVkRZR0yBkE9uma6K+KjKM0/tRRjSoOPL5M1fHujR+IfDGoWDLkPC2z/AHl+YfqK474CHyPC95pznHkXO9VPo45/UV64kbvax212o8xUCtt5ycYPPvXiK6f4w8Gaxcx6DbCa0vCSCAXVQSSOP7w6VhJSxOFgo7xNk1Rry5tmd18WdHOveC7+2g5kjTzVwe8Z3YHvXBfBnS7HxL4AufDetxi5hhnY7ZAeFk5H65Feh+GtC1wpeXfiGR2e8Xy/JY7vl9SOg64rA+GFg/h7WdU0eUKnmcqB38tj0/Bq2qVeTDwqRteLsRCClWlB7PU4rxn8EvDGiaFqOraOJoJ7aB5Y1Vsr8ozg+2BWP8B9FXxRpmoS3tzIkltIqKFJ+66579MV9W6jZx31lNZyjKTIUP0brXhPwl0m68IeJdV0K4UqlwSUJ4yY+V/8dOKrEV4VMLGpyq99SKVGUa7hd26B4y8e6/4D8WaJoloRJpUkKJKJRuZsvtJ3eoB7V3F74p1LS/G1nYTOHsL9VRFPbd/Fn1H8qyfjD4YOr6VBqdvGGn0+US8cEoev5da4jxTrUGpQeHLu3kH2yIDzsdVZSAKJYChbmjtZMSxdVNRe97EetfGfxT4Q+It1o2sJHJpaSKFiC4IibowbqTX1FpGs6frenxanpcqzW86hlYdRnsfQjvXzF8ZvCkNzrGl69NFnKCGbHBbGGArqdP06/wDh2Ita0F2uNGukV57Un5UDd1rLMMtp05c9B3XY1wmNlNONXc6jxvYeK7fU7PXfDt6+bY7GtGPyON2TxkA+mDXYeIvG+keEdIg1jxExt45PLUoo3sJHH3QO+DXzt8d9XvNWsfD93oU0iQTSu+YyVYOqggce1dH8UNIn1b4UadPdkz3NtBbyhz13EKCT6nmtI5X7atGHw3VyXjvZUnLezPfPD/iPRfFOmJq+i3KXFu/XHDK391h2NQQeKtGk1iTQhPtu06K3AbvhT3NfIPwi1DU/AWpW9xf5Gl6sTDJj7ocHGcdmBx+FevzQ2n/C0bdrn5oZwJYiDxvKnaQR2yK4p5fOKlfdM6I46MnFpaM+glu7YTLbtKiyv91CwDNjrgHGfwq4Sv8AEePSvgr4jJ4j1v4upZQ3otMeVFYzIxG1W55wfvbs5r6M8Kv8TEu7XTdWu7ab7OQJ2JDM8Q4ye5pYrLa1DWZpQx1Kq7R3PblCsRkZyenqamlkjhRpZiERAWZicAADJJPsK+Zf2jtf1TQ/DenXOlXM9s/9oIu6FynG0kltuCR0wK6n4TeP/wDhY3hWXTdZZTqdtH5NyP8AntE4x5mPcHBrF4KonHm0Ujb6xF3t0PabG/0/VbUXul3MV1AxIWSFw65HUZBODV4dMd6+RNLi1n4GeJpVxJdeFtQkwFzkRE/dwOxX9RX1jZXtrqVpFf2UgkhmUMjKcgg1z1qMqU3CRpTqKavEvJwOeal7ADGc1Erc4xSqayLJGbnrS78VGQM80mVUE4ORSA1I+VGO/wDOpVORmq8XzKCOBjNS5VR8x49aYDj1zTCMcDv0qRCrH5SaVk+YLjg96h3KTCLDAl+2OKeAEYMvrnFCR7e2KkO1cEg1XKhNjnbzAAvBqAxyZ64HcVZAL42jqalkt3TBXv8ArTHEgZFTbg/MeacWAQSOO+D71ZW2BKlgCQKHiGdjDjrSbKJERdm9M89qjESvkMAQfxq3GocYUVIISFPrUAj/1/efD1gq4XbgD+lep21uwQDp0OOvFczoNlGY0cgrzkn1/wAa7hVIUBQSc4OOw/wpwNGh8aEMpH3h+tWCquMHg+opkIOSjdxx/wDXqUYx3HNUTcyzbPnIPy559a0IAu0KnansAW3AYqaIKmB600iGy9EmxA2fwq5GenFZnmM2ETjJrTjyv3jk1qkQK2T7e1KkZJ/pUgAzk1KF5yp/GrE9iLGMcU9SDmhs9Tz70sYUnBoIEZA6ke1RrGAc/hn2qZCDuHSm7ckCmkBIpycdzU7E4FNWMDnvUvlk9+KsVyHZuOaQKc46Yqzt7elMGPSgZHjketOx2PftUjAFQRxTQMc007O6IaueeeKfhb4I8ZXSX/iDSoLq5j4WZhh8AcLkHpX5y/GjwNL4M8fXFtp0HlaafKlgVM8I3Vfzz04r9XWIHt3r5W+Puhx3t9aXIX5mhkjPptHIz69a+sy3HOtRqKqk2lpoeDjqEYVIcrsnuT6N8CtHbTLS+0nU7y0M8CSYjlbA3gNxzXQf8K38ZaemNO8U3I9PMJbp+Fej/DuR7jwTo0jHkWcant90Y/pXZMD0rxHjIS1nTR6X1OSXuzZ4RDpPxb0wqw1S1vVHaWMLn64Ir0jQ5Ndktm/t9IUmBG0w9CPpXTNG2BnpTCo71y1qlOX8ONjelTqR+OVysw796j7c8+9WnwBk1Bt9OKyTNkViM8daaVp0rLFyx4p2ARTKK7L7Uw55qyy88UzaM1LRLZWYZXGKaiIiBEGAOgqyQKjxg+1CQW0KrjdwKaI+NuMVPgbuafyeaokpGPAqNvTFXmGahKCgaKuPyqNl7CrLLioTUtFbkKDkjpio2Uc//rqXncTURLHJNSQQkDBJ6VFIMpxVnHBz+VRPgDPatAKuCq7qgLE/L1zVmQ5Tiq+3vSvqBC5OcHt3ph6VM4B5FRDimAKBio5FB5NSdqTPGQKAKxQgUZ4OKlY5AFRE9QaCdbkHBBBo60/OeMYxRt3YA/OgoYcA5qTAIDClOAuMUA8YHHNAEcoDHNVZZAo8tR1q04Bx6iq8iD7x+houBRMUbZDjIIqOFFB3Yz6VPO2wcdTxS2wAH15qXJhYaF+bd3qXYijPUn9Km+6TxTMetONSUdExOKe41BvbbVVdHsE1I6msQF1tKb8/wnrx05q7ECDkc1cjQfeHU+taKpLl5L6E+zjzc3UCpJz0rFuPD1lcarFqrqfPtz8pViAcjHPriuhIyRxyOtP2sM54qo1ZKPJ0B04uSl1K8sCSqY5AGVhyDXBRfC/QP7Yj1TDhY33iFThNwOR9MGvRkTLZP61ZC8V0wxtRU/Zp6GMsLBz5+pxfjTQ/7d0eWAAGVCJI/qv+IryC58W63D4f/sCxst8yK0AlYFgB0GFx1FfSLR5HTI9KrLaQxPvjRQ3sPWu6jjqSSlUV2tDjqYObk1B6M+arTwHrB8ERyaspE0dyLmNW+8qchsg9ARXf6hAuq/DhreMqxS3KNz3jI/wr1uWCOWIxuAVYYIIzmsw6TaJp8mn2saQxOrKVUYHzdaunj+arGd9UrEVMG1TlE8i8O+F7LxB4NksJE2uk7GJ+6vjO4fj1rlhp+txeKtHs9QVy0DLEJAD80YJ746fyr3Lwt4fk8O2D2TzedulaQHpgHHH14rpWhiLCUqN68hscj8alZmlFqSuw+o2kmnofHfjL4aXHhPWLbVLG9kljnmYqXOXiYHdwf4q988FaFrcerReI9anV5JLfYuG3NIGHAPYADmui8WeHf+Eh0020ZWOZDvjYjOGH9D3rz1bDx7e28Oj38AVLVgYriE7eV6ZbPat8fVeIipxW+5lg6fsZuMmZf7Qxgl0rTLeb7n2l3YD/AGU4/WvObAWngnVtH8U+D7iO5ieBFu4I2yVYj51Zc5w/6GvRvjLa3Lado/2rEroXDnGcsEGTir2m/BzRrjT7a+tLqeA3FukhVQv3mXJ5PbNddTlqUI0pPpp6mSlKFV1Euup7FNb6N400ACRRLaXiBgCclCR+hX9K868BXd54R12XwTqUjNbsxNsW4AJ54/3h29ah+FOo3Nje3/g3UPkkglZ4CehK8OB9R8341o/FTTjBbWuu2x2z2kqjcO4bpn6EcV49nWpuE/iiegmqc1OOzPbxkcAc96d3rnvDOsDX9Ds9W43TRDft/vjhv1FdCMHpXks9IUelTFMjI/Wowp9etWlUAAYyPWkBLAOMNVjyt/B6UyIKc56/0q2OMcfhQNECIIm3rwcVKxbaN2Mk/pTyATml2g9aCrJDSpLBjxgUuELEDr7VNt3dOKXyTHhoxz/OgGrkkQBwf8mrQIC/MKrwrI7ZcYP5VeSIEAnIP1qGw2GK/wAwTBJNStGCRuGCKf5QUhhnpSrh+9DYJj40+X5egqQcfhTFDAcc1MBxmk2M/9D7C0S3URgD7oHFdTtAxg5rG0iNljUEduv1rfxhOB6fhTiU2N8oEhx27etKSqSDcpIIqSKQLhQOnSrUksU0YUr8y96sLFUIpUkAj04qBRz85zV5JZlJQAbcdajlQY3DvTRnIniRGPyrmrikqelU7bdGp5B/GrSAsdz8e1bJEk4YcYzUoJDAHv61AMD8fWp1UucA80xPYVxk47HqacoCgkelNYMODSb9q/XjFBAqAAnjBp8YIYnqR2qKMksCelWUUF/1q0BIwIxipVHIC9KhHdqmVlGPSmAAKr55yRjPakIBXjjNOLBiSBjNMIbPNADiOOKTBAI7dqfkZxTm6YIoFYrMATzXz98ZiMWanBO2Qj2BxX0MwGK+dPi2y3Oox20eWIQDnjBY9BXs5S7Kcn2PIzFNyhHzPVPAkBtvCOkwkYItlP8A31zXX7QRmqGlwfZNNtLfABjgjU49lFaGCenFeS2erchcZGPSoHXgEVcI9e1RvyancpMoOpIqML61cZcmmkD/AOvRsJoyborCoaUEqzBeBnGemamCIq7R2q0yZ60woAM8mqTvoLmsVWXBpmO1eSePviNF4ZabTpmW2kKqUmY4ADdx9K9A8KTm98P2V79pW7FxEJVmUhgytyMEda2qUZwtzLcxp1ozbUWa7LtGahIzV14wRjPNQeXg1kbXIlUEHigqo7VNs9Kbg5xQIrnkYIqI9cGrTLwaqqGJORj0NQ9wK7A7iB60gXGelWeowajbA61SdwKTjriomUgZPWrDdcjFNPNHKgKp6VEwGM1cZV25x+FU2B2mmBWPTFRleKXY4z6CkBzxQBETULEBeKmYcH+VZt1G88DwoxQuCNw6jI61dODnJRRE5qKuyzkg5pMk9K+Wo/C3x60DUp5bHWk1G0WQ+V5uDvQ9ARx09a6+18a/E/Sk/wCJ/wCH1uMY+eA4Jx1wK6qmX14bxMI4ylLqe6sO1VmwDXlMPxg0tHVdZ0660/JwzOpKjP4V6Tp2raZrNubnTplnRcA7f4SexFckoSi7SR0RmpaxZcpw9OlM+pp/XpUlCkYpp46ilpC3OKAI2b0qNiCPQ05h83tTWHYcVLAomNnxtPAPNSQoAfxqUL83ynr6UsQAJGfxpXAkYYOTVdsEj0qwdpB71FINoG3vQ9AJIsu2QOpq8pO0DHSobZCMKPSrKqRkkdKtAOXIIbPIqUncM1CJrff5JkQOf4SwDHPoOpqwoGcA0ARITkj0NWB0x1pNoLHBqRelNMBtAApx5p1WBCwx71Hj5c1O+elQn3oEwA9O9PyAMUwEHFO4JyRQSkNxmpMDpSAZfB7UpPYVSm1ohSgtzkPGHht/EWnCCAos8bAxs/3R65/Ct/TbeSx062s5WDNBEsbMv3SVHarxORSAZPFbTxMpOLfQxjRirrucBrWgXf8Ab9nrukwmSZJAsm1tpC+vvxkH2qx8TZUk0Ge1BHmSGPCg/NwwOQPQd679EUVz/iHwvp/iHyXumeOWHOyRPvAHqPcGumhXi6rqS0MKtBqnyRM34WRvF4RRW4xcTAD/AGc/416fGflwR+dc7o9jbaVaR6fagpHEpAB5JzySfcnmt9X+XIHPSvMk9WehFaFqPP8AFVtYxuxVVBgA9e+Kshu5NSMuRxjHQe9Sd+e9V0fB+tWgS3FAAAT7VYAAAxzVZSQfm6VYDIeaAuShCAGq2gU8g8+lRxKCBUyxYOc0WLSFYcggdPepN6lSV+pFJyCCe1BHJZRz6djUyBokU5GR0pkSDPB4NRNIWGAdufSrI4UdTUhsSHORt4x+tWGGUOODj8qqK4ZulSNLtU59KBn/0fuOzCqoJ5OO3fFXic81lWxzFyCAOmO9aCMeOMincbY4kAFlPvVmDayAswbPp1FUXjmRTKiFh3A96W2m8xm+TZgYP1rSAjZhS3mQnPzKcEA1F5ZZ9nvis6OPMjDJHXp6VdRW2nnp71aRDLcqqI+DyvUe1Cyl8bRmokk42MM57+n1p+fKG1RnnNaCLRIUD0zUqOFIcdDVYA7eeTTuduBQTJXLBcsck9KYkg3DHJHNVwCM5pwA6jrTt1JLWeCx4HPNEUyHDKcj1B4qNH+XBFMwqAhQBk5IHvVLYC+JAxK9qU4yD6VTV8Y9qn3kjjvTAshwOevpmo5kW7iaIsyZ7ocMD6imK+CM80iKyu7HBRsY9fegBryPAVEaNKcgE559M1fJ5x3qptzyOlPLN2PH60CuWCR0NfOPi4G+8YJD1L3MSfljtX0DcybImfOMKTXzjo8txrXxHt45CGWOaSU57qgP869fCrkws59zysS1LFQifSigCNQONoA/KnAHPNICOBTunNeQepZB1I/WmkAmlyaAec0C9CB0+U4HWoWAFWmzjJ5quygndVLURCy801zGiGRzhV61PtJ4rgPiP4kTwz4bubknbK67I/8AeYH+VduBw/ta0YI5sZWVKk5M/Pj9orX5/EXjySGGRmtLceQEXp5inJJ9evFfXP7OPimy1zwFb6DFF5F1oSrbzx/3lbLLIB2Dc8diK8V+E3hC38e6/rN9e2xe1trSWESHkefcDaDk/wAWMn261f8AhbqS/Dvxu8eo5htrsGxvFI/1Ugb5GPsD+hr6TiGlSnTjUo/Z0Z4uTVJQm4VPtao+2xFzTfKH3hVwHcoZeQRke9RsAo47V8ild2R9G9Fc5rXdZ0zw5p0+q6tOtvbQKWd2OAAK+WpP2rNATV/JTSLt9Mzj7WBx+Xr7VT/aX8R3OqXln4JsSxDMkkyL/HJIdsa49utes6L8FvDNt8PI/Buq2yzNcQhryYDDmcjOVPUbOg96+khk+HjCMa9S05bdvmeJLMqzk5U4Xij0vQPEWj+KNJg1rRbhbi0uEDqynkZGcMOoI9KxNa8deEfD8vk6tqttbSY+47jP5Zryn4Q/CfxP8N9Y1aG71JbnRLkYtYgTvJX7rMOgYDhj3qv4j/Zr8AeJtcudd1B7xZ7mQySKsmUJPYA5wPpXm0cBTlKUatRRsd1TFSSThBu5v3fx7+GFpI0X9rrKw/uDIP09a5C5/ai+GqTG3tmnuDu27whCAjjr9a6vTvgD8K9LhEUOjiXHG6VySffjjNfMfxz+FNloXiG0v9Bs1trK6tzuSMfL50TZOfqCK9KhlGEqQlONW/L5Hn1swxMJKPJue/2fx68PX7lEtZolwSHkHHH0r0nwd4ss/GWl/wBq2aPEA7I0bjBBU4zz1Bqj4T0bw3qfh7TdUj022U3dpFKT5Y4ZlG7t/ezXYW1rbWKeTbQpCmeiKAP0rxcTChG3sW2enh5Vn/FVid24471Bziub1bxfoOj3yafqF3HDM43YY4wD0ye1alnqVnfoZLSeOdQAcxtuGD0ORXK01udKkmYPi7xXpPg7Rp9c1hytvDgEKNzMx6KoHUk9K+eP+GjZ9TuXj8O+GLy5jXq8vy4+oHT8a9b+LNs9z4PufKjEhiIlBYAhWUHDc+hr5/8A2adKeDVtbS7kaX/RImKu2dzPIdzHNe9Ty7DQwyxFZvXseRPGV51nSpJaHZW/xw1mGYDWPD8ltCTgvuz1/CvavDvifRfE9sLjTJw5H3ozw6/UenvVbX/Cen6payIsYSQ85A4/KvlK5nn8Hawl5pMpilikHyjOMhsFSO4bHSssRlsHS9vhndBQx81U9jiFZn21sx07daicc5NOjkdolaRdrMoJHoSOn4VDOxWNiBnAJ/KvOoTqOajGR3Vow5W5I+ffi74ntBjQreNWfh7h9oLdfkRcdyeT7V2Xwr8L3/h/w/JPq3y3uoSCd4weIowMIv8AvY5NcH4U0aHXPGi318okSMy3hVhkFgfk49jivonoAP5etd+a14tqktbbs48soyV6j69BjccUqjpSvg4I704cCvHPWGEnmkJ7U9+lQn86AB/WouScZqX5Tj2pjdR60mAzBQ5FJEAcmmuW3fKeKlQcdM/0qbACqS3HWptoDKW6ClVQCO4qeGPeSW4xVIBYsF/SuJ8e+G9b8QaT5Ph/UZdOvoW8yJ422hzj7rexrueEOe46VOmWNdOGqQhUTnG6Mq8JShaLsz4I8Rad8RfC/iS01bxHdSz3UG2SBlkJV0jPKnHrn/OK+gLL4g+PGtVmbw20u5Q4Kk/OGGRj61b+Mlgk0NncBfuOy/Tcv/1q9M8HOZvC+lSMT/x6xj/vkY/pXr5ksIrSjGza6HlYB4l3TlezNTRbi4v9Mt766t2tZpowzwP96Nj1U+9aQBpUJI/xqVRzgV4B7REBnrS7cCpcDHH6UbR3/CmnYCJqhKDHFWcDpUJqxNECkDNKT60Hk4ooJTE3A9aM84FNxxR0+tA2x/8AnmnjimA96ePehkkq9u5qYDcQDVfaeg/KrqptwcVPMUtx0aDJOOavxgkYNVkBPOMYrSiQbaQ27D1XiplXPXpTlTNPXKsehxSGiVFAA9atIMN+FVUJLcdas7gMkU7aAS7V61C2V5POTUgOe9K4ynFIpEsUg7CtNDvAz3rIi3KR6EdKtxuQRmgH3LpT3qNnI+nSlBzyKCntxQFyJASwz3NXSw/lUKtt+UUSSIv1qZCepKSE4/Gq077xt7VF57NndjimeaoqSz//0vt2Anp29qvpj355qtFgAL3PSpQXEmDWg2WIZpgWjJ+RumPSpZowgVsfe5qCJgzdMc+lWrnzVVF4244q0SyJCmQ6n607z43bA7dulVk2qCMfe64qdEh4Yrz6+1UiC4jArwtSKoDbjUSEBsAcGraqQhY1SYmPpmeaaH55pNwYZ7mmRcXJzzQDzioW3DkGl3EruIqkBZB280u4MpY9qqM2ACCaHY4CL0xzVAWAQpzQ0h45wKqjMYJJ4PSnt8yDmgC0JRuwORiraykoB0rOQAAVa7gjtTSFui4rcc0nU+gqGN85FPz71ViDJ126+x6bPKefkI/MYryP4ZWnn+IdQ1I/MIo9gbvuc/8A1q7fx7OY9GKAkmRwB6Csj4U24Gk3l2AAZbjH4KK9Wr7mDjHuzzKHv4uUux6qACMjP41IGJNRDgVKnTPrivJfY9ToKaUA9c4pcdzRUiEKg96iPBqYnHWq7EGqiJjDgcmviH9oTx9ayar/AMI/E5f7OhOFOfmzyfw6V9d+KtcTQ9GnvT98DbH3y56CvhvVdH0Xxj4u0zRb63e6uri5XzZI871R2+bJHUYz1zivq8ipQpwliKrsfO5tUnVnGhTVzqfAHxz+HngDwja6MYpWu2Hm3BjXl5n7e+BgVxvinxs/jrU/7a0TwzeCMxkXDBOJFXoxwCcjnJ54r6x0f4FfC3Q5/tVloUMsgJ2m4Zpce+CcfnXp8WmWNtbG0toIreLaV8uJAq4PbA9a1oYrBQbpuTlzEYjC4qaVSyi4nzd8HfHHijV9ag0PUtsWnJZt5aSkNKXXG35vpxj0r6Zkzg18g+M9Hufh/wCIo7zTiygSefZuBwMH5kPXOM4x6Gvpzwv4htvFOhW2sWvHmqBIndJB95T9DXjYnCqjiUktL6HqYfEuthm3v1PkXxZYLqvxw08XHK/2lbpyOoQZH/1q+z3wSccDJwO1fKnxBtp/DXxHh1uaEvELiK9hfH3tmA6g9Mj0r6a03VdP1mzi1DTJlmhmUMpU5xnsfQjoRV53KTxN32IyhL2BNInpVJsj7wxVy5uILaF5p3WNEGWZjgD8ayLXUrDU9z6fcRXKo21zEwYKfQ471456j2Jzz0714L8c1U6FbOyjekr7c9RlK95Y44NeHfGiKSfR7VVGVMzA8eqn/CvbyR+/JeTPJzP4IvzOl+E/734e6G+Nv+jlT9Vdq6PxLq0WhaRd6rP922iaX67RXIfCOYt4FtIeAbd5Yjj/AGWOP0qD4t+c/gTUYUz84RT3ypYZrmyzDqriYwnsdGYVpU6DlDc+NtNtfF3xP8ZNdwqxjlm/fSkbkiDcImfcV6xpDaj4C1keQzBITtuoFzslQcFsHoR1BrvvgDawWfha8XbiZ79/N6A/Ko2c/Qmsz4mx28fiaw8lsS3SSCVB12qPvH+VexiatHFqcYxty7HlYelVwrg5SvzHt1xHbanprfdkiuYTt3cgh14P618y/CwxaB45uLSYiNbm3lt2PQb423Dr+NfQvhdJYvDenRygh0gA5645x+lfMPi2ze38Xz2NsTG8lztBRiCPN4yD1HWscJSlisJ7FPZm2JrRw+J9q1o0fQnijxzoPh3TJ7ue5WSRcqkcZDMXxwuM9f5V8/8Aw/8ACusePNfi8S6zB5GjWsvnANw1xKp3KAO4B5Y4xXAw6LBoPiSKDXkZ7WG4HnKc5eMnnPqehNfdVnHbR2kC2QVbcRqYggAXYRxjHtWeLmsHReGi7ye48PF4qr9YekVsSknvzVe4GYHVerKR+YqcqRz2pjru6142FlarFnp4hXptHifgOQW/iSeBhw0MiA+6PXtRwRXi9hCtl44RFO3NzIuPaQZx+teynjCjn1qsXG1VhhZXpKwYGeaXHegAH71OJ9K5jqI2qI9akfNcf408X6X4K0eTWNUY7FIWONOXlkboijuT+lXCEpvlirsmc4xV5M6vPIHrzTZEz82RXz5o3x6s7mdv7Z0yW1t8jEkTCQoD/eA/pXseieLfDviaHzNFvorgjGY84kUnsVPNE6coO0lYIzjJXizbLqCNw69KsBh/DxVZiu4bulW0C8nHHtWZRKygBQO561YQBTVGd1h/fuwVVyxzwBivL5/i1p8F7IkNq89sswiEyHlyTglV6kelaKEmuZLQlzinZs9h2/5NPXA59O9Qq/mRrJ0DqGGeuDzzT+Me1StGUzzD4pDfplv6ibj1+6a6jwQpj8L6YhOSsOOf941gfEZBJpMJ67Zh+oNdB4OO7w7Ye0ePyY16OPd4w9Dz8Even6nZ4xUoGPc1VBNeW/ED4s2Pw6uIV1OxmnhlC/vI8cZ6+3A964I05SV4o7nOK0bPYlTC5qCQYxg/pWR4Z8X+HvF1n9r0C8juVVUaRUOWj3jIDCofFGsDQdJn1NU8xolyq5xk06dKVSXLBXYp1IwXNJ6G0wYgHioDnB6V474I+I+q6/qxtdSSIW85bytgIZGHIHvXpOs65YaJZPqWpyrBbxDLu5wqgfz+godOUZcrWoKalHmi9DR9aAc8msLRfEej+IrEanol1Hd25ON8Z4yPrUWv+JdI8Nac+qazcra20eN8jZ4zwPxPpTSbdkJu250WR0pvTivCbX9oDwRdOBAl68ZJHmeThTj0yc/1r1Lw94u8P+JovN0e6WYgZZMYdfqDTlCUfiQlKLWjOnHSrKBcZBziq3TpViH3PXoKh7DJlALDP/66uAE4x0qqmAfrVwHjFQNMtxx4XJq/Au8cdPWs6Js8GrSZVgVqkwfmXiO2eh7d6Rzz71GJMdR1oGSd3rSY7kiOQ1TnByG5B61XA71Mp/GnFJuzG20ro5iz+Ingm41W58Prq9rHfWb+XNBK/lurDt82Afbnmu4G0opXkEZB7EGvEfGHwP8AAfjPUpNZ1G0eDUJgA91bP5bsRjBI5U49xWDYfDHx74OjI8F+KXkt0OVtL9dykemfmHTpgD+tejPLJNXoyUkcMcek7VItH0cBUqjBrwaHxZ8XNGTbrPh+31FV5aW1cqSAPQFhz9KvQfGnTbfaNc0q+0/jl2Teq4HOcYOPwrjnhqsPiizrp4mlNaSPcFOGxUhkzxXJ6B4t0DxRb/aNDvY7kLyyqfnX6qcEAZxnpW88mBx3rA10exa84htvUetRFs5JNUVm+bNSmRT7VLVxisST1qs7cc1MGHX1qKb5kOOCOaTGj//T+6Np2nZwfp0NOWdnBEqBGHUjvTVkcsEIwD3J71PImzAfvnNWgYvmQwlecjOcdanZ1uMv2NVoxblgjnI689vap7iWC3AEHQdhWltAIANjqo9ec+hq00YU4FVIZPObc46nitFxzuHoKtIh7jYgd2D27U8yPnB4GahRvnw3HB5pDuY4B4HX1qhMm34qQNn2qBjwAQAfXNNG7HJ49KCGT5J4AqOWRYwC30oRjnrimuQTyKaYiQcjpT+SaiGB/Olz6GrFce4LDFHbFMByAT1pe4J6VSXUTJUbnFThx9aq7snpkVIrYJzSbBMtBlByMZNPz3qnsTesn8QpZd0iFVcoT0IFUncTOC+IUgFpBGW5Zm49hWz4BjW38MQELgzPJIffnArk/H7NGLWJ2yNrZJ65A611/ghg3hewIGfkb8fmNepjtIQj5HmYD+JOXmdmjZHpzUwqrvCDGcetO85QOSM/WvLPTZcB4oBHeqoni671/P1qUOCARyD0qWIceT6VAeOOwqTPNRueMVUWB5h8S7ee60fzUTMcRJfAJK8cNxXmfwI8KGO51Txfepuklk+z2jMPux9WZc+vT86+kmijkJVlDA8EEZBB9ulSRxRQIscSKir0CgKB+Ar162Y82GVCHzPMo4HlrurIlQYGRT/rSKBt9aAa8lOx6TV9GcH4+8Jw+LNBlssBbqP95bSH+GQdOfQ9DXi3wqsviDoXiVtN1TSzaaa5f7Q2dyFlBCMrc5J/ka+oGUg8VAV2HgV6lbMI1aChNe8up59HAulWc4P3X0OW8U+F9N8U6c1lqCEEfNHKvDxt6g/5zXgP9heNPh9ds2jrLc2rZbfAC6H/AH07GvqYnPGKqOoHQVUcfTqQUMRG9upnLBVITcsO7X6HzNqXiD4g+M7GbRxozRQzRssjFSmfz6V03wn+HuoeBbK/k1CbdNqUokaIHIULwCT/AHvYdBXtLDsCcVCy5/CscViqU6ap0o2S69TfC4apCbqVJXbKbKWxmvP/AIh6el54buMD54CJVPX7vX8xmvRn+Xn0rIvYI7y2mtZQNkyMrZ54YYoyysqdZX6hmFLmpadDyX4SXiLpt/prN80Vx5ir/sOuCR7bhXouraVBrWnz6bc58udCpI6jPQj6GuC8G+AbvwtrF5qc14txFNB5aqAQQdwJP044r08PilCu8PiHKOtmE6ft6KjI+R/snjf4e65NBpdvJNHKceYF3QyKOjH0NXdN0TVvEPiSXVdWk825uNkaIv3Yk/iHsMV9OXFvDdArKiuvowzUFvY2lqD9nhWMnqQOTXVVx1FQl7CNnI5aWCquadV3SGmJYYFjQfKihVA9AMCvlrxlaS/8LCE6jLG5t34PQZXrX1Y/K4/OvKPF3hC71DWrPWdPJ8yKSNmA7iMg1OBxHJQmk9S8ZR5qsW1ocZ8aPDMU0UWt26YO4R3H+633T09eK9B+G2qf2r4QsQz5mtV+zyc94+AfxXFdTrmmwa3plxp1yMpOhUn0z3/A14N8Npbnwz4puPDl7IGW5DoBz9+LkED3HWtcx/f0IYhb7MywKdGtKg9t0fRh9OtRuMj+dIrelIW5rxqbtJM9aavFniWr/wCj+M0dSQwu4Tn/AHgBXtRU9T156V4x44T7Jr8d2ScERy8dfkPNe0JKs8SyryHUMD9QDXVj1arc5sC70xq5xinFc/dpcHrTWYgjFcR2kLZzjsK+Nv2otUurO90eAZEOx2Ut93zXcID9cV9lHJP1rnNZ8N6LrzwprdlDerBIJYxMu4Bl5Br1cqxlPDOc5rW2nqefjsNKulFbdTyvwn8ItGfwPp+na9CE1AIZJLiJiXZpDuDEnvjjAwBXn+ufCPXPDN22q+H5JJthyssB2zAdsqPvYr62VVB6Yx6UMnIK966IZvGpHkxUbrv1MJ5bKD5sPKzPj21+LHjfw84tdVgW9AGM3CNHIMcdQME8V2MHx3uxGP8AiUIr4xgzfKD6+uK97vtLsrvm5topPXcgb+lZ0PhvQFYsdPtgfXywetTbLW73YXx9rWR8wa38UvEeu5tVLCKTKm3tEZ2YN2zjJyPpXq3wp+H+oadK/iHxDGFaVB9jtZV+eAHqzDkBiOg6ivW7HTtPs5BJZ20UR9Y0Cn9K3EO4+gqcZj6Xs/Y4ZWQsLgqiqe1ru7JPamFsYFK3FRnn614x7ByHjmEyaK0vHyOp/WrngmVH0CAAjKM64HbmpPE0fnaLdxsOibv++Tmsj4fXKNptzbZI2ThlB9GXn+VehifepQZwUNKk4noqkdK8h+NXh2LXvB8xdNzWzCTI646H8K9YBG7CmsjxFCLrRL23IyHhcHPTpXbkeI9niVF7M583pOdDmW6Pjv4B69B4N8V3OmXzbIdQQQMTwFYHKHnoCa+ofiVcH+wlXs8yDj068fWvkPSPDdx4hutXnsgftOnJHIiLxuQHDAe47V6Pf+P31XwfHpV8rjUrV1SMnrKB8oz1+Yd67/qTo41zh8LucP1r2uFUZbnU+DFSbxFC9ugKJKq/KMY2xktxWD+0XrGt2Wn6fbWLgWdy7pcJsDFjgbcE9BXoXw30A6ZaLPMd00YYO2es0nL4/wB0YWvLP2jb5YbfTYXXdulY5zjbgE5NLLPZ1MXUqTV7I0xrnTw8IR3ZzPwW15/COqDSr5mSw1VI2UsOFc/db2HOK9/+KOkprnhZ7KRS8RljaQA9VU5/L19q+bbjxD4S1bRdMis5Hiv7W1SGRWUrygHIIzkZ6V7v4L8Y2Or6GNG1mdUmUCFGduZVPTHckVlGlHD4tVF8Mtvmae3dbD8n2kcd8KpLO71rVvD2rWsDA4a3HlKAgj42Lxwu2uw8VeBItGz4m8Jn+z7q1G5o04jcA5PHrXI3MP8AwiXxJtJbUM5bDBAcbi4K7SfQ1o6l8SrTWfP09XKPAxSSBFPzMOvJxnFaShOrWlSqK8e5jzxhSVSm7SPTfAnjhPFFtJbXK+Xf2y5lUDh1/vAdvpXkHxS+N2t6Brr6B4aiWKaydfPllUOrh1yFVe3Xk12Xwr8O3q3134jvI2gSWMwwof4snLN647CuU+OugWCtaawkUaSglJGwFLAdCT3I965sDl+HqTnTqPVbHRicZVhCM4rc9p+GHj6Dx5oCXsiiK/gxHdQr2YfxAf3W/SvTd6ohkbooya+LtBmk8F3umeKtIkElhqEKGdI23Atj51b+Y9DX2BY3tvqlhFeWx3w3EaureoavHr4Z0qvs5HoUqyqQ54lC18b+Epr/APs5dWtUuhyYnlVXx9CQa3rfXtHuZ2tbe9gkmXBKK4zg9DjNeR+MPgn4K8ZXJv763khuiMebbv5bE9sjBU4+lfKnxV+Fx8A39nqOiXVy8UvyF5W+ZXHTBXBr0aeTOpFypzTscs8xUGlOLP0Yh1G0uMrbzxyMpwQjhsHuOKtl9uSOwzXjnwq8N6Na6DZeJbEF5r+2UvIxLEE/fX8CPStHxV8WfCXg27+w61NKJCMkQxNJtB/vY6D3rypUmpNLU9GNRWTeh6fHdjAXDfjV2GYOcDGfTNee3Gu2mueFP7a8OXAmhuoS0Mq8YB6+4I96+LvDPhjW/EXjSLTdd8Q3tvqNzPcIogmYLCqAsny7wTvHoOPeu+jlVWpS9smkjkqZhThP2bTufo4Gyec8UpcZ2+lfLf8AZnxd+Hg+26ZqreINNgO6W3uAC+zuRn5icehzXtng3xjp/jTRY9VssxOPkngY5eKQdjjt3FclXD1aMrS0OilWp1o3jqdtvx3/APrV4j8a9WmttGt9KtyE/tAuJWIyfJjGWUHtnp9OlexkngdRXifxbszO+nzEZCGVM9/nHTH4V62VYhqUpTd0lseXmmHi1FQVm2P+B/gyTRdNk8UXh23GqRhYYsYEVsD8v/AnIz7Cvd2kPQ9awdEeNNGsBHjaLWIADgcKBWiJMgE141WXPJz7nsU4ckFHsW9ylgBTgeuaqb8HNO8wngViaIuBxjFRNIc4xUYNBxnBqGWf/9T7jIEq7ScZ7VBKkoAw3TvU0S7jz2/nUE28FlZ8bjkCtC3sSSJ5MYJ5zwaijDOwDHimRwzSn5n3KvAzWmluEAPTirjczbLUKqgUGrQ+Ykg49qihRWUsTgjJApEbnPpWqIHS4Qcnk1AX2EY/Sp2xIMt2qIRgdKBMXzCzYxipAvBLVAAUGTz71Ju3DFBAbsCmA9v50AAjk9KCATkU0BIHwdrDt0NLxjiotyk4BGRTw3vVgPyRxQDzURPenDrg8VTYEq47VIuc88VB0ORUik4z0qmQ0Tq1HHUcCocmng8fWklYTPn/AOOev3Wh2FrcW8DSB2dGfGAvHr0Feb+DLn4r+ItMhXQ7iaLT1yEOFUHJyQCc19fXun2Oo2zW1/ClxC/3o5FDKfqDTrKys9OtI7KwhSCCJdqRoNqgfSvoKuOwns4rkvI8WlgsSpy96yZ4La+B/iVIyteaq6HByGm4H4itNPh540k5fVsg5yfMb+le4AnpirCMFGMVxvG0ulNHT9Tq9ajPC7nwV45060zYXqXrnjyzIykfQtxXrnhOPV7bQbKHXGzeKhEgJyRzwCfUDrWyVzT1x0rkxNWFS3LGx04elOCalK5P5meKHJIxUODu56k1LXNY6BE60/8AipBgA+tJyetMCccjjpRwf/re9NVcClU9TiglsHyKgYHOasE54qFwaBplZh3qq5LdKtt6VWI54oGVTy2PSoZOOasONpz61janq2m6XAZ9SuorWPON0rhBn2zigTdtyaQBjn86hZVxjGay7DxHoGrP5emahbXTdxFIrH8ga1jxmgm5UZccVCUBGDVpxkZ6VWbO3HegbWhW24qJqmOcUxlxQNMrPnZj1pAo24qU4Gc0zOeKAauViAM1gL4f0ddU/to2qfbQCBKeoyMHA6ZI710WM8kYzTcDk4rVVpqDgnoQ6UXLmtqVMKMkU01M4XsKhOMY6Vkn1NGeZfEa03WdtfYyI3aN/o4+X9a6bwXqA1Pw9bSE5eAeQ49CnHJ+laGv6cmo6RcWki/6xCVPoRyCPevN/hrf+Re3mlE5WVBOo9HU4b869HGe/SjVXoebhLwqSps9iNRsPapCD0prZrzj0rkBBFNdR1B+tPc4J9qZuzQAqnB9adTBwacDQA0fewaryqA2B0qyemagcEspNS0AyIBPl7VciIBIP4VTOVPXrUsZznPaqAtMwHf8KaDnn0qHO40mSvA70AU9XTzdNuI+7xsB+INcH8PrpVmurU9WVJMfTg16JMQ8MieqkHP0ryTwLIi6/NCX+by5Bj12tXovXDJnBF8uIZ7cQMDFZusSCLTLhzk7Y3OB16GrgfjnP1qvcIlzG8Mn3XGD9DU4GahWjJl4uLnSlFHzd8JVt18UzysSHv7d8IRwdp3HP0rr/EXw1huNXt9V0pVTEqSSxf7pByv+Fdl4f8HafoF217HmSfLbGPG1X7V1xOTzXbVzKUZThHVM5qWAi4xlLRoyNDsptP0xYLkASmSSRsHP32JH6V89/Gu3k1DU7W08vzImj+6Rx97k5/Kvpl8MMGvP/EHglNf1W11GS4MaW+0NGRkMAwY/njFLLcV7CNSd9bBjqDqThBbXMOP4Q+CFsIki05Em8lR5gLA7toyTz615fDat4V8QwTi2Ey2su1lcbgCO49+4r6pIHJA61574q8NX2oXMV3pscb7htmVuM+hHvXXRxn1mm4VXqc1bC+xqKcFoeZeNLhJvFGka9ZkNHL5Z9cbHGQfcVp/Ez4epeI3ibQk23EYEkqL0kUc5+opdb+H+sWuntNDKLuZJNwULt8uM9cD+I17No7m90S1kmBBaFQQy4OQMHIraeMUKipv4ZIwhheanzrdM5f4XeME8S6MbecFL6zUJLn+NRwGA/Q1h/GmxivdBiS4zsEmDjjO7vXFRLJ4Q+LCeQmLO8ZQ6jhQJOMDHoea9E+LjIdBjtwcs8yqPQY5z+Fc2Ai6GJlGXY6MZJVaEZI8c8JfBq51PQItW0/WJArs37iVSFDIcYyp/Liu1+HsHiGfWhoy6m9pDpb73hBJDBW5UD0J/SvWvAOntp3hKxgbhnUynPP3zx+lcNqVqvhP4hQ+IA6JbXXMowc8/K3HTnvSxNeOJoOfKrodGjKhWUU9GfQkbh13Dv0ryb4v+HDrvheVo13SWzCQfQcmvUYZA8SzRHKuoZfcHkGi4hjubeSGYbkZSCD0wRXJlWIVOryvaWh1Y+lzU+Zbo8i+B+rLL4SfSJGPmWUzBR/sScjH0NeW3GmWni/4wy6brMYks2mbcpPVYl+UZ9zW/4OMnhj4iXGgKCYrmRowey5G8E47VharI/hj4qveTjy1kkEgbqNr+9ejRjKhh6rjvf8Dz60lWrU7vSx69daH/AMIleQzaODFay/K0OT5TeqlT0OOhFeJ/ES1h8H+OdM8c2g2wM0dxuzgZQgMufoea+gvGN/FeaFDc2zDzHliZMHOOeR+VcH8R9AOtfDyVioaSzYzJkdEB5H5VrgIRrReHlopK5ljJSpNVo9DoZfHA8SaU+pw3cMengZYo4zkDJDHqTjsK5f4F3FxP4i1uW2UrYeUCcfdEjSHaPrtzXzdpmmv4TfTNekRr3Sbiby7mHPAP90gdDtOQeK+/fC6aFFo9tP4biiisblFlQRDAbI6n1YdDnvXJmqjRpLDv4l+R05VKVSo63RnZbyv49jXA/EC0+1aFLMAS1vIkox1AU8/oa7IuTgnnFZeqwi80+5tcgebGy89M44/CvLwcvft3PSxsbwv2K/hC7WfQLYE5aIGM+uF6Z/CukVhu+vevK/h5eFLa5spMlkIb6fwnH416SJB3Ncck03E6oSvFM0Q6/Wnbx06Cs7zOjA1IkuTz0NSVcvrKPXP+FSbsjINZ+5fcfSpBOVGMVDRXMf/V+47OZJ9wTGV6gVBcpvuDsb5OP/r1zEtlebxLbsQO+Diui02F0QmRiSeoatY6j9TUgh+QCMEmpnlbHl8hR0Bqe1V1RnUfKp/KoJkMkhPP/wBetVoZCA7T8oJB71JC3JBqRCix7PzoAx0qgYppN2Kblj0pBjmghgwOMDpSfd+tIM59qidI2kWQj5lzg+mRg0CJe/J60jZpucUZJqosBEjCsXC4JGCak3Y4pAaYSKoCZTnr2p21i3HGaiBxTg+ec0ABAzkVLG2eDUeOcU4fKOTitBNEvSnA8VHnHPWng8e1Akh4NPHSmDaAO9PDDFS2SO6EY5zT+vSmDjinD1pXsA8HinrkjPSo+ppRnOBVpgS/5NS4445qIHHtTxkfSgB5yQKVQOpoJ46U3kdKAJcnpUijjNQDJIxwBUgz0NArDyozmo3GeakU8YqF24wKBsqNnJx24qA9elWCc5aoH7mgSZXc81wnizwP4a8YmE+IrJbxbfd5QZmAG7rwDg/jXdsMiqxAAzW9DESpS5omdaiqitI8bsfgv4F0qVbjSrWaykjyY3hmZcMejY74/Kuei0P4w+FdTUaVqcfiLS2JJS7wkyljk8/1r30qB0qBsdBW08VCcWpw17owjhpQacZaFGJ7gwK1xGFl2AsgOQGxyAe+Olc3oGvTa4btZdMu9PNrL5Y+1LtEnX5k9q6qUcVBz6n865Pd5fM6bO9uhAT1B4qFlwc9c+lch4+0LWvEWgTWHh7VJdIvsh4rmLrlf4D/ALLdz1rE8Dt480jTXsfGyJem0iJjvITulmI/hK9ScVtLC1FBT6MxVaLk49j0fHc1HjgnivEr/wCPfg/TLsWWr22paed2C89swQfU+leq6L4g0fxDYR6lpNylxDJ3U8j6jqKxlCUdJI1jNPZmkc1C5zxT2bqB0qI9eKhs0PPPG+s+NNH8g+G9LTUIX4kfd80bE/3e4xXm95rvxmkyLTTggOMfIMe/U19DPnHpUXGMDmvSpVsJFK8G/mefUo4mT92dkfLl3bftBaqv2b5IInyCcohwfevVfh54J1Pw1DLfeIblbnUZlCAR/cjQdRnux716bgChjkUYrGwqQVOlDlQsPhJ05upUldkgPAz3prN3pM/Lio2HTFecehuRsRmm5AobOeajJ7UNjHh+ak37RgDrVcdaec0ICQnjGadsyvXBqKpoye54oAqMpVsnJPSpFyPxqUfOT2NR4OPpSsAvfin9DmkC8U84PTimBXkG5D2zmvlZPGOpeFPFl1G2mSB4ZJE/eggSI5JDKQDxX1f2wKryW8EhDSIjEdyoJ/M16eGr0PYunWuediKFb2qqUmeL23xZ1OdRs0tWPsz4H4baup8SdUcnOloCfd+n5V64iIjEAL19B/hTuo24GPoKTeE8ylHFeR47c/FDUbPbJJo0ksfcQh2f9RXp2iak+r6ZBqElu9qZl3eVIMMo960iowQQMHtijJ9a5qzpX/dnTR9rb94HJHFMB555pee1L7VgnqaW1A+lNJ4xjvS/4UnUZqrjaHooNShcdaiTiphyarmZPItTjPFPhT/hIUjkgkEF3EcJKVyAOvPf6VpyeGLbVNOtLPX2N3LbAEyg7SzAYzj3FdJkAcU5WUjOfxroljZt362sc0cNBK3QliiSGJIolCoihVUdABwBUc+mWV9g3cCTBc43jOPpUcepae0q263MLSsdoTzF3E/TOa10+XjHPpXMqsoq0XuaypxlZscuANqjAAwAOg9KmHPH+c0xUOCad0qIyalzIqSurM8x1nwvqkPie28Q6MkchMq+crcFQeCc9xitLxf4LsvFsQWbMF3Hnyp1GWA9D6qa7tm/ioL7cN3r0Y5nOM3JLR7nC8BFwUW9UeVeHvh9d6e8K6tftcpCcqvO0KvRVB6c9T1r0a5sIZtOk09gDHIjIwPQhh0NXDIDyKaz54qYY6Uayq9jSeDUqTp9z5g0TQrazutQ+H/iOIeTqO77K/X51ztYH+vqK0vhX4kvfB2sXXw/8RsRCsp+yytwqs3I/wCAuOfY17tc6Xp1zdxXs1vHJPCcxSEZZD7GuK8ZeBY/ETJe2Mi219EAu9hkOo5AOOeO1d2KrUsVSevvR29Oxx0aVTDzTto9z1rfxUEzYXkfjVDTvtEen28F5IJJ4okSSRRtDMAASB2FTu/ykL9evrXjUZ8s0z1Kq5otHm3h9/7O8X3dq3Cu0gAHo3zCvVAwOD2NeRa+Tpniu0vtu0S7Tn/aQ4Of+A16zGysAydGGQR0wa0xUP3jZnhpXpJE4cDipFfj3qHJ/OiNdrFuefyrmaOhMtI5Iz0p7yEe+agJAOeppdwC4zz/ACqGyz//1vry0mnV9gO5D0z1xXRxIxGV7VnWgRXBk2+gwOma2oJYzlAjc+g9K3hHQJaD7dpfugkj0q5JlfvcUiSJuG0HPr0NPlIZNpFamZCGzinDC9O9VwdrU77RGG2mgTJMkHihe5oJyMg4pAeDmggDnOO1NPHWjcAxph9zQAE7Rimq7H8aa+CR2xTEwrE/rTW4Ex45B60/rxUK5J6/Wnng9asVx4PHSlzjpUOc8dKQtg80Bcsqxzn2p4Oe9VlbqaeD+FUpDJ+KduOM1DuPWnbhVEyJhmpRtx71Apyak3EdKA6EvIpykjiowxxk1Ipz15pMklXjrTwfmz2pgAx6YpN3OKYEnXk1ID75qvnHPanhuOKALAz3NA6+tQhs8DFPB9aAuTg0/cKiUgD5qjJYnk4oAtAgjIqB6VGIBFROeaAFc8Be1VW4OMVMWUng9KpysS9AkgbnoetVWx3qUnioGIHNAyBveoGHcVIzYbnvTDgigmRWLA561C2QalPJqJjSZSIWHGB1qqQQcH9KsE5NQZ64xmqjKUdmS4Re6MbU9I07VrdrbUrWK5ikGGWVA2R+IrySP4XXXh2+fUPBGovYq/JtpSTEfb6V7SxbJ9DTOenau7+0HKPJWXMvxON4NRlz0nZnhmqfETxv4TGPEfht7q3UgG6sW3qfXI6iuj8M/FXwr4oUx2k5t7kZzb3HyPx1xng16PJGrKyvyCMYPNeTeJvhV4f1uX+0LKNbK/VtwkjXCsfdfX3FafVsPWj+5laXZkuvVpP94rruj1NJknh3oQQf6VGGA615BpniHXPBzJpPiZDLZj5Yrsc7fqe4FerWt3bX1ul1aSLLFINyuvIIrzp05QfLJHbCcZq8S5nPBFHNRhgODSlx/wDWqGORJjuDUbDnijzcDntUHnIxwrAnvg5pjSFeoT056+tSueMmoiO1FhjenHvTh1pOhxR2oAmQZzTunynjio0POR1qRm5zVRSbSYpOyueaan8UNG0TxinhK/hmVpUTE4AKB5PugjqPc16WoB5NfMHxo0cQeJLHX4lwJIwjN/txnI/Svo3Qr1dU0ey1BCCJ4EfrnnGDz9a68fhVQqKMXdNXObC4n20W+qNYp1x3pvQYx/8AXqT2oI5xjoa4jqRBk9KVhkZFSNyMDrUbEgetVGN2kKTsrnm3jL4iWPg3UbLT7m3e4a6+Z9hAMaZxnHfJr0GGZJ40njztkUOM+jDNfK3xPU6h46K8ssQhQegxycV9O6Q/maZaOephT+Vd2Pwqw81FPocmDxLrRcmupo/Sm7AKOMYHrThXnnYMIxSU/APSnKD1600FiPaT7GnBe1Pxx9KzdT1nTdGtnutSuI7eJerSMF/n1PtVJt6ITaSuzRxjnGa5bxD418N+FVT+272OB5eUj+87D2UZOPfpWH/wl174ns5V8EwNOy/K1xMPLiTPQjPLGuD0j4FPqWqHW/HV817Kzb/s8TE7sHIDyEA49l4r0aWCXs/a1pWXbqzhqYuTlyUo3JvFV98U/FscbeAY47bTZlyl55qhpAe/Odo9uvvT/C/wy+IVxbzweOfEsz28yfLDaSEuGP8AecjpjsK+hrPT7eztY7O0jWGGFQqIgwqqOgAq2Iiv4USxtGKXs6auJYao788zw7QvgR4e0nV7fWRqF9LNbyCQLI4KsV6Z7178seDuPWq4Qtjb1q6oKgbq4a9V1J87VjqpQVOPKncQjNRsT0qY461Gw/8Ar1iap3IGOFI71AXz1FTycVVPB4oJasOJHaot3NLgfjSFcc0FJjMjPvTh1yKRVJ7d6m2+tBMhB09KeoDEYrB1yx1W7gVtIvBazpn767o3B9ccgjtiuOlufiXpzJ/otvexgZLRsByB6cGumGFqSXNFXOaWJpxfLJmv490uS80j7XAmZ7SQSjHUr0YflWz4P1aPVtEglDZeH904Hbb0P5V5zcfFV9PLweJ9ImtgCUfCkAg9T8wxg+xrhNH+J+heHdcmmsDI+lXR3NHgBoufr/D29q68TQnKmqltVuc9CtGNR076PY+rM9BmpVwePasrR9V0/XNPj1TSp0ubedcq6Hj6H0I9K2IxyfWvLPTsIVI6U0jA461bCbutRN1OP4e9Q9xn/9f7LiRT93jNaaCSBVkzjn/Oay4DGqAEnI6Vp+YXRUbkD866IAzSgdnXc2M1OeaghK4wvPtSvIEIGeprQzGvjpUI6tkUsww2/PNAy3zdKhibJFConGaXdkfyqBietODkLwKfMQM3fNg+tS7gDg9cZqmxyabuOcnnFUBaLZNRqwDHvTQ+Rkio9wAppk7osq6gcHk9KRmbGe1U1Yg89qkMueB0qx2F3ndyasblK7uuaonOcVJuGAKASLauMYp2+qwIxx604MDxTasS2TbucVMpAFVg2OlO3+9JAmWw3GQacXzxmqyk4zTsn/69PmYi2jHGM1ZQ1noxBqwshz+FU9UBbLc03OTUav360jMM+lCAlzinLzz2qAtnmgORwDxQBZB9O9TbhjFUtw96lWUdTTI6lwMpFMMqjgVBv44qJm560XLuWmkXbkHFRhietV80ocYqW2BJkZIqu/Wk3kHj6VEzHOPemvMBS9V2OacStV3fB47UwEfgg1E78YHOaR254qFqAEzzUJOT1pxNRk/jSugI3+XJ7mq3Tk1YZqrSLjOO9O4EDnkkdxUDE461J1OM81GcnJ61mAzk9KhYE5zUgGSQeM0h4HNVF2YnbqZ19YWeoW8lrfQrNFIMMrd/8DXzDenxP8IvEYmszJfeHr6TPlOc7CeoGejDt619TFjtLN2GfyrJu7Oz1rTzDdxCWC4T7kg7H2PQ162HrU60fZV9+jPOr0p0pe1o7dUN0XWNP16xj1LTpRJE4zjoynuGHYitNjxXgIttQ+GuufaLUPNpVw2JE9VP/sy/rXuFpeQalaxXto2+GZA6N6g1wVqMqU3CR20qsakOaJ5h8ZfEd3oHhTFi5S4vZltlZSQQGGWIx7V4FEnj7wNp+n+MrW5kntrgB3id2dNhPAcEnG4dxXuHxx8O6hrng5pdLjea70+VbmONBksBwwHvirngayk8SfDOystZt3iLwtEySrg/ISAwB6e1fRRoYX2dOlNfEt/M8SdXERnOpF7dDAPx20eNYJLjT7lY5FUu4KnYSORt+8cH2qW/+OOiWl7GltayXdkwGblGAx6/KeTivNtF8NWE2tzeFdV28ieFST8wlH3SD6+lZfh7w1Dcai3hq+ypMkkPoRIoO38zVPI6HK+Wev6iWbVbq8T6+sNSs9WsINT0+QTW86hkYdwar6jrelaQqyardxWiOdqtKwUE+gz1rwf4X61c+GtYn8F6yxWOWRvs7Hosvpn0b+dee/Gy3vNa+IMGlSPmIQwxQh/uL5hO4ke5xXk4PKKlec43ty9z0MRj4Uoxla9z7Ms7q1vIVurOVJ4n+6yEMD+IryD4mfF/T/B1tJaaUEvNWDBBE+fLTPVmI649BXg7eGviF4Bgk0+G6uLe0nJVfIk+RgPQkHb+FVfEfgnxGugQa7fwr5LFQDuy+1ujH057k16eEyOMW5Yl6LscdfNXJctBfebE/jzxN4x0dDrlrG0Bl+SdIioUj0PIGfc19BfCHUftGgPpbn95ZP8AKOgKP6fQ1zFlNpB+ESRQtGvlWpiZeFImz0x13GuW+HGt/wBl6vbTS5WKY/Z5BnrnoT9DWOZQjUoRq01otCsvcoVZQnuz6mlcRRtIf4Rn8q4nwz8QNL8TX9zptvG8U9vk4fBDAHBIwTXYzqHjaMdCCPzr5T8D3DaB8TmsDyks09qxI5w2SD+deasInhnXT6nofWGq/smtD6w3c88ZpD0ryb4uTXlpo9tcWszRGO4G7aSpOQf612PgzVn1zwxZ38jZk27JD6uvWpjh505wctmVKtGcJcvQ+fvEp87xZfSP1E5Gf90CvpHQ9raNZOhypgQj8q+cPFCPaeK9QR+MzFvwYV3+ofEKy8CeCdMurqJrm6nTy4IAwXdgnLE9lX869LNqU6lVcivoedllWEKbcnY9m2kjOKo6jfwaXaS3t02yKFC7n0xXj/g740ad4jvIrC+gFnJJkK3mArn0OcYrnvi146trpIvDujyrKGYNdSIQy8H5Uz09ziuHBYGVao4y0S3OzFYxU6alHVvY9W8JeMU8UXE8KWzRCIbg5OQQTwOnXFd6q8da4D4a6O+l+G4ri5GJ7v8AeMP7qY+UH+ddjZ6tpmoTy21ldRTywHEiRuGKn3xXFUSUmo7HTCT5VfcyvE3iG18N6c91L88pBEUWcF2xnH/168B0jwJ4l+JOtr4h8VTSRaYG3ImSu5eoSNeykdX6mvpW60jT7+4huby2jmkgBEbON20N1wDxn8M1rRptARRgKMD6V6EMXToUuWkryfX/ACOWeHqVanNUfu9irpul2Wm20dlYQrBBEMJGgwo7Z47+pPJrYESYz3pqrxwKsqNuK86U3LVnbGCirIbGDtO71qdY80KuanjUZrPmKGrCw5qQxkjIHNWF6/WpCvHFNCaKAB21Ey5HpV11wc1AV7imCRRcdj0quVHX86uOMnBFRBM9P1oBog2HPSnBDznntVtUOMUGPt3FBBTKEHijBOBVvy85pAgHNBURiqGGP1qTYu3bSgdgOakUHv8AlTVWUXowlCMt0Urqzgu42huI0lQjBWRQ4I9CCDXnuqfCXwFrExkuNIhRz1aEvD/6AVGfwr1IKCQT2qYRDqK7oZpiFHkUtDkll9By5+XU5zw54c0nwrpSaPocHkWyMXCli5LN1JLEk10SoT7H3qxFESSfSrqwc5bgVwebO1IrxQjbzzT3hHBP6d6vJD0B6HpTxA7EDH6VmF2j/9D63WeKNFbcOTng5q5BqnmOIgDnoDWBZxIhzM35VvKiM2Ixz2IrpiyW2b0NyPLGD83c+9ODFuWOT61QhUxrtPapfMbOP/rVTJLu/Kbcc0rbWXCkgjsKpCZgcDnNTLIF5bg1AEinHFLuyCMdqgLgnAOKaZNpp2ZDFdcKWziq4ZuvSp2cMKrMcfjViJ91ITVfLZBzTywPA6igBxIpqnBI60zfztPWlzk9cVUQJd35Ubqr7wDjpUgbPSqAnyc9acG5qEH9acp4qrk21JQ3JqRMVX6U4HGafoDRcVsdafuA5FVBKB2pd+e/HpU2JL6kZBPpT91Z/mkACpUlGAScetGqGkXQ560Eg9TnNV9+T9aC2BT5gsWfMAHPNKsgIz3qnu4yeKVG7U76CLYkFO3ZNUw+DzSl80uYCy0pHekEmelVd3NKGyfrSuBYL+vNODY4zVTd69qTfnkGnzAWjIufaoZJjmogxzn1pjnijcALHpTTg0zp34puSTxVAIxPTB9qh+ppxJzkd6jzg1DYB7UxsfjSk8ZqNuetIBhOelQyEBTkdam6VG65HrVICocbc+lQ9s4qyw4xjIqI+lDQm7EQ6ZqJhUxAqMjnpUhuQYC1E3PIqwwz71Fg/WtBmRqOnW2pWz2t2gaNwQQffv7H0rH0DRovDFtcxNdtJbFvNUS8CFe4z7966oqQOe9c/wCJNFt/EGjXekXRKx3MTRkqSCM/Su2nz4mUaTepxzjCgnUWxrRzw3cSywSLJG/KujBgR9RQV4wc18xfCnUNY8Ea/P4F16RmtnlKQM5yEc/dIJ/hcfka+osfPhhWMvaUqqjP7JouSpT5obM+TvHK/wBh/Epbkj5Xmt7lQRx1AY/1rQ8VI2j/ABEhvIRtSeSC4GO+47Wr2rxX8P8ASvF11Z3l7JLHJaZAZMZKk5I59a3rvw1o17JBPeWcc0ltjymYZK46fXpXvYrMKVpKL3s16nkUMHU0utrngvxc0eeDV9P1rTVKvjqo/jQ7h/LrUXjKyg8YWlpr+kvv1DT44vtaqMOnQ598GvfPEGhprVp5BIDrkoSOAawvCXg3+wJLme4lE0lxhSAPl2jpwe9E8bTtzt/ErP8AzCOFqN8iXwu6PL9Z8Zw654bi0+eFxeAIXl42bl7jvkivRvBmlte+EI7LV4d8cu75H7oTxXSv4R8ONci6NhE0gbdkg7c/TgV0ioFAUDAXgD2FcFfHqMo+yd7HZRwbkpe0Vrngmo/CG5kuWXS7tI7ctlVlzlc/Tg/Wr+p/DWHSPD8f2Nmlu4T5ksgGN/0HtXtnQ0rYYFSAQRjFV/aTqfu5K0QeB5P3kXdnmkXjmzsfDSXOoMPtsSiIQ5+aRwODj09TXz1JezjXk8QxqRIlyszFBgbs5wP/AK9eveJfhnqeqay11p08UcEvJ8zrGPQY613tr4E0i00NtFVN4cZeZh8zP6+3t6V2RjRp0XhnLWRzSnVlUVa2iOY+Ic1vr3ghdRtmDKWjlBHqeoP48Va+EsmPC7W5wGiuX474IHP41xOoeA/GcUJ0+zUz2xfcqrKFj9ic9D7UC18a+CoZBaxECZRvKL5qA/h3FKvhak4U4x3QUcRGMpuWzG/EiG2Pib90yh2iUP7N79+lcT8Y9Gl3eHliJMC2flgjld3BJH510eg+DfEviTUJNU1BZIYiCxkmGGlf0VTz+PSuj1zSdU1WC18PJaO3kAlJyDlGHYnpg16lGu4VW46u34nnVKadNX0VzzHxJ8L9M8O6RYa1Z3DSC5SMPHIvdhkkEdq7/wAFfCjTL2Kz1/UZzNGQHS3RcISDwGJ7D2rnNR0bx7rz22hz2srfZCFQ7dsSj+8T34r2bWdZg+HXhCCL/j4u4ovLhQH/AFkuMk+yjua5sdiK0mqFNLmktbG2CoU0nVm9Fsct8Yde1qx0uPQ/Dr+TNdgrLIn30ToFQdi3TPatf4RfDtvBelNdahl9TvVDTZORGp5C+7HqxrnvhRpeveIryfxl4tzNuY/ZFcYXfnlkH91eg9+a+hhxwK8XH1aaisPTW277s9bBwm26s3vsAHpVhBz0qpcySQJvjj8zkAjO3A7n8K0YDFIN0R3D1ryz0SQJTgDTxTwtADYxnkcD3q2i4HNRqo7VMDgYzULzAf0605c9qi56CnqatMBXXcKgZKtbcjNQutAFIoM4IphUKcdc1eEZPWongJOc/jQBHjjAqSNDn5qVEYYBH41ZRCaVwsVnSqzLzWk6EDNReScZb/69DYFZU281KF6bec1KsZbjt0q/DBsXPXNQBWjjGMGpBBzzxWgsdWFjzxVK4IqwW4HTPrV9YhjkU9Ux+HSrCIWHNJ9i7dUNSJck9fwpxXbz1zV2OFjjHIpJoNqswxxjGaQz/9H6nWVFI3LnFasc24hk9OlYY7Vcid1cHPy10xM2zeWfgbqRp8nCnBqnuCjJpkZBye9WS2XhNtPJzUwnDHrWfnHWjfgDB5pMV2aQcEk+lP3A+9ZgkIXk08TYA56UXEaDSdBUJfJz1quZWwFXk0x26KfSi4FlpNoycCofMzgrzVZgc8nNA+XkUwLxbvTdxqsJfWlWbBIPAqokNstck4NP8xUU+3aqnmh+VpYmLfez1qhouJIXAPrUgJzUXAAo3elBRNnkUu6oN2aXd3zQBLnmpM9xUAbJ5p+6ncixKG9aeGJIBNVt1L5mTxTuIuCTHTpT95OapCTAG6nh+Mdc07IpRRnPr9gmqx6MZM3UiswRQTgLySx6CtgSqao7UDlwoDHgnAyce/WnEkUrg0r2ReDg96USdMc4qoDkUbwOKGkKzLRlzxRvxyKqE4pwbPSkrCLG445pdwquGHWkLelNqwE5fjg81H5jdOKZntTN3NK4Em6jeR3xUOeeKQtmi4Em79KaetGQRxTQe1IA+lMPHWpPpTSAaAIiaYw4x607PYUdO9NAVmyBUBBIyKtMvX61CRxg96poCLaMc1ERjINWcAc1EwB/E1LViWir70hHpU7Lx0qIgihOw0yIrn3quy5BPv8AlVhx6UoHFaxk4u6CSTVmeW+PPCK6tANUtVIu7deCnVlHP1yO1dH4P1l9b0eOW4wLmA+TOP8AaXufciurZDnp06cUyC2t7cu8EKxNKdzlRjc3qa6cVXVa038XU5cNQdK8enQeT2oIOAO1P2nrR1Fch1kWzNAXBxU4GKa2ByaAEHHFO5JxSU8Zx70AVyDu5qT9adt70KATg0rgR4zT0UYyakAxyKO2aXMxWQ3C4xTG2425/CnnFQ1pCrNapkunF7odnHPU9jTCMmlGDxWfqeq2Wi2E+o6jKsNvbqXkdjgACrhOo3aL1Mpxhb3jSx2A5/SvPtW8GT+JNaN1rUqiwtmXyIU+9IOp3f3QT1xyazvh98TYviBe38VlZPb2tpykrtkuCcDIxhSRzivViuMZrani6tLmXV9TOWHhUt2JLeOKGJYokCIgCqqjAAHAAHoKnABHrTB0qwgB7VyNnWlZWHiMMCD3FZX/AAjlpHdSahYyS291MUMhEhKME4A2HgfhW2g5AAPTNWkzipb6DGyRsUBU7T146Zp6A/xdam4HSoycVIEg9qT9adHjvTwATTsBGDgcUhPSp3Hp2qKRR1zz6VUQHh84HPFOGSOlRBgBUitnimA4lscUwCnNTolXJ2jk9aAJI04z3qwkYxTkQge9SmPP+FTEaRBs5OP8moSoYYNXdhP0qMx4PHak9wsyFU5zVtU6c4pqrirMaEsDjpQvMdh6rgdKkHsKkC/zqVVXNNsVhqrnANXY16cVABjgVajPFSUWY+O+Kc3NNGe1LyPvHtUthc//0vp1OuCc1biIYcGqke3HfNSqMEV1RMzSHsadG+3gfrUPT5gaA4BAPWqJaLWdx61Hnkjmm5I5/MU0sevWgkmpwZB97moFfDUFuaAJ1kIO4dKUuAQTzmqobAxinDJbGelKwE5bJzmlJ7mo8gNg08HJwetMBBycn/CmuokVlPQjB/GlI7DmlINWhNFeIJax+XztHTJyauKwUgg1TmlSMAyHC+p6U+NI5GEiOcA54PFFwLwlcY7j1qUOMc1WLEcGm0XE4l4N6UbgelVRJtOaaZeetMkvAilHGefwqmJmXjGanEgxzQBNupiZySe9NDAjqDzSZBNAFil3YqIHPemO4zimlcvoShhTty+tVgc8Y6VFcCR4ZI42KM6kBh1BPemotkl7dgUzJNcl4Q0fV9A0prDWtWfWZvPkdLiVBG6xOcqhwTnb0B9K6rdxxSaBMn8wkAfzpysDxVfcMDFAODSHJlkNg00tg8mos96B8xznpQSSk8cUo9elM/GjpigBfT/9dB6cUUlABTupoNKvrQA81GeQVFS8UwjmgCug7E5p7BR0FSYwM1GQxXcelAELCo2BJ+lSnOOmaZjPNaAQMvHNRkLgdSaskHHAzUOwg8jpSaAjIFQse2OlWtpOcVGy81LViWn0KhQGkxgbSat7BjPeoxGSM0NjZERxjrUb8RkjqAaubeOevaoCCQeK0oRi6iU9jOpKSi3Hc+e/Cfxt/t34h3HgjULBbNVklggl3Es0kZ6MOAN3avoLBr45+LHhhvDXxAt/F+nDy2eSG6JH96NgH/MetfYMEyXVvFdRfcnRZFPXIYZrszPCrD13Ti7roY4LEOtT5nuS9+KCM9adgkDNGMjHpXnXOsZtFSgAYz1owfTIp54OTQBGwAPFMxzSlScfWn4zQA3BA9qYc09iAMVC5JHAoACaj69KecBeajGOtWgFrwr41XE2oWNt4btju+0yK8ijuFPyj8TXub4PTpXJWXhaNNcuNd1CQXUztmBWXiEYx36t6HtXpYCtGhzVXv0ODGU5VLU47dSH4feELXwXoEWlxgGeX99cP13SMOn0XpXfcng1Eq4I71MAc1wTm5ScnudsIqKsidCpODVpABVNFAOTWgoH41DHrcsRjIxmpRx0pEG0cd6dUDF3YHFN2gnjoaeqk4A5qwkY6d6AGKmeaeYgMsSfr6VYRMDkVL7U76jKhGBVWX1Iq64HaoXB/wDrVTEVAcnGatoAcAdaFiGOn40KhW5jG0kEHnsKVwLKwkjGOtTxwBPc/wA6sxKAMVZSLcelN7Fco2K3Z+gyati2Oeh4q9CixqDU+0VNwTMho+cY69qrtCc1syIDzjPaoBH69fSi4amdHCuTmroTAHepxCAufSkKYpDtcgK859aB71YC/L70CMdT0xTsCQi4wB3qdBmowvYd6njRx1BFITJUwDgdDU20kdM4pY4wxFaSQNt+UfjUtlH/0/qAPHjjjHWp1KFc1CYo1XKnmmxghsGutMhlh3BIHpS7t5BzjvUckbDkc06KPn5jz6UxFreMc0wlj3+lHQjuO9JQyZDWOeB1qXPy80zBGc96KlMkkDUZINNBA+tGSaol3JAe1Sq3eoR61JnjFA15k6tnrTDyeOlRLIM8/Snkjr1FAyhqdlHqNs9nKzKrg5KnDfUGn2VpHZRqkeThQMk5Jxxz71YIVjuxyKAr7g27C9x61aYkTZNOBwM1CxxxSBuKYyYnjNMzn3pnmq3y55HUd6UMAOlAWHbsDnpUgbA+tQ5GcHik3U0xWJtxBxmnbqrZx0pS9O4FvzmHSmmQ9WNVQ+KaxbOe1CYbGgkgJyDj+tOMoz0FZ6sQSKfn3ouLlLucnipAciqPmEACnh9w4qgcS0PanZ/Gq6uDwTUm7JxSbJJOKXJBpm44zTqgCQGlBJODxTN3tSA8/WgEWPQdqUYPFM5x6mpFxgE0DaAjjFLT9vIp20dhQNIUDPSjaSM4qzGpC81Jt7j8qCSjtwMVCRx04q68fNV5BxtFAFJzgUwDk+1WyntSbOckVSYFU89KjGSKlZctzxRg+lO6AjIxUXXmrTDI5qLYBSbAZt3LhfWk2sO1TIhwacQR0qRNkGzPb8aa0fHvVsA4ppXPHaquhNXR4p8XNFGpaOkpUbomIJ6cMP15Fdl4NdrjwtpTOckWyIT7rx/St7XdHTWtPlsHYxlx8r4zgjpTdD0kaLpVvpwfzDCpBYDGSSSeK9DHVlVjCV9bWOHB0XCU10uXChA9qaBirJ5FR96809AQcDnr6UhPX1pSNv41GSM9aADPHNNJ7ig4zxTc4GKAGU0gCnHk01jTW4DG6dK80+JXxAh8CaUk0cYuL65Oy2hPAz3Zv9kd69M4I9q+dviH4dbxZ45sdOYPIscaArg7VRm+Zs9uBXqYDDU6nNOs7JI4sXXnDljT3Z6B8L/FWr+MPDx1XWLZYJDKVQouEdB3AJPQ8V6TgdutV9PsbfTbKGwtEEcNugjjUDgKtWwvI55rzJNX02OlJ9R8aEjJqyFHahBng1L0GeuKEjQWNMdRnnNWkX1qNcg1YTkUN9AJQORUpxjOaiB4qRRnipL5SaIj1qyuCeKzZIGY71JGORirNo0itiT5gO/1ptkGhscjAGaNh/irYjtxJGGHXFK1gSMrzikUkYhUemKTygSK1Ps57ik8jB6cU12CxniPBxVhYhjpVoRNkEVaWA4z3pMfUqRofTitCJDxjtVqKAYweatx2zA8DpTbHYiWNmAwKti3dRk81qW9qMKX6VqLZo3zAdKjmFynLGFycAflTWtyB83HpXWNaqByO1UZoQOcfiaOYLI51o8dOcVDt9q1pY9vAz/jVYJlsgVQrFdIN2DnrVtbYZ+b/OKkjjfIwK1BASAxPP6UrjsZyW6njvVoWmDkHNXBEN49OlaEcIzRzDMm3tgzMPf0rVWE4xjgVcihUPgDGfapGAXKCs5MpLQ//9T6XG4c9auwKZG9KopIeUYYIrTtmiIJU8+hrpiZjSxyV96eqDOSeccD0qRowWyD+FOAGfbvVgRlSDQKkIycZpoUg0EyDB6/pS7R1qTAxSgEce9KyJIwoHXrQc5x7VJtB69qXABFMCLO3FL0PNO2Dv1pSDQKRGMZzTtw6U3GOKbgk0E3JgfSjNRc96k4A/pTTHzCjPUU1+PypR7U1s5qwb0IfKjSUzAAOwALew6Cpc9femtmk7YoJFZuaQtwSe1HB57008UDW5l6Xdalc/aX1C0W18uYpAVkEnmxgD5yB93njB54rULHPFRg4GKBxyaBEwpxY/SoQcnFLkCqVgH7scmpAxOMdKg75BrD1dNce6spdKuEWCOYfaoWTJliPXa38JHX3oaKTZ0ucUbtv4009cdh/Kk/GpHcnBJ7UoJ6VGhI608DsKAsTbm+tTK+eTVYZyR+tTgACmhNE+4E/wAqkjU5yelVlyT047VZjJyBQwS1LAXmpVAqNWzx196tx7ccdcc0gkNC9CalWPHNTqmcVZjjB69KBWI0jyM4xinGLHNXY4scDpUzIMHbSbBoxWXPaqjx46VsyLkelVHjODx1piM7yjjJ70xkOD7VoBRjH/1qY6YBwM8UDRlsnOe9IqEZzzVvy2xlulBiGCwycUCKu35c8U0qTxVnaR2pVSgdmVlTuRTtg71YKNnGKTHGPfrQKxU2BTgdKXbn2qc5FNYZoAqSDGT1714/a/F/w9feP/8AhAI4ZluSzRicjEZlQZ2jua9ldcqR6ivg/wCI+iz+F/jLZ69aghGu7e6DHjO4gP8AnXpYfAKrhZ109Y9Diq4pwrxpNaM+5GAAyKhYZ6VZ689QRkfjUTfewa85I7SAhlA3Hg1EV3HIqwwyajKY6ZNICNhjFNPzVI3NMI5FAEf1pjehqRgQaQjdzVR3ArvLFCjSTusaL1ZyFA/EnFPijic/aItpLqBuGCSvbn0r5n+Per6jcXGmeFrAsizEzy7SfmIICA46jJzivobwpplxpPh3TtOuCzyQQKrsxzyefyFdeIw9WglGT31OelUhVbcVsbO3AqQKAQRVkRbqkEPPvXHY6bEKjHWp1Rhj8qmWLmrSx4GMVVwSIFhwOnFTBPSriwHaMmk8n0qGJlZVx1qxGOxFSiPAwanih9sU0BIkZcccmrcdsvBcYwelTW8HHpWnHGrYBAOKTHysu2tsdodRVt48DBGMVZtsIgwe3Snuu4c84qUyzEeDJoW26gjv1rRMRLFaf5JFO4WM7yIw2MVdjsgV9KlSHLcitKGPbjOfTmk5AV4bRFOD17GtiCyXBHBNOjjRWGRnNbcEajDAdaTdxpXK/wBkAUZHNBj2DFaxj3LkVUmRthAHNIsoORjnmqE65PFXTHIgw/XqKhkTOPXrTSMzIkhLDA9aYtoQQe3071seVn8akEW0YPOaq+gGd9nC8/p3zUqqo4HWrRQYquwqAHrgYq6uMccVmIx3bT0NaCYPGKALqvkYOOKqu+c5p465qJlySx6Gk1c0P//V+k1O8Z9anjwpPvVeA5GMYA7VOyHHHFdETM0AzA5qR3CEA9OKpxncqjknoTUjfMa0AtAg9KUYJ61EqbcZ61OMYFJiaHdDzSjv60zuSaTdg5poTRJk5xT6iySc0uaCRSOcij+dJnvmnZyKAGHGKO3vTsCkxke1BKQ0UvFA56Uu00FWQgpCcU48imsveqTE9iNiSe1NzmlbFJ1NUQHTNM4zinUnT8aAGnFLnjPelxmj6igBo4NOOO4J70KOadQA05p4HekqQA9qBoD7UoHrTtp6GpNgPAoGkMAJ5J6VOABSKmOvfpUqrk5oKDbnk1KBjHYCnquBinhD1oIbuCKPSp1XqKFWp0jJPpQUlYVI+lXIkPcf40qxHHtVuKIlgMD1yaBN3FSPJ5q0sbY46VLHHxirCx4+lJjGqm0AAVJgbakKhaXGRxUNiaKbxg5wO9R+UtWG4bFP2ZFNCM37KhOTnNNaLaMVoHg80xlDDmrAx3Xmose3FaLJnOBmq5UUXCzKjqSMU0RkY7VbaIjoc00pQPUiwPypjICOPzqwy8DFM7dKCSmyge5qNhk4qeQfhTGGBmgCEjHFeCfGPwx/aUVvqkUYLwMFJPfB3D6c178Bkc1ja3psepabcWkq5WSNhn0bHBFepltRtyoL7Ssedj4WSq/ylfSblL7TLW6QgiSFDx67RkfgavMCOQM18v8AwV8WajB4t1PwTqUheMB3gDH7jxHDAf7w619SspPSvPqU5U5uEt0d1OanFTjsyoUPfimHCKWPAHUmre30qNoUlUxyAFWHIPcGouWUGkQttUgsecZ/pUAurY3QtPNUTEEhCcE4649afLpds1zHNtKtFgLtJHA6A46iq2q2MlzF+5doZB92RAN6/QkHGaQF4rnp1FIVP3ai04XDxBbhHBTo0mMsPXAq+0YAxVQdpJilseC+NfD39pePNKlTEjfIuzHJAYE/gK9/WPHykd+3Ss77DYSait8yK13GhRWyN6qevHvW5HHxzXVjcS61TmOfCUfZQsEcQ21OIh3+lSRrjgd6nC4IrjudmhEsIJq7FGuMYqONw8hB/hq3HgnA4zQAeXgZFM2HPtV4AE0zaAaB2RCse7k1dihB5AyQKanJq5H8lBPUkRAuDV2JVJqtkN1qxHwR60myjQQ4HFWUDMcAZNUWivJWhFo8a7ZB5gkUtuj7hcEYb0PSuggtSrbv50NgNW3L4xwfSrf2UY+lXIo2PAHWrbxBEweagDMW2jH1q0ISf4fpUgXkDFaMcTbQWoGlcz0gLHkVt29vhBUC4+lacLDYB0pJlJAqAChoQ/WpM5Oae0igYFMozpbVH59KzJLQZypwK0nlycVGWHShEcpmeXg4brSOucVddFbpUbxn+H8qBcrKDK2aidDjOK0xHng9aQxZGMc0BZmOqe2atxKT/OrX2fn61MsQUZPagCqv3hUsqbRx1JqwI16gUFc1NmWf/9b6UjODk1aJUj61Qj+ZQRz71aUmuqJmSxnaatLtJ9faqg96kXr7VQF/OMU9Tn3qsGz3pfNAxnjPFS2BOelR8/WgyKAfSkRwxAFHMJoMt1pyk454zSnjpSHaRimmS1YTPanx89+BUeOevXipFBHWmIm7c0uA3FMUevSnigBNuKPTNOY8cUYJoAafrSZGPenkc4NRsapIBmBnpTSO1SdBk9qgjnhm3+S6uUba2DnafQ47+1UTyi4/CmqCeTxU+fSmUByjcEeho2806nBTmgoaP0p2zNTBfbNPwRSuJoriPGT3qRVOMgVOseTyKlC9cdKLjsQLHu5zU6Qng9hUqxZFXI48DJ6dqTYFQRHOSMU/yuM1o+VlcYzSiH/69O5Nu5RWLnd/+qpQnrVkxEHgcVIkXc0XQ9CuqFjirkUBxk1LFHir8MRLZ61ICRQZxjmtBLU4z6Vat4MdRWgIwOvShsDKSMZqwqAdOanKKGPHFNGTjbz70XGMaL0qCHzXaTdHsCsVGTncPUe1aCBienBqQjtSFrYzvJGfeneSe/WrewZzSsvGaARnvEcdjVRojnHUVrMnHNQmMnoKtMTiZYi7dah8kgkdq0jCwGT0/WmYouh6mYyEH1FRSKCuMc/lmtV0HT1qB0G2mFzGjk82JXKmMnqrDBGOKXvmrc0YP4VXKnGaBNGc8k5uo4VhzE4O6TP3Me3fNTMpNTM7bS2O3fiq0BmkiUz7Q467DkfrQJOwGPsKjePAwRkVdxxUTKG4rSjUdOamuhFWKnBwfU+YY/Cdxpfxqt9Usrdgs7PLIwHy7HUlskDFfSHl9COBVnyUzyOcYz+vWlZCMVvjsQq9aVVLcywdB0qSpt7FMoveotvNWnU5xUYXJ/rXIdFio6HtVWWOSRdkThH7EjcK09vNQhMsW7DpQCRQg+1Ids6LktgFDkY7E571ZdJVVmKgkZIGetX1VF+Z+nen7Ecc8iurBxjKtGMtrmOJbjSlJHwn8P8AWPEfiD47zXYuJFjNzOjIWOzyIjjbt6YwCa+7o4yRXyj4B0T+xfjFcoUx5st1tPY7xnP6mvr+JBgd61zOMI4mUYKyM8DJyoqUtWQxxg8jp3NTgbeB3qyIz6Yp4j4xjvXAdligYFJz0NWbeEKeTnFT+WD0FTLHigT0FI9KbjuasbehHHrSFRQK7IBwaso2eowfzpgjPXtVmKMj7ooGidIyelXYo8duaRE28da0IYh1/nUMo07CPox7it6OIcZ6VjWrBMKe/atuFwTSGizgKOOKhLE9anJBXBquTg+1TcsmhA3ZxzV5sACswTAGla4LAYz7007isWy4HWpVmAHNZe/PenhyflHFFhmwsw69h2pkkm4dapIxyBTud+ccYpgPLYNOB5qNuOacAaAJcCkUYNL2pDng0kwFwOe9MxjJoLZ4/WkDAHFMBwGR9aVB/e709Dnnioy4GSaGA9iB1qBpQQQeMdKjaUDk1SlnAyf0qLsD/9f6PX5UVRxUwYmqiZY4q0uB+NbxZElqTDcOtTKcAHpUJI4x2p3uK0uIsDg801jzUW8k4NBaoAkz2qaLg8VWXJ+lOoAt7iBTh7c+lVQRnnpT/M2nI60EyJqmHIB65qpv/Wplb5c1SYrFkcgf/qpcYqMNmjcR71QiQEdKeOBmoN2ORUgPFACnJOTTCAKCwH+FIORk8e1ADMsP/r1CkccO7yo1Te25tqgbmPUnHU+9WeO9BAwQOc0AQA4Oak6jPWn4HPFGB6EU7sBABUygenSmLGc5FWo1JBFPmARVzyan2g9qAvGcU+MHc27OO1DYDtp7c5qQRgDpUip6VMkRPWkmAsUeBx0q7HEvU9qWOL5auxpgcD3pAN25qJkxnvV/yz6UwxdaBNXKHlkj0pyx4q3sNOCHOTQCQxY+9aNqmxlJ71HEqgYP61pQbc5xzQMvKm3jr6VMBTUbvUnWgCBkBqNUbdmrhQZ9c0IvrQBGq0MuKsBeeKay9c0AQbaVY8804dKkQO3AAz0oAYIxmmPGF/HNYXjjXJvCXhPVfEkMX2iTTbOW5WLON7RrkD6etfLn7N/x98TfE7Xb7w34pSGSVbZ763nhXZtUMAYyBkEDPB61vLDVFT9s17vczVWDlyJ6n1w0Y6mqroAAT171ouuRiojGSMVgaFBowF3CqxjOM9q2DFx71TlTYM/WtUruyJlZK7MmWLcOB0qmITk4ri9B+JGn6z4lm8OPD5EnmPHA5bO8x9QR2NelGHK8DHeiUWnZgpJq6MKeJiuxe/XPpTFgEQwv/wCoelbJizUckWMd6laBZGSVYcdefyppUqevWtMx/LgCo2jC5zTDlM8A0VaaPH0ppT86BWZUZA3PSovL/WtDys/hS+Tg5HNJsd2Zvk5PFIIWBwRWoIWJ+UZFWRanHPWlzBqZKxAHOKnaDcOa0/soGDzipDGMgU4TcZKSFKHMrM8nPga7PjmLxKsiJaxruKj/AFhkxgjHQg+ua9Oig249BV0w45pRGegrWvXdWbmyaNJU4ciISoFG0gZFWQmDjGad5eayualZBkZPGKsIuRTzEV5x1qdV29sZ60NiSISg6GmbB0q6Yy1IIj2FLmCw2OAsMngVbSLB4FSRR447VdijBOfxpXGMiiycmryJ60u0AcDFSr6UgJYyF+bvWjE4IyOKxjL5X+s7nrVpJl4Iwc84oGbPmArUTTN2qESAqD2pucn6Vmxq4pc+tN80jr+dITioGyatbFFsPkZBz2qVX2ketUFYq3tVtTuHHNMVy4r5OatK2ce1UUQ9TVyJe5oGTkZpxBpyqCuaD04qGwGFsCmb8jFMJzkVA7YIyelCAmLleag80g579qgabA5qo1xyasDajmO0g1G77htPQ9RWcLjI44pxlYj6VL1EiR5OOtUJplGc802SXI/wqjK6qfm79qVhn//Q+jUGOc81OOeahBGfUe1PJIx0wa3WxDHg+lSKw6HjtUI5FHLD8KYibvxT8jrUCkgYP50m8g4NAEu/mpAeeOtVyRnjmnBu9AE+fSlGSetQljigEkdaBNE4OWwT0qzHnGOlUk61ZR+cCmnqJIuLxyaUkk1GGGAaNwPINWSOyKep7VATnvilUkjNAEzuB170xcnjNRnnvTlOKAJsgcUcA00DPNKOT0oAlFSBai/Cpg3AFAD1HFWoxxgDv1qvGOg6etaEarjPrQAqAEYqdYhj3oVQB7VaVGOB+VA0iEQ5HHrg1PDE475q0q4AHep40GQTQHKwjTaPr2q+sajBFPjiHXFaCwg49hQDVjOKk+tL5fByea0vKzjIxTTFQIoCPHWjYAc1om3wM5qs0bA0AVcfMDU6Eg5pNpBxjmplCgEGhgi1DMSwXFXyCTVCEhW96vjqCfyoAni3E9MmnsjbgO5p0TgHp0qwWHpSAjCdOKY6Hmp92SF96eRkc0wM4R4FWYlA59am27l5HNKiYoA4T4o2D6j8PPEVlASJJdNulXHXPln1r4B/Y6sGsviFclxjfo8ig47h1zX6V6rbLeadc2jjImieM++9SP618D/s62i6b8VGtCAo+z3tt9SjZ/pX0tSfNlCXZnjQVse/Q++kjzQbdQc85qzx2ppUmvmj2Sq0eBzVR0BByK1GU49jVfySc56CrpzcJKUdyKkFOLjLY8e0/wCFelWHjuXxws8juyERWpAEcUjDDOD3Jr00xKMDpxgVwc/xV8GW3jgfD+a6KaoxVeR+7EjjKoW6biOgr1D7OWIG3kHFaV6s6lRznuyKNONOCjDYyRAD0FONqjDpg+leCfF348QfCrxLpuh/2cL/AM+L7TdnzNrRwlto2+rHrzX0d4du7DxPoll4g0o77S/hSeIng7WGefcd6ipSnB2mrGsHGaumYU9oVX5R+FVWttwGecV3txYYQnaeK5i2msdQEn9n3EVx5TbJDE4ba3o2OhqE7DtYwmg53HoKaLc56V1T2W1cgVl3UlrZKXuJUiQfxOwUfmTRdiMjyGLdOepqyLYBQ3c1Laz2F3J/odzFN2xHIrkfka2I4dzBVHfniiwzOSzAUf0qwtoveuhS0TaCwz/WopYQpO0UgMRoOMEYqo1uFbcM8Vv+U5BKjio2tiTgjr/SgDBZSeO1KiMTjoK03g2nDCnrAAaAKHkVOsAIzirwiyPu9alEB6igDPEQ7U/yh35q6seee9QXtxaWNtLd3kixQwoZJHc4CqvJJPpQAzYAOO9KUArg/D3xX+G3iS6a10jxDY3Eytt2GTYSf9ncBkfSvRkVJQGRldT0ZTkH8RQFyONDnOOKuDC9BShMjFIBk4oAG3A5/SnoQcA08Dn6U9IxuzQAhQOuGFIIxxx909RVvYMcdab09qT2AUMAORT1bPIqDB/KpVIA54qDRD2UsKjCnHJ57e9TgAjA5qRUA+lAECx8ZNWoUwM1ZjiHFWEgJP0oFYRIyx4FXUQDAA5p4GKa2Qfei4yQrjp3pGXiowzZw1TBlI5oApMoFZkrHJ9a07iRIlJPXHArnHmZnL9s5poAlY7sdqqlsH6VKzcE+nNVHOcHpVkMsLIB060Cbcfp61Q8wjG3v1qWJuee9BSLf3sj86oy7SMkdOKu5wMeoqoY93egZ//R+h1PNWH5Ix2qEQ7ivJAUg8H07H29amOScHpWyZNtQ3noKfnHb3qIEDIoRmYsCpAXGCehz6VQMkLU0nHNL7U4pxjpQSRhjxnvTge+c0u2k6fhSuBIrZ5pc9+tMByOaeDzTAljPX1qYdcioUxgZqUYJAoAmRiPfNPJAHPSo87Rn3pSc9KrcjVji3PHSlWQAYqLqvFKBxnNVYfKSDLHgjPWnB13lCQOO9NXPp261JhJOHAI9DQKzJ04FScdqrEyhl2gFSfmJPQewqz0oBqwhbmnqeeaqHrU8ZwOtAi9GQCBVxdp61loTkYq2j546Y/lQBrR7TjNX0wTxWQj56Cr0Uhz0oNDTUZq3GvNUI375q3HIR70AakQyMVoRjArKhk4rQjlUnBOM0r6gWaQgU3f6U/OKNHqTISmnpQWJJ9qY2eKTYJEIQhs/pUwQn60qDvVpVxye9NEshih5zirXlniniM7cjmpVGaZSiRplSO+KmU5NNwfrSq20/TmgbWhZjAz64qwV46VEp6E9farK4ZflGfrQLlIMYNOzx70/b2pm0nkUrBykMibhkdQc818LeC7caJ8eBEQEzqdzFjoP3wY8Cvu1kfbziviLxbbS6J8Y/7Q2bQNStpwR3DkA/zr38O+bLqkezPGre7j4N9T7cCdqlEZ9KnhQElhz6VaWPaQ1eA2e1ZFEwA49qTyMmtTyge1OWEYNVSqcs02RUheLSPyk/aGsdQ8JfGy61qElTM1pqMBz/zywrfqK/T/AEOdNc0my1aH7l5bQzjH/TRA386+Qv2vfC6Tnw9ryICT59nIQOSCA68+2K+oPgPcrqfwn8N3BbdstfJPsYWK4/Cvdz+MVWhVjtJJnlZRJypypy6M+MP2zPAf2TUdC8bwZ/0oNptwvUZX542+vUGvbv2PvGkOveCX8GXxH23QifIBPzPaueD/AMBbg12/7UXhn+3vhTfmNNz2U0Fygx0Ktg/oa+Dfg94pv/AnjC11rT8Ga3JjniPSWF/vqfqOnoa9HOMPLE4Oniqa1S1OLL8VGhip4ab3Z+qHjq9h0TwpqupP8qwWsr56HIU4/WvzN+FHi6+8MeNLO9Zz9jupxDeR5wrRytjJHTKkgg19RfHf4zaHqPw6ksNG877RqJjWRHTHloDlhnv0wMda+WtO8Ca1Y+HbXxBcI0aasst1a54KiLAGPr1FOOVw/srmkvf3OaWZz/tPli/d2P0yubMBAV5UjIx3Br8m/jTr3iXXPifrGnTTTNb2Vz5EEW5ljRAF5IGBznqa/WfwXejxD4N0fVm5a5soWf8A3wu1v/HhXwH+0HosemfFW8cRqE1WyhlZiMFnUlSfrwM1z5CqCoVKlSN5I7M49q6sKcJWTOZ0f4N/E7RoItSt4HVSqSh7SclgGGQcA5r1Pwr8UvE/hTUItO8YCS6td2yQyjbPHnjIPG7Hoe1fYnheyjHhrS5JBk/YrfLHvhAM5r5d+P8AqGh3t9a2VgiPcWpbzZQO542cdT3qeTDY+EnTjyySuZ8+JwVSKqS5os+qLJ4L+1iu7N1lhmRXR1OQyt0NStZrnawrD+E2nX1r8OtFg1FDHP5Gdp6qhOVz+Feim0Gc18vfufTbnIC0ALZHGK+IPj14j8S6B8Qbe80S9nt4rSGMoEY+WJMkkMvQ7hjrX6CXNsM71XAr448e+Hbfxb46utJuuIZ7uKDcOD9zj8jX0OTYSjXhNVfkeFm+Lq0JxdP5npXwy8c2fxE8OpqKosd7BiK8h/uSf3h/st1FekCyVcnG6vin4e3F/wDC/wAdtZaiGSDzzZXydjGT8kuPYkH8TX3ulqXAZeVPcfpXj4qhKjVdOXQ9TD1lWpqpHqYf2bAHFfN/iz9oLTPB/wASV8B6ppbi3Rokmvt+Npm+6VTHK+pr60hsc8H8a+Nf2qvhZ/akFp8QrCImfTAIL0L1a1Y8Px3jb9K7cBgoYmnPX3lqjmxmKlQnG6917n1GsQZBIh3KwDAjoVIyD+Irn/EWhWniLR73Q77cIL6B4JChw21xjIPrXPfBLxJ/wknge2triQPe6YFt5c9WTHyP9COM1J8bNY8QeE/hnr3iHwuoGo2Vv5iMRu2Ln5nx3Kjmscu9osRH2UbyXQ3xag6L53ZPqfFrfsf+MdH1ZbvRtWsb61V8xiUNDMEB+UN1GcdSO9fQfgzwh8S9C8R2RnKQabHhbhTMJUdMdAvrz17Vzv7MHxp1z4ixX/hzxdOlzqFmizwXRAR5o24ZSBgEr1z6V9amE4JxzXVmOYQrtqVNRkcuCwE6T5lUuioQCSBSrFkk1OsW48dasmEoOB+Arxmz1OUrRRHHI61bWAHpViNMLyOacPQUNXKK7Jx0qu4xg1o44zVV1DNjpUvQXKin1OKsRxbuTTFAJwOtX4kYgAChK4xqRAZAq3FEMgkcU9Yh1NWUFDAz760u5jFLZ3TW7QvvK8GOUYwVkB/h+nOa2YxG8eYznscc8jtTFRZCEboa0VjCoqnBIHXGKlspK5USP5gD0qwYF9KnVADxVjywRSTHymNJHg1ADj/PpWrNGG+U1kzgRjPpzVEGRqEgK7VOc1kYzV+5w3J71Qq4gRuT+lVXyw+lXTkj/PeoXQZwelMloz8YNTIwH8uaY3HHWk3c+39aSY0y7uzx+tLwOAOlQrKhwMjNOeREGWOKnqM//9L6RRcduDQ4yKnKgLgdKZsLVogIFHORU6j+71p4iOOmalSIhsAVSYmiuYyDTj1yatvGQMnj1/CoSvNJktEGV6ConXcNp6GrWwZ6ZxQF56daQiELhcenFPUU7aaUccd6u4AuO9PHJz6UbSRT0BBOaEwH4IHP1pwGaZjsanRR1zgUwG4G7FLtBI7U/wBhS7QR05ppgIRmkXcacAcZNSLVlOxIn9Kc2ACevtTQcc0MQRQQyHqfrUq+n86gB55/+vU+PSgEiZeDyasBgeBVZfzqdBk0B5F6FzjkVcXAHpmqSKR15q0vWgZoKcgZq4prNj4FWUds4oA1I3Yd6uxuMVkqcdKmSTBzQBr+dgYHFOWcsTk84rM809alRzxmiwmzT8w5qQyewrPD980vmE/hU8oJmkj5PpVxMYrKibJHNacbZAHT2poLF2P5lwO1PROcVDG2M4qeNsnmmMl24FQbOtWsjB5qDIHWgTJo+mPSraHYPWqKPyc1aB4oBDwd3Tv60oOfzqKnpnI96TGSudy7cYxXyX8aLA2/iZb+MHLQxTZ/2oz2/KvrlU4x1Oa8H+NWmBo9PvMH7ssRz7817GWS5qVSn5HjZimqtOfme66URdWFrdL0ngikz/vKDWwY1A4rhvhvf/2h4H0a5bki2WNv96P5f6V3O4dD1rxD2R6p3FSBRnbj8ajTPbmplzmqW1wPmz9pzT/tfg6wkCbjBfoenQMCDXTfswSu3wstreQ5NtfXcQ+m4H+tWfjvZtd+BnYDPk3EMh9huxmsf9mSUjwpqtnnPkao7D6OgIr6DN3zYajLyPCypuOIqx8z2j4gaamreDtXsnXcJLWTj3UZB/AivkX4GfDTwz4ofxNpGv2u6Vfs1xDMnE0XUEq3OBntX3DfQC5s7i3Iz5sTp/30pFfNXwYT+yviJqNiRhbmwbb6ZicVvSzGrSy+Dp9Gc9XL6dbHSU+qLd7+y14Z1e7tn1fVLu4tLdw/kAKu4D+FmHOD0rq/i94ZsofDulpZwrFBYSi3jVB9yJ02gD2GBXvu4YrjPiJai78I3yAAmNVkB9CjA1ODzWtia/LU2tYrG5ZSw2H5qe97nD/BFmbwOunOdzafdTQc9QpO5f515R+0l4PGoXei6zGuX2T2pPvw6/yr0n4JSNHJr1gzZUSw3CDPZgVP611vxU0f+0fDDzKu6SzmjnU4yQAcN+BB5rHJqihXnQls7mubQc6MK0d1Znxtp/xt8Ry+HLPwvEFgW1Q2sk4OZW2kgAelYCWUV9fQ6lcCSZ4JFlwckFgc/MO9fVfwX8JeG1sdZt7rTLaWX7cJi0sYfPmAnjcDj1r3iLR9Jt4vKt7KCNfRYlA/lXbHG4GjF4endX0POlgsdVkq9SztseN/D74nweIZ49F1SNLe7KhYWj4jfH8OP4TivaQh7182fErwZD4f1e08QaGht0uJcSqn3UmHKsB2z3r6C8Mar/buhWuoP/rXTbKPSReGr5zG4ZUalk7p7H0eCxXtqd2rNblmZfkb9K/OjXfijpHh34wTnUQ72tlqha4eL5mVVAAwONxHcZr9HdReO2s5riQ4SKN3YnjgDPWvy58J/CeH41ePNUcXzWDEXFzLcIvmhiXOzIJHHavosnwinhJSlLl13PDzbEOOKikr2Wx7h4/u/BnjGaz8XeFr6G883FvdxINsu0jKMyEZBXof/rV7/wDC3xVZarpNtoV7Nt1S1jK+W/3pYk6OpP3sDr3FfPfh39mbxv4Wu3mtNTs7lBwpy0eV9wR1/lXafD7So9A8dx3OuHfdQu1tz92Fm4DA+nv6VhneHTiqt7taF5LivfdJqyZ9TtbqoJFYeraTa6pZT2F4gkguY2ilU9CrDBFdJNkD0rPYeteHgcS6FaNRHu4ugqtKUGfFXgGCb4aePrjw9cEi3Exs2LZAMMhzA59SOlfVOs6XBq+m3OmXqCSC5ieGVCOGRxgivEvjXoy22rWGvQgK08bQyMBj5ozuQn1Ir2jw9qC6zoFhqJ6zwIW/3gMH9a9WpL6pj41obPU83D/7Rg3SlutD8pfC+uWfwG+KrwajDN5GjXk0FwYsF3tX+6QOjfKRX3XoH7RHwl8SKostaEMjD/V3MMkRBPbO0r+teIftHfBy21/xtDr9nN9lk1G02zfLlXlg4B6jBK4H4UeCP2ULy2isPEGleIYpVkVZfLnt2A56r8rEEdu1epmWT0Kk3XjVSvrY4MFmdanBUnBu2lz7I8P67o3ia1N7o1wtzCpKlgCCCCRyDg9uK6Ex7OD0rhPh98Ob3wZcXcs94kkVz8whjUhFbv17egr07ylbINfIVI8knE+nhLmipGYi05oVzkHDVLaZm8z5R8rkAg9vf3q55ODkj6VLkUZvkMR8pzUcluw9q2hGFG6q0uA4BpNgZsFrxlh+lX1jCjikJxwKiaUjpQtwJvlHWnIy5wKplmYUqhiM+n60gNGP7+fStMMCBk/nWPbdORWircVLRoXUxkVZDAc1mLKQcU9psDk1I07BdTxpyTg1zF7fRv8AIXALdOQCSPSp9Rl3MAp+tcXrFgmo25i3mJ1JKSoBvRvVT2/rWqRm3c03kz15qFSc1zgudStY4obtTOdyqZo++TgFl9u5HArailXnPU9qpCLhPrVZnz14xVjnHrmqM+M89aYFdnzzios801sgHBqMsaSVhWsSEkc1XeQ45OcUu8/SoJCCCPek32Gj/9P6gijJ5PSlkQggBevJPTFaEcRXrwKkeJG+YY+lXcuyKMKbck1bUZYYGKmWFSeBQi/P0pisQPC2cAc/SoJLfGW7itcrkc9fWqroSc/yqbsmSMwRk5yKYsfJzxV8jB5FNKZp8yIsU2UdBTRESateWeq84pyrzgjFO6BojKgAgcVEFY9Afwq6Uz1pUjYDA6UJiKqpjrU4Hap9gxTSoqlICPHal4FOxSnpVAIOlGR3pvc80dOfSq5gHZ9eKZITsIFL3pr8DFCY7FfPP0q0hGOKrKpzVpMYqhA1xFCDu655A5q9CwPzLznpVDykZ9xHPrVuMYPXFDFY14wNuaI5NzNhSAOhPeq4mC4Q55/KpUYkgjtSQy6r8cfnVhXAHzcAVWV+2OO1NkSOdDG4yCfWnYDWQ8ZHeng85rh5o9d01zPY3BvIAcmGfG9R32tx+RpdK8Z6dfTm0ud1pP0Cy8ZOe3PFNpoV0d3kEVIrMO9UllXGQc05rhI1LuwVV5JPApA2aSyetOBZnV9xAXPAx82fWqSyBxkHI9qmWTH1oEjVjbBBrSikB781hJIp79KtRy7frQUbwcAHFKj46nArOScMPf0qUOc/TrSuBobz2oDMx5/Oqu7POaekhB9aYGig4HapxwMVURyMVcGDQA9QDwPWrkcatj1qgSc8Vat3K8GpkBoquBXlvxdtDc+G0kHJgmRvoG4NenBnb396+dP2hPHOo+FbDTLCGJPI1F5PMkbnBiwQoHvmvXyWnKdZqK6HkZxNRpJt9Ts/gdeLN4QmsGOXsb+eLGeiud4/PPFezhVZsDrX5cWnxA1WN2j0u4uYjcOHdLQP8zdMnGcnHFdXbeJ/HxYT266w23qdkhH8q1qcP4q7cUZRz7C2SbP0iRAp9ashRivgnRviZ4xiWeC5v7uGRIWZPNUhiyj/AGhX0J8CviJq/j/RdQfWkYzWNwEWYx+WJY2GR7Eg8HFebicDWw+tVWPSw2No1/4bud78RdHk1zwdqenw/wCsaEsnGclea8U/ZldYF8QWwztaaKTHoy5U19QvFvjZWGQQQR6g1ieHPCWheF45k0a1SA3Dl5SOSzE55P8ASujEYyE8HCl9pM58PhZwxc6nRnX4BHPINfOPhTTLvS/jVcxDJijjmOP+mco4P519HLkAZqmul6eNSOriBBeGIQmXHzbAc4zWMMVH6rKi97m08PL61GstrGwPzqhrcK3ej3lqefNgkX81NWA+OlNYhgQfpUYGpyVoyZeOhz0ZJHgXwikWDxTeQbuZrIcd8owr6FvoI7u0mtZQCkyMhB9CK8T8M+CtV0r4jX2tkBNNEJEBHBZpM5XHtmvajIT1rWtU9li5Sj3MadL2uFUH2PHfCM6+HPEp0m6+Vr4GBc95IuV/MV7Ur549a43UvC2n6nrdhrsjvHPYPvUJ0cjpn6VyOq+NNUg+INhoEDRxWBP78vjLAgnOT0rKvS5pynDVbmtGoo04wqaPY2/ifHG/haffjIliZT6Hdj86h+FE5k0a9iPSK6OP+BKM1yXxU8RQNDDpVvKrBW82bHPK/dGa634VWE9h4ZFxcArJfStPg8EKeB+ddOOi/YU+bc5MDZ16nLscz+0T48t/A3w11KTzAL3Ul+xWi5+YvLwSB/srk/hXiH7Globldf1oDMcYitVYdCT8xFej/tIfBfXPizY6TceG7iFL7S5JF8m4cpFJFNjcQecOpH4jNej/AAU+GEfwo8C2vhxpVub2RmuLydRgNNJ1A9l7V34+dOll1OhB3b1MMLQnPHSrSWi0PWwgIIrxD4i6EtrqcWuwDalyBFNjtIv3T+I/lXtpfA9aw9c06PV9OmsZOBIvB9GH3T+Bry8DV5r0Z7M7MdR5bVoLVFDw5rH9raLBcyHMoBjlz13pwT+IxWf4g8UWHh+7022v1YLqU/kLKMbUbH8XtXAfDC+1NNQ1zQ9UhaKWzmXt8h7Ag+pFdb428PJ4o0ObTw2y5T97bSf3Jl6fgehrPD4X2lR0r6m1fE8lNVWtDzP456hbLYababhv85pTjqFVTzXVfDBZB4H00zcFldh/uljivmldF8c+J9Wj8P6taXKzI3lNLICUijU4yGPGD255r7B0TT4tK0m10yJSqWsYiG7GTt78ep5r0M393kp9Ujgym8uep0bPM/i9YmTSbK8UZMF0Mn/ZcYNdN8M9TtU8GwtdzJELR5Y2Z2wAFOQTntzVjxxpN5rvhi+06wP+ktGWgU9DKvKjPua+HNL0P4q6vftpcem3pZWxJ5qFEQjgkk4XiuuWAliqEKsXZJanJHHLC1p03F6s+6Lr4meEYbtbJLprh2OMwoWUY688A/hXb28sFxbpcQkOkgDIw6EHpXzj4U+DmqRRq/ifUlkY4JhhGSmPR+mfpX0Tp1pb6dZQ2Ntny4FCrnk4HrXhYqjGlPljK57uEryqw5pxsUdGtLu2utRaeRHinmEkShcMnGGBPetogHtxWdYi6S9uhM6tESGjAGCueoNaLsAcD8647s6GivI3OBxWNI2ZPmGMVqyY5NY0n3jViJ94xheahdSTuHFMBxT2kBPHFNMBqM2CWGK1YgCgzzkdazNwJqQSlRim9RrzNP5VAweBTDPjjPH0rM885z1pDPxzjFSBp+cDwDzUE1ztOB25Oazmm2ncD/WqrzHtzQIW6udzn264rHllycnip5HyT71mzZyaqICNJyOKerjA7GqjOO/fpRv7iqA0vMKjOenNU5ZQ5yKh8xieenrUJfDEjvSbAlb7uTzUBOOO/el3knrTGbuTSbAYWx9arSy/Kcc05n3dKqPwCc1IH//U+ymtdw+XtTBakc1qlOMetIEyeaSZq0ZrRY6D8KZ5ZBzitBkOSTUZTjrVqRN+5T/3u9IEUndjpVkoFGBQsfOKGxMoPDuYkcYrJnnMN1HaiNmMnfHAA966nZjj0qlJGpO7vSTVjNooBCKQRkSdvQ1b2jrQAgB6detCHboV9nOPenEDp0p4wTwad25qkgSsRBGB9RSOFUVKxA6H8ars2eaY2MJpjHNPJwCagzzVJkWFZgtNEoIyQevSmuw9KQYHbGBVCJI5C7HKlQMYz3okfJwDmmBsVEQNxI49aBom3IOpxUkUqSJvjbcuSM/TrVEkn86eH2tmtA3LoYk8VBe6ja6XbSX16/lwwqXdj0CgZNOD45qOdYLhClwokTurDcD9QeDQCt1NGKcSRpNHyHUMDjHDDI4+lXIZTnrxWQkwJCjjAyB61YjdWPB6elAjaSQHODkg804+1ZCzmLO4ZGe1X1lzznIpXAvJ0IJzn1rG1Dw/pWozLcTwjzl4Ei8MB9a0VkLfh3p+4irUmlYlx6lGxtbrT1KJIXj7A9B+BrD8Y3WpjSvJtYpG8xsO8fVV69OvNdbvyOtNZQww3StKDhGV5owrKbjaLPG9E1zXNKTa0kxUHgOM/hg9a9j0TxFbavHtBKzKPmUjGKqTabbyNuC7T6iqosntWMsG3P055q6sIPWBFKU1pM7ZZDxirMcpPXqK5m0vJQAs3XpWtFKH+6RXMdKkbqyhQCKsxytjgmsJZDnI7dqvQyZ9R2oHzG4rEqKsKx6Cs6JicAVfjb26UkUacZGOoqcNtGMVRU44qcE4zQ2BZDA8elW4Rzk1QjVs+/6VeiBBFS3cDUjIIx+HNZeraNpOtRC31a0hvIlO4JMiuAfUZ6VYGegNSLknNb4fFVaLvSdmY1sPTqq1RXMuy8PaNYKEsbG3gVeAI4lXA/KtyK3iQ/u1C/QY5NEQOc/pVxMDpWrzHEt3c2ZLAYdK3Ihp0vT5QGmt4pCO7IrfzFW7O0trZfItYkhj5O2NQq5PU4HFCyZ4AxU0TYbJrCviq1VJVJXRtRwtKk7042Liqdu3+dSooXjvUYkUCqGo6mmnWpu5PuKyg/Q1ynSa4z3pahjlEiLKOjqGH41KDmgGLTGfHShm7CoRjqavmMyUMMZxRvxz1qvv5pWz1FF76lJW2LAkzxXkPxH8B6n4gmj1jw7JHHfxxmIpKdqOD0Oex9c160i9DUp4GK7cHjFRbUldM4cZg3XtZ2aPmPwl8IPFd1qH2nxlNFDbIwLRQvveXHbd6V9RRRxwokUShI41Cqo6ADgCmAnH0qQECoxmKdeXM9jXB4SNCHKtWWkyTmrG75cVRDnjBqfzRjpXHc6yRsKOe9ZAubmS4nheHyo4yojk3A+bkZJx1G08HNSyXBJ2k4qk82DVRbi7kys1Zjm2qWcKN7Y3EAZOPfrVVsEnNNkkJP1qEtjOOavnd+a+pHKmuXoK+Bzyfxqu8mV2j8aGf+6evrVUvn2puTk+aTHCmoq0VoTBsHmrCvkYBOAOhNUMnNS5IBxVe2mo8qegnRg3zW1LCzfvMYPPAq8G4GDislSQRzx1q4j5GP1rIq5LCqJcyTjq6hSe3HTipGk3NkcZqkBiTf3AI/CnhiRz+lJWKTJJGrPmHOathgxwKicZyOKd9CWUahMgHXtVhyFH0615P43+LvgLwPL9l1vU4xdkZFtD+9mx7qvTrxnrVRhKTtFXJc4xV5M9QEp4xTGlO7nNfLY/al8HvcGO2sL2SNTyzBV49QM12Oh/HjwRrMyQzSy2Ej8f6SuF/wC+hVzoVIfFGxMa9OekZHtzynPy8cVGJW781nw30N3CtzbSLLE4yrodysPUEUjyEHg4zWbRZob88etQ7gBnB5PQ9arCQkZHOOKcXOMk5x60gFkcDnisqVhkkd6nkY9BVY9MGqQEBDH5iM4NL70/gDFROCBkdKXMwHluKrFt2T9RTJ2kEZMRHmY+Xd0z7+1QgtgbuvGcevehsCQE7zzjH604lgMZpoTDc/pUoU9yT70gItpx71Ufg4rQJwPeqT89aAP/1fuIbemeacNoz6097fAGOppfL2rknn1qV5HQV5EzyKrPwB3q4w55qBkOOO1UQ0QhMkE1PhU+akVWAGaSQjGBSZJWlbDfIeKpMDnJ5qxOp2/IRuPFVVVwAHOSB1H+FCQkrld2KkqfXNGOMjNEgO7PTPSlAIBz3pk2IzweaezgcU0ioHb0pp2AkMo6H9KgZ+vP4U33HeoHY4q1qJ36EjSds9ag8wg4HNN61GTzTsS7kpYk5zTqiVhnFSVYhQKjdx069qlPTiqp5Jx1oGG45pwY5yenamDpR/SnzCJxJ2J+lIX6/pUGF3bu9O3A9TVXAeh5JNTxFU+5x3PvVTdjr3pyNzmmBqZyOufarMbgLtJxxWUknPvU6T/NzQBrJIR0qwsue9Y32hQeTj3qVWOdy9qTuBsA+hqQODVFZgR6GpI5N2aSkKxbD5NSjGM1msxHSo2vHDCJPvEdfaqTJcTTOKej7Gz3qok3AB5PSrIYDFNsRfgm5Ct17VpQuc1hIwLZ71fik+XI60ho6CCTB74rUimDdTXOxy5AxVyOQhhnp3pWKR0qOMdauRFSBWFHMSeP1q+jnGRUMZuR7cYqxH0rNgkDcfnWvF0B7UDQoAA9KeCaCvfNLjGKBE8ZNWN2KqqxH0p3mA81Mi0Xlc4xVhSRjNZqSdcc4q0kmT160rgmaAbiq9/bpfWctqwBEqFTnkZ7frSo2RmpA/tSGWLXdHBHHIQWRFBI6ZAqyZB3PJqgHOCKb5mSM9aALLyfOAM885p2aro2TU+7igBOSQAKnVcg1ADip42Dccg9aAJVAAp2QBUDPt4qu82RigC55gAx2qGSfb9081mTXkUQUSsEDnC7iBk+gz1P0qN5uCqmnYXMawuDtzVe6v5EjQooOWG7nG1e5rO8xmGa8M+Pfj6Twd4TEVlJ5V5qLGFH7ogGXP5d668Fg54mp7OG5zYvGQw9N1JntY8QaRcXhs4r2B7jP+qWRS//AHznNaIJY881+YV74M8br4OtPiQnmpbyvvEkbss8a5wspxyFJHB/Ovsf4DfE+48feHpLPW2U6zpZVLhhgedGeElx2J6N71rmGXVcLJc+z6mGCx9PEq8N+x7s3XmoGfOADXJfEDxFP4W8K6hrlsiyS2se5VbpknHPtXH/AAl+IT/ELRp7m7iWG9spRFOqZCMGGVZQeRnpiuaVKcYqclozqjUjKTinqj1Rn7DtUXzcccd60Rb7lBNNeADkcVk2bIphcnpUoG4AelWAi8L+tLtAPSjmGQbCOtTIOcdqeyjbxUOTnpS5iWhs08ULxpIcGVtqcdT1qQHuO9NeESbWcZ28ipPlA5oSuUhmAvIqOQnHy96lYjbVaV1AqriZzHivUZtL0DUb+3P722tZplyO8aFv6V+T3wh+Huu/Gnxhe3WrXxghjBvL24PzzSmRuFTP179BX6GfH/x4fAXw01fXY7cXUrotrHGxIUm5PlDJHOBnNfGP7KPiBtM8TT2h+cX1o8O0D/lrGQ6j8QCPyr7DAylhsAqlKHvyZ8zi4Rr4z2dV+6kfXdh8DPhlpdslqmk/aSMZluJGaRiB1OMD+lZWs/A3wddxO2mLNYSEcbH3p+Tdq8h+GP7RWv8AiD4gt4Z8XRW8Fvf3M1vbbE8t7eaMsERsn5g2MHPIOK+wnlUjrXnPN8QpOGIV+6aOh5Ph3HnoaP1PkfSdb8T/AAg8QppWpO8+mS/Ns5KSR5wXj9GXuK+t7W9t7+0ivbaQPFOiyIwOQVboa8T+M2mxXnhCe8AzPYus8RxyBnDj6EVH8Ftemv8Awk9lK25tPnMaZ5/dv8wH4VzZjhoQ5atP4ZG+XYmc06VX4onvKSKowvGDwKcZc81irckH61MbkD1ryT1C+X7VGcEVEsinvj1pGlUHANADiuSMUpw3HpUQk4yOc0b+c9M0XAV1yCOoqAxYbPX2qTeAcnkilVlY9aAHr0wRTTkjgc04uFNV5JSFO38aAGSEjr1qnJKApPWnuzP164xVOZ0QYPftQM//1vvx4CeTyR0ppiBXaRyK2pItwwKrLAuPm5rFM6WjOS2D/L2+lQ3EKxDA9a2wgA44xVS4Qt2FXcVjn2U7cc1XdT3reMIxxzVOSNQelIhowXVs8g1ERWtJGx6DiqzRhjVJkWsZbLu4HPNNZCKviA7sinmBiOh+vaqHcydhxiq7Qvnitv7Lu4xiojbsBj0p2BoxChFRPGWIwK3ntN2MdahNqR1FNNkGM0QwRUBizz0rZeE1XMWOTxV3CxlBPmqXZxgVcaLIyBUez0obF0KjkjtVY9atS7g2DVYg5qyCJnKdjg+lPpwXmjaM0ANpD0petFADB19akHFMwc9adg9KaAmB/WnDFeeeJ/iZ4Q8IahBpmuXnk3E67wiqXKpnG5sfdXPQ967awv7PU7SK+sJUnt51DJIhypBq7PqFzRXGCCOvNWBJjGetVw3Gc0oOTigC9G57VYWUgc1n5KjIqTJoAttITUQxv39z3qHzNpxWHr/iXT/Dti97eMOB8kYPzOfQCmot6IiUklqdUHbrnFTRyvu61y/hvxFa+I9MTUbZSgLMhU84Zeoz3rokbJ4qbCNFG5wavQyYFZcZwc1ZViOaZVuxtRyYq0kp65rIjfcOOD61ejYjk84pJjOghYnaAeB2rUjPQVz9vNgc8egrVhnA69+lKQzetsbs+lasMuOM/hXNxTlW61oLdKuC3epA6FZAahkkGev5VktehuQMVBJdZHfmlzIdjZ+0YPJpyzc5POfSsHzWPNWUn/ChoEzaSbn39KuROCeaxVfkHNXIHJfHQVLQ/M2llxwal81ccfpWcckZJqQnB4pD1LnmbjxU6oThjVNDkg4471djOcCgEmWIkGRmrGzjikjTn+VWhHxU8wyv5QxnvSbRkY7VcK5HAqJojuzRzAQSKcZqlIp7dT3rU2kdajMG4HIrfDSh7SPPsZVubkfLufil8WPF3xBu/GusQeIdRvY57HUpQtqJGjjh2t+7ZVB4O3BBr9Pvgh4i1Dxt8K/D3iTVXMl5dW22dz1Z4mKFj7kDn3r4x/bB0eCz+JtpdJGEa/0uIyt/fZHKqx+g4r2r9jjx9pkvhK4+Hep3UMOoaVdM9jFIwV57af5iEz94o2QQOcV9FxHhKdHknRjZNHjZNiZ1VKNR3aPsQWmI945/+tX52/tZamZ/G2laEXwkVuhK56m4fH4cCv0o2sBzX5Tftd/aLT4tpPggNbWToeuVQsD+tRkWlGtUW6ROcx5qlKHS5+i9h4esG8GWvhyeJTbNp0dsVxxtMY/qc18QfB6a58GfGVNFZisV3NcaXMOgYgnYT0xyAR9a++9DmjvNC064Uhlls7d+ORzGvSvhv4i2i6D8YJr+FSojvrS7Ujj723P8qUKzxGXSjLeLCdJUMdGUdpH1R8VbNrzwFrceCdtm7YHGdvJr5y/Zj1E2/iTVNJZvlurRZlU92iPUfga+vfE1qt7oeowZBSe2mHPPDKTXxL8GJV0v4gaYwIQTGS1dugIYEY/SnXanlcH1TFQvDMpR7o++BUb8ZFIpPShhnpzXzT1PoSAnPOajQs7ZB4FTGFWGHz9OgoVQi7QMYoSGOY9wPrTgKiLehpDIAMmmImYjBql5oUkdaZLN2B61nSTAKSD06mgC5JPgHPpWc8+QSTVSe7OMZxWbLddhVryIbPH/ANoXQJ/Ffwn8RaVbKHm+yGeEd90BEnHv8tfLn7HltYfbvEEV1bxvdxxQXNtMf9YiNujkUex+U1906i0dxBLDKu9HUqw6ZB4P6V8IfCeJ/A/xhk0Vl2RyPc6e/b5Ml4iPxUV9XHFTeXwcPsvU8GdKKxklLqjkvi74euPB/wAZ5dYsxtS7mg1eDHQSKwEg/wC+0z+NfoRZanFqVlb6jbHMV3Ek6fSRQ39a+af2idGF9Z6VrsYAe1uGtnOP4Jxxz/vAfnXcfCXXTqHgSzimf95p7SWjEnJCxnK5/wCAn8q485p81WNSK+JHTl9VRg4PoafxZ1NLTwdexufnudsEYz3Y89/SuV+B8DW2jalM2Qs10oXPcKvNcV8RNePiXV4bCwzNDA2yFV58yVuMgfyr3jwpoieHNCttKGC6DfKR3kflv8KWY2jh6dF7oxwHvV51VsdYJccA8U8TNxzn9Kp5A5p4PvXiN2PaNBJiQCxxU27POaooV4J6inmXjbmpAvrMM+UeCBn8KGl9KoNcEDk4FNM4IBHepQF5pTjryaYJSo6471mtMR9aYZmJJycVQGibnuTTHuMDI5I7Vm+Zzmq7y7Tz1p2A0GnLZ5IA7VVllHJYgD1NVfNbOKrSTMxODSA//9f9FQ5YAmkZgDt79aaFqykY43965b6HW0EcQYBj+FI1pl+OlacflbeOlSgDcNvc1fMLlZhmxO7KA4qpLYA5GMH6111xkICOPpXNajdm1XKxPLIx2oqDJJPr2A9zTV3sQ7dTIltti5I4r55+I/xz8LfD+9Ok+VLf6gIxIYYcAIG+7vY8DPYcn2r6QtLXVJTJLqAjjVhhIo8swz1LN0z9Pzr5n179mPw54k8W3niDWNQumju5TM9ugVQSeo3nJAx2x+NevluFwtVSlianKkedja1eFo0I3Z5fa/tN3V44+y6PGuTjE03P5quM16P4c+PFldyxxa/pxtUbH72FvNQZ7sCFPHtmuuh/Zv8AhhDAY47CQNjiTz5Nw+nzbf0rzzxH8C5/Dsb3vh+d7q2Xl4JsF1A/usOD+PNeo8qwNaP+y1NfM8n+08XQkvrMND6W026sdZso7/TZUuLeUbkkTkH/AAq09oQvyjH+NfK3ww8SXfhbxDFpsrM9hqTiNo+ySHgNz0wetfYqIHX0NfOVaUqU3Ce6PoaVSNWCnDZnMi2bqR1602S0LAnH410n2dO3OKhkhULmo5jTlOYktgvPt1qi8CsBx0ropF29qoSIFppshpmK8IGcDFVWh2jNa0iiqUi8YznFaIkzWi79aoPF8xzxWo2aqygfU+lMlxKO09ximFRVl/aowAf8aq4rMh2mmEfnVlTj3BppVSaGwszz/wCIvi3/AIQjwne+IFi8+WBQIozkKZGIVdx7LkjNeY/CD4yXvjvUrnQtdghgvI4/NhaHIVwPvKQT1x0/WvWPiJ4cj8UeENR0YruaaB/L6cOoyp59Dg18LfDx7vwv4xsdVdSkltL5cyHvzhx/Ovdll8FgY4qDu+p5scXJ4h0ZfI9Z+O/w41iXV38a2Ba5gmRIriILkxKmdrD255FYPwh8dX3gu/8A7H1Jml0q5YZUnPksejJnt6ivtmRILuEqyiSGZeh5BRxkfoa+S/iF4Dh8Oas11aBhZT5eP/YbqVz6dxXoz9jj8NzRVpxRxqdTC1uWWsWfXcUsc0aSxMHjkUMrDoVPQj61KexFeSfCbX21DR30i4bdLZKGjJ6+S3+Br1sHnmvlpaaM91O6uiQN+NOL+lRlvemMwpJgSPIEUu5wFGSfYV4L4iV/GGuAIpdFbyLVCeMfxMfqefpXfeLtYaOJdLtmKyTg+YRjKx9PzPQU7wjpC28f9pSj5pBtiX0Tufqa9Ok/q9Jz6s8yp++q8q2R1+jaba6NYQ6faKFjiXtxuY9WPuTW0r1nqT0q2rE/N3rzXqego6GnG2VzVkHIwKzYie9XY5AWwfpQGxoJkKMVowsSADWapyKtRvjmlbqUu5ro+OasLMc9RWYkuasKaVxmus5x/KrP2gvjHBFY6yH8KkEuD7VIGqsz5w54qz5meOtZIfHQdauI3QUAXkY9AfrVpCAcZBPcZ5rOLYG4dRX5xP4m+IfhbxveLrN5dWGpJcyyRlnZoZELEgqCSrIQR+Fd1HLq9Wk60FdI5amNpU6ipSerP0+icEY7ir8TfMMGvnP4d/Gaw8QGLSvEIWw1HACyZxBP9CfusfQ17/buSwwd2en4968+UWnZndFp7G4rBgM1ZTG4f5zVOFG2+vrWrFDuwcY+tRcaRJHj7o+tXIYi/IpyW+eBWtZWvOMGochqIkcDFfWpliPStUW+xPm4qu2A2BS5iuWxUCHoKnFvUqo2c1aiTnBpc1h8pmm2GeacYgegFajxhTzTSiYJq6cvfRNRJRZ+YH7ZtrJN490/HSPRgfylJr52+GWnm88e+GL5LgWytqdqrynPybmwc46AnA696+v/ANqGzi1Hx2qt83k6VGntl2Jr5/1rwPc/D3xEmiRZSKa2ttQspc8/vQG/NJBg1+nZoo1cv5Vq0kfnOW1ZQx19ldn67OypuzjqRXxh+0v8J9W8cXOleKPDFoLy80/dBcwLgSSwsQVYZ4Ow7sj0NfRng7xOvi3wnpmvKfnurdfNX+7MnyyA477ga3yAvOea+CwGYPDKUbXUlY+5xmEVbld7WOP+H+l6roXgrR9H1lhJdWlqsbeqjJKqfdQcV8zfG+3UeM5Lhh960gfJ9UY9K+wJpiHznivl741W/ma3bTkYMlmy59cMMV15bK9GqvI4sxj++pS8z6Ljd7vS7d/+e1tGSD0+eMV8PeFYzY+K7eQ4DW2qY+mJCP5Gvs7wxcrN4c0yTO4G0h5z6LivkrULR9N8W61Fwpg1DzAfQOQwrShJPL5xZz4mPLj4SPuPjzDjpk4qXI5I/SsxLkPDGw5LIjE/VRTGuNnB/SvBR9DYvu+Dgd6qSTYHHNVXul24H61nSXQHfOKYbF83WCcnnpVb7VtHzHmseW4wdx5zVCe9WNGLnauMk+g7mqhBykooznJJczOM+K3xPtPh74dbUWXzryc+VaQZ5eQ9M/7I6mvzY8S/G34p3upNN/bV8JuZfItP3ccYH+yq9vevXPiRrVx498XS3dqGmRJF0/S4TkhnZtpbGO7c5x0FfR3gb4ceH/BHh9tOht4ptQnjb7ddsoaSaRgd3zEZCDOAK+yp4DAYeEaWIV5y/A+YeMxdeUqlLSCOX/Z3+Kmt+P8Aw9d23iSQTX+msm2YrteWN+7YwCVPcCvoKSXPT8a+Y/g58PfEXgbxBrV1q4RLSXdHbFHDCRC5ZWAHTA4Oea+gpLhm4U496+WxNJU6soR2TPoKM3KCky3PJ8uN1fGHxctZfD/xEtvEFqSrSCC7z1y8LYb25AGa+u3fPLGvn344aZ9osbHU1XPkzNE7AfwyLkZ/EV62Wz5qNSj3R5uYx5atOr5nofxAsV8ReCr+K3OfNtvtEJHOSo8xcV8Xaf4p1rSWm0ixu2htL3ZM0S4xI23HXrjBwQMV9jeAtQbVfBemSzfMUgNu+f70RKH9AK+W73wxGfE9xoMvySJcSwQuP4S/zR8ehyB9K9jL/Z1sMudaxPKxznTrtR+Fnvfwt8N2MtlH4ouXW4uZCyxp1WAg4Oc/x/yFe1BumK+bvhLrVxpd4+jahmNZnMciN1juE+Uf99dDX0gFAGBXymLqTlVfPufR4WlCNNcmxMGBqTcBVcHFKWycda5mzpJjJ+NAJHf8KhB9aQtjkCkBOxzn61Fvx04qEufqAaa0gA5P5c0ASPKOfT1qIz468VWaT9PWoGkJ4zQBd84monk5POcVTMhFRtJ/F0ptjuWGfIzmojJiqxn7VWmlwMA9aFuKx//Q/R8RFTwOPelEZc7e1abW7+nFPS32gNgmuLmO7lK0cBXpknir8cJAyc5qYLzk89qlyB+FVcTViNvKdljZvnYcAdaYLRFb1qWIfvvMXtmr/l7xkdaOZk2RmyRDaVIzWJdwkNwM57966xocRknqayni+cknrSuJxMRLfCDI5I5qnJbKdykbgcgg11BjUDH4ZrNeFQxrow1eVOopRepz4miqlNxkj4h+KOjjw3r32u1yodxNH25B5r600CZb7R7K8ByZoEY/UgZr5x/aCULeWwHOU+bHU8ivozwTEw8KaUXGGNrHn8q9jPF+8hPujy8kbVOVPszTdCCSOlVnHyH3q7c5BwtUZXATntzXjJntGbMBg5rMl9PWrksgOcnk9KoSODz6VcSGU5FwMmqD8HFXpWJz/nFZLselaJkJEM52dMmqBkyasytkba5TXPEOk+HrKTUNYuUtoIxyzdz2AHc1pGLk7RWpEmoq7OgfGB+dcxrHinw74fjMurahBaj0kcAn6Dqa+WPHHx61nU3fTvB0b2kJBX7QRunYeoXogPvzXk9t8KPiT43kOovDMwl+Y3F43XPu38gK+hwnDlapHnqtRXmeNWzujGXJTTk/I+3tP+KfgHVJxa2Ws27yNjALbev14r0FSGUODlSMgg5BBr81tS/Z7+JumXVq1hGLtpCo3QuB5Zz1bPGPWv0D8H6Zf6F4X07SNSn+03VtAFll9W64HsOgrzsxwTwtRQ5k/Q78Hivbw5rWOhbDda+TfiB4Yj0rxVPcW6bUu8TKQMfN0b+h+tfWXvXmXxN0xbzRVvkH720YMCOTsPBH5V6GUYnmpzw09mefmVPknGvE1fh7qran4ZgSZsz2ZNu/HO1RlD+I4/CrHjnSI9a0C4tmG50XzI+3zryB+NeefDG+e31GaxY4S7iLKM8F4+R+ley3CiTYuMjOfrXJgKroYnl+R0Yumq1C584eALz+zPEVpJnakjGCUY42vxj8Divp/cAcc8V8v31mdL8Q3tpEcNFN5sZ+p3DFfR9rdC6tYblTxKivn3I/xrPMqfLXdupeBm5UVcvFjn2qteXkNjbSXc7YiiUux9hzRvxyeRXmXjzV/Mmg0KBxlv30/si/cB+p5+grPC0eefkXiq3s4abmbp3m+IdU82fh7ly7Y/hjHb8Bx9a9njCxoqRjCqAAPQCuF8FWQis21BlwZ/lQn/nmp/qf0Fdxk5608VV5pabIMLT5YXe7Jwc1ajfn5jwKoBsGpVeuZM6TVR+farkRrHSTb9KuLKB0OfoabA24m7mp1f3rJjnABH86lN7bRjMksa/VwP60lqBtLJjpVxZM9Oa5E+ItFi+WS+gXr/GO1VpPGfh5PuXgkOeQgJpcr6CbR3qvkZqVetcGvjjRBwplb1AXH86lTx3pZOFilJPc4A/nTVOT6EupHueixksMVbXPBxXn8HjnTzgGBz9GGf51s2/jTTSAxhmwfYGlyS7Fc8XsztEUsOmK5/xP4H8OeMLM2mu2aTqBlXxiSM+qsOQafB4w0STqJk/4BWj/AMJj4bgjaS4naJEG5mZCAB611YPH4jDP3NuxyYrB0cQvf3PmTxB8Etc8OSS3miFtV09cN5LEC4jA9D/Fj866vwB8RL/RQljdF7y0jbDQy5E8OOCBnnj0NfR/hvxH4c8Ssw0i7juWHDDofXgGmeJ/hPo3iZWuY4/sWoDlbiEbW3f7Q6MK9SdTDY5a+7M86KxOC1XvQOj0DVtM161+06bMsq/xLnDofRh1FdjFA2ACOa+Nx/bHw615rLVpfs1xGvmxXEJzHNGD3Hb3Br6q+G3jPS/HWnPdWcim4tWCXEXdSejY9GrwMVhp0Jcsz28LiYVoc0Gd/Z2Bflv1ql4k8Q+HvBumvqviG+hsLWPq8rBc/QdSfpXScxKWXivw1+IHijxz8QPHR0zX9Qm1G7m1OSzsLRnxCkjzFEVF6AHgZNd2V5HUxsXVb5YLqceZZxTwjUEryfQ/TY/tVfCSW4WBbu68ktt+0CAmMH1PfA7mvdtJ1PTdasLfV9KuY7yzukEkM8TbkdT3B/n6V8AzfseeJLDwuLptWhm1gJvazVD5atjOxX7sDx6Uz9lnx/qPhzxhN8NdXc/YdTMht43zm3vYskquegcKQR/eGaeaZN9ViqtOXNB9QyzNliZOnUjyyXQ/RhmRQWcgKBkn2Ffn78Xf2tPE+la7daZ8O1s4LbTJPLmmu4/NeZh/dUEYT0PevvC6dZIHiOdrqVOOuGGDX5X65+y78T4vHN9LpdrFe2NxOzRXjygK8TH5Qy9QVHBHtxXp5BkuExWHnWxMtvM8vPM4xeHxEaOHifbXwA+Of/C4vDtzNqVslnrGlsiXaQkmGVH+5LHnkAkYKnoa94lumwQtfPHwD+DcPwf8O3NtPKtxqepSCS7kT7ihTlY0z2WvdZJMqQDg+tfNKkliOSDurn0cqrdDnmrOx8MfGif+1PiRd23LEfZbb8yP8a9O+O/gRNV8O2eu2ceb3QUUHHVrUgb1/wCAn5h+NeO3gk1/4plsmX7TrSBc91jcf0Br7k1CCG6hkgmQSRSBkdW6MrcEflX1lTGuljFRls1Y+WpYL2mDdWO97nzB+z54lRTfeFJW+Vv9Oth2yeJVH6N+NfTMkq9ua+Gntbz4a+PSsAJGn3Amh/6a2sh5H4qSv1FfZtvqEF9aQ39oweC4jWSNh3VhkfjXzWOw/sqzj0PpMFXVWipF2Rt1eEfF+13HTL3qN0sB/Ebh/KvaJJwuQc15X8Uf33h5Z1Gfs9xG+cdATtP866Mrl70od0cmaR0jLszovAN1G/hDTsdUR4z9VY18/wDj9BB471WNDgXMEUoA/vbeTXqfw1v2fw9Pakgm1unAz12yAH9MV5L8TroQ+P7XJ/4+LIKfqGrpwEeajUgc2YWVanM+mtE1N7nRbG4ZgTJaxZx6hcH+VXGuTgknNeZeBNT8/wAMWqg5a3Lwn1+VuK6t7n614p7lzWe6JHBPXpVJpu+6s1rnr64qkZ1wTnjpQJyNSa5ycZ4zXmPxQ8RJoXhC/uhMsUkyCCJ2IGHlO0cn2rqpro8lBn618U/tdXeqjS/D0cDyfZDcTtcRIMqSEyjN9DmvcyHCOtiV5ank5vW5KD8zT+H2veCNJ1ptV1jVLeJdKiAgVmyzTScbgB12jJ+td9qH7QXhiOQx6RBdXvP3yBEh/wC+uSK+A/CGj+Jtel8vR9MurvnI2RHHpkMQB+tfT/hj4C+Kr1Vl8SXUWlxkAmKLEs/0/uivcxuU0+d1cRUseNhcyqRiqVCnc910L4sQalrkWlXtslvDOiFZw2QJH6Lz19K9bZyGIB/GvMvD/wAMvDmg/Z5FE15Pb/dmuWycj0Uccdq9FAweOK+TxKhGo1Td0fTYeU5QTmrMcZOD1riPH2mf2t4Xv4By4j81O/zRfOPzxXbYyM4qtPGGXaRuU5yD3Het8uqclZeZhmFPmovyPHPg5qIm0e90wn/j3nEqDvsmHP8A48P1rlviXYtZeK7fVI8gzxLJn/bgIHH4EVN4LRvDfj640eTKxytNbYzgYJ8yI/lgV2vxQ04XGk22o4+aznG7HdJBtOfoa9LCycJVKSPOxKVSEKhyXirThDqFl4tssrb6lGnnleiTEZV/bJ4+or27w1rcWt6TFdq2ZFAjmH/TRRyfx61wvhOC38QeCW0m6GfKL25PUr/Eh/DPFcZ4X1u48Ha7NpmqkrHvWC5HoP4JQPTv9K4sdD2kVXj8zrwU3Tk6M/kfRTH04NJvxzioDIkse5GDKwyrDkEHvTNxAHfFeVc9MuK3GG4Oe1NeVRxn61RaRu/Sod5PSpbAsGUINuSfxpHkBGRWfJMM7c/iai+0FfkzkiqQFmR+T796qGYjJB4qJpWI+bFVzIKYFtp+MdKrtMTwTVRpdx47VWeVgcA00BdkmH5VBJMApb0qozgDJ5zVR5jjmi+o0z//0f1HiTcQB0PerrRgAYFMgyo+YYq6UyAa81M9AymTnAzTSuK1iqgdKoP87fL0rRSAijjYMGPTvUMWrAa0dIuIjHvjDxMOQxHUH09q04kOM4q2qrw+ORwD3olJW8ybDiRtxiseVV3kAYxWpI4Tms9zvbIqIsGis44IrhvGHi3R/BejXGt6zMIYYhwDyzt2RR3ZugFdTrOo22lWM9/eSLFBCheRycBVUZNfnT498T6j8XPFPnJ566JaSCK0gQ/PK7cDav8Az1k9f4FNe7lGVvET55aRR4+a5gqEOWPxMzdV8W618RvEcWvayfsOnNOILO1jG55mDZWNR3I4Lt07V+i+mxfZdLtrU4/dwxoT6kKM8dua/PvQNKuP+Fi6Tok6IJYpUjeOP7kCqc+Wv07n+I81+hZ+YEHits+mvrCgtkjPJY/uHJ7tmRdyqCSK52ed3zk+34VsXMZO7ZzyawZY2LEg45rx0up6stim5JqFwSMZwatMmOearScVaZBns3vxVGQ4GetXpBgHFZ8o4welaLV2Qm7K5jahf29pE808ixoudzscAeuTXwJ8RPFl58RPGMem2EwNosvk2cZfCHBwZW7ZPr2FdJ+05q2vf2zYafGk66WsTMzISI3mYgAHHBOOlfP+iWUsjCSO3kLA8kA5x7V9/lGUTw9F1nZze3kfHZnmCq1VTv7q3PtzwR4N8B+EbeKe9urS7vyMvNLIhVT6IufXvyTXqLeKfDqRiT7dB5ZYKCrZAJ6Divgu30i7aRWazlOCMDDHB/KvZ4PCmq6poCWdjbSREEO+UILFewJxXl4/AYqUm6tS7O7A43DpctKB9URSRTRrNEweN+QwOQRU2QRXHeELK/0nw5Z6fqZzcxqTJzu2ljnGfbv710+/1NfMyk29T6BLTQnyc4rO1S3S8sJ7ZxlZEZT+IxVlnOPeoWfjn6V04Go4Vos5cZSU6TR88eFbl9P1a3dz88FyEb6ZKn8xX0SWYEj04r5q1Hdp/ie+hTjbOJF+hw1fRkMyzxLKpHzqrA/UA10Y+PJiG0YYJ89BI8Z+IULWmtwXyHAnjxxx8yf/AFq7/wAE6gt5oEIDZaBmjIPUDqM1kfEWwN3oTXEYy9swlHHYcEflzXM/DXUBHcy2TvhZkLDJx864x+ldeY0+enCqupz4CfLOVJnrupajBp1nNe3TBYoULMScdO31J4rwfS/tev6t9okybjUZe/RY+3/fKir3xH8RC/vIvDVq2UjIkuyOmVOVTPt1PvXV/D3Sm+zvrM6/6wGODP8AcHBb8Tx9BQ4fVsPd7yJ5/b4iy2R6bBFHaQJBGMJGoVR7LxVgMD0qsDjrUiHtXjXPXLQalDc1CCakWkN2MvxFcajb6Hfz6SpkvI7aZoF9ZQh2frivzJtvH/jR76SO4vdRt71WIuBK7oytn5gR0HP6V+p6qGzuGR6VRfw1oFxIbifTbV5WOS7RKWP1OOa+iyzFZfCly4mF5Hj4+jjJSvQlofn7Z+I/Ecqhp9Vv5c4yFlccZ9a9G0q+1m7CpbWN3Ox5zIJHzn1z619nwaLpEG0xWVugUcYiXj9K6SGFEVRGirz1VQOK2r4/LlrTpnJHBY9/FM+UNP8AD3ji7AeDS2jH95lAPOPWusj8A+M5IvOuWSFRyctjj04r6Yjj3kA9BVfWEMFhI7dAB+Wa5I5pTk7Qpmkstq2vOZ4jp3wv1O7AMuoYB7dTz712Fh8FwSWk1ST/AICvWuv0SX5wgOVINen6fj5SO3U1zTzacXpFHRTymEldyZ5RafBSyJ3S6nc+g2gdfWuktvgvbKgEerXIJ9QDXrdvGCBg1u28QABHJrKWcz/lRssnh0kzxhPg5dIuIdal45wyD/JqhefBnWryN7b+1EkSQFW3qeRX0dDESAe1U9Z1bTvD9kdQ1GURxJ09WPoo7mqpZvJysoK5NTJ4qN3UaR518M/hJJ4OkFxfXMMgiIfeg2k46Zz0AFWPHXxeh0wy6X4XCXNyMq9yeYoj/s/3jXmvi74laprcbwwO1lpwOAi8PIB/ePbPpXIeGfCPiT4gXQg0mP7LYKw826cfKB3x6n6V3YfAQ5vrOK08jgxOPlyrDYXV9zgdbuta8R6r5cRm1C/uGA4Bdmz0AA6AV9qfAj4aX/gPSLm+1k41HUwm+IHIijXkA+rE9a6zwV8OvDnguBF06ESXTD95dSDMrfj2H0r1FEVE4NcGc5rDEWp0loj0MmyueHvUqvVmL4quJrTwvq11bnbLDYXLofRlibB/OvxE0LR72LX9F8R3GTLLrFmImPUYuIyzeuSTX7iapCl7Y3VlN/q54ZIm/wB11Kn+dfjb8UtPufAPiW+0eOUyjQbtXicjAOxlkVgB+FexgJ3yapCG+p5uMTWbwlLbQ/YnUJN0rjtk1+X3jdV8H/tBHULPEaQazb3akcYWV0Zh9PmIr9H9P1hNZ0iw1mLlL61huRj/AKaoG/rX5yfHEBfipfT/AN17Rj7fKhrhy+XPltaEumx2Y5KGYUZR6n6UyTHJ9Mmq+/J+aqcMjPEj8ncqn8wKkBV8gEEg4POcGvm1OSVkz35QTd2iV5guKoX955NpPPnAjjd+PZSaSZvmxjGK5zxZefY/DOqT8Ax2kpyfXbj+tduWx5sRH1OPMJcuHkz5R+GELan8QtKmkGSJ57o/8BBIP619qySDH1r47+Ckkf8AwmzPIwX7Lp0jkkjgyEDqa+ltR8WaBpkZk1DULWBB13yrnj2zWmZVZSxUmuhjllNRwsUzyv42eGzfaWviO0X9/pufMwOWgY8/XYefoTWL8H/Fhm0+Tw3dSDfb5mts/wAUZPzr/wAAPP0PtXX3HxY+HWovJp0esW8xbKMmCQwPBHTketfOc0Enh3xQLnw5Ks8UMgmtivI2HrGw9MZB9q78RFYnDKr9qJx4eX1bEOn9ln15LcDOTXI+MIhqWgX1smcmEsP95OR/KrenalFqljFew5CyqCVPVG7qfcHiluGypAxjGD3rzsDNQrK5346nz0meS/DDVtt1fWJb/Wok6g+qfKw/WvPfjXd/ZPFGjXRP/LIqf++6vSyzeEPGgcLiFZd2PWCb735c1xPx6vo59U05IpA22AtkHkhjkfgete/l9BqpUieLj6idKnJHr3w21Ty5L3S3OA225j5/BsV6hJcr1J/GvlfwNrcttcaVfXAMTLiKbPJKSfLk/oRX0BrnmNpd2kMvlOYn2yHopx1rxKmFk67pR3PXp4lexVSWxvtdITlCD7g5FV2l9+K+Yvhl4i1GXxS9reXEm2fcgtt2ULAZ34/CvpQAnvXPUpunJwlujenNTipR2Hbt3Wvnn44oGOjTSKPLEs8RJGR865Ge3OK+h9np3rzH4qeFbjxF4UuIrNd13astzbjuzx87R/vDivXyObVWUYvVrQ8zN1+7jJ7J6mj8P2gbwdpRtwEHk4KqMAEMQRgCuyVfmxgZr418D/GObwpC2l6hatcWquSF3eXLE5PzDkHjPUHoa63V/wBoPzQYtHsVhc9XmfeQMdlAArGeFxVSpaSbZ0rFYanC6asfTTTQRyCBpEWRgCELAMQeMgdTU5GGxXyj4PvNe8Y6/BqcMjtPCRvkIJVVDZ+g47V9TSSYbdmuOvRdKfJI6KNWNSHPHYlLfpUTOT1quZAM896Y0wI4rODakmi5pSTR4b4+t20rxXaa1b/ekRZM/wDTSFv6r/KvVtdtodf8PTxKQVuoN8Z7ZYblP4GuA+K0SnSbW8wM29wBnviQEEV03gu++3+FbKYvvKK0ZH+4SP5V7NSfJXjU7nkU4c1CVPscr8Mr8x3d1p8hIaeJZFB7PDww/I1q+P8AwsdUgGrWCA3tsuGTj99H1K/UdvyrhJ7h/DPjy2RBthnuCVboMS9VNe6NJlSCfxrJVVRqypz+Fmzpe2pRnD4kecfD7xS0Sp4e1CQZAJtmc4YL3RgeeD0/KvVpZyo+br2ryzWPCVldarBrFtI1tPEfm2Dh1PUfjXi3jr9oi98M+Jb3QNM0uG6GnsIZZbiRkLSYydoX+EdMnrXK8FOU2qKujphiVGCdXRn1eZxk7jUEk/YGvjbRPjx4q1i8CTQ21qjqxCRru3HsMsc19GeEdeu/EGhQ6ldx+XKSyMMYBKn7w+tc9bD1KTtUVjSliIVfgdztWlAXJOKoxX0Luyxuj7T8yqwYr9QCSKzL/wA64tZoI5DG0sboGXqu4EZH0r89JPA/xB8M6zMXgv18lzm5h8xo5Rk/vNyk5yOeea7sLlNavSdanY58RmFKjNQmfo9JOQc8/wAjUZl4OK+e/hx461K91aHQbud7y3ki+R5eZEdRnlupU+/SvczMpyCRjHavPnBwk4y3OyE1OKlHYtM5znP4VAZTnmqs03TB/KozKeoqSi00mTgn6VRlmyCF4FRySknk1Vd8jHfFAH//0v1aijDMSaulcCq8R+XPTNTg9PSvLWp6lhhjJH1rKeGTftixgnknsK3shB68VRzuYsBjJp3YrEiKEUKCcAUo601kcZKnqOPaiBWWNVkfzHAwWxjPvgUgsNki8zgVTZRGxLHAA6npVySZEJAPIr5v+M3xGm0uzHhzQJN2p34Klk5MMfTdx/E2cL9Ce1d2Awk8RVVOPzOHG4qOHpuUjyX40+ObnxpqzeDNDnCabauxv7hTlWKEZX3VfT+JuO1d98MfhrB4b0k+I9Ug8ufymNpC5+eCNhku3/TWXOT/AHRxXM/B/wCH8N5Imq3kYe0sZQxLDi5ul5A5HzJEfzb6V9F+KZpINAvpF6iCQ5/A19I8ZFV4YOh8KevmfPfVpewni6/xPbyPjX4YWba78Y5b6Uny7WWWbPYhc4FfcMwRYWYnjFfGvwE2HxpqEznD/ZnYA+pPP419ZzzyOMZ4rx82qOeLmz2Mrp8uFghpCEY6Vl3KxHlB+VWmLbcetUCCM561wpna4mZJkE54qhIQBnvWjcEcDHP1rLl656itCdkVJjxkcCseZm55rUnwFz0rFuSQpIOPb1px3M3sfMvxz8qX+ybedd0bTuzA+qqcV1/w40jToPCtrsgj3M0hY7RnJP8AhWb8YPDtxrOjxXdoC09lIJMDqU715l8P/iUPD/8AxKtY3fZnfhiDlD6//Wr6/MMRiFQpypSfLY+cwVOjKtONRa3PqBYII8YjXGMfdFTfd/H0rn7XxLod/Es1rewsjcjLhf0NWbjxDolrEXnvYFwO8g7V89Ur1aj9+TZ7sKNKCvFJGpnnNPBLE5rhV+IXhlr6GxW4y033WAO3Gcdfr7V3IBxn3rFprc2TTWg1zjjNRuCR9ateWvcc08wrjGKcJWkmZzjdNHzb49tja+K/NUYFxCrc9MqcH+de1eH5TcaPZy9f3QU59V45rzv4rWDRyadqKrwGeInPZuRn8RXVeAbj7RpJthnML5z7N/8AXr182s3GouqPMy3RSh2Z0l/BHeW81k+QJY2U/Q8V8xQaldaHdF7bH2iIsi7hkDGRzj2r6j1S7s9KsZ7++cRxQqS7Hjj0HqT2r5LuLv8AtXVLi8hj2rNKzrGOoDHivSyzlnhr1FojgzC8a/7vdm94V0K68Q6p5bMzByZLmU8kKTzz6k8CvqC2t47eBIIVCJGoVVHACgcVy3gnR7fTNDgaNQZblRLK3fce30HYV2ZGOleJmGMdepdbI9bBYVUYa7sYo4xTxxTlBAp+wg/WuBu518oD1qZATxThDkgZq9FCOpFCYcpFHGOrVoRwHrTo48YA4HrV+FBuCtxu6e9HMVbQqPCyDJ6Y61p6aVmiDKdwyfrVpYFOM9u1VNHtpYL28gfhCyvFjptOc/rQ37tyeXWx0cMQ3Yqe7she20luw+WRSpqzbxqD7irwXJwO1OjU5JKQVafNCx4/YCSxvZLKcFZIXwR6jsRXrejXHnRqOx6ZHpXLeIdCkurmLULMYnT5W4+8v/1ql0a5e3kVZOGTg/WunFQv78TmwtRp8rPXbXoB3rahKjg8VyjarY2NmdRvpo7eBVBd5GCqPzrmL74gwSwN/YoDA/dmfgfUA9a4qVCdR2ijsq14U1eTPQfEXiuw8OW2XxLcNny4V5LH39BXzT4j1261W6/tDV5TI4J8qFSdqA9lH9abcXt7qmpizsVe9vpmxxljn+gH5V7Z4I+Gdppkq6x4h23mocMiHmKE9uO7D1PAr3KVOjg4889ZHz9WpXxs+SGkTifA/wAKL7xPPHrfisNb6fwY7XOHlHv/AHR+tfVNhY2mnW0dlYRJBBEAqoi4AApIioUY6VZVh2rxsbj6uIfvPTse5gsvpYePurXuXVYIQPWrJmPQmqBkB9qN/YVw9DvJ5ZSVNfl/+0xpAl8eeIRtx9ot4ZufeIf4V+nDMGGK/P79pm12+NGmI4udNjP4ruWvqckm/qtaK7HzGcw/2ujLzPs7wrBHD4P0O3h+5Hploq9+BEtfAfx3tpY/H+qylTy0DD6BFx+FfeXw6uBefD/w1ck7jJpVoST1z5YH9K8G+P3gySa8g8T20YMbxLBcccfJnaT9Rx+FTkv7zD1aC3Ys5/dYilWeyPXPFvi638K+FI9S3AztBEIEB+8zIMfgOprl/grJqE3hm91XVJnml1DUJZlLEkBQAMDPQE9q+RJr3xL4yvbPwrpbS6jPGiQRrnKxIuAAT2AA5J5wK++fC3h9PDPh+x0NGD/ZYgrsOjSHlz+J/SuTMcJDDQhS+1uzsy3FzxNSdT7OyNSVtzbq8x+LS6lP8PPEEWkgtcmxkZAvLHbyce+M16jKgzgVQmghmjeGZdySKVYeoYYIrHKq9OjiYzq7HTmdCdXDyhDc/Gm38S3ZJeO9ljMqBGIcqzKO3BHT0rpdOM18QPLuLssT0R5Oe+Dg/jX6UaX8Ivhvoxle00G0eSWQys8qB23e2eAK6xNN02xTy7S1hiUdBGir/ICvp6uc5dGTlCF36HzMMqzCSUXKy9T8+fDGiX0V1HcHQ7wqTgSG3bC5/CulsPCXjjxRfX0lnGdNexKoGmBiWQ57ZHPAyT0r7Tmfb14HYCs2SQD6elebUzii0+WO5208orJrmkee/D7Q9e8PaCbTxFcJPdSTNJhOQikAAE9zxXXyn3p7y8nj8qpSP1rwW9bo95R0szj/ABb4eXWoBNCq/aoQfLY8bgeqn+nvXyne+FfFHivxMlk9tNEqFY3aRSFiiU88njp0xX2izZPJqFsHPcCvaoZt7Ok0l7zPKq5XzzTv7p4R408NppMlvc2SkW7QpA7DorxjCn2yP1rD8W/EgN4VXTkJF9KoinboNi8Fgf8AaHavoO8sre+hks7uMSRSLtZT0IP+eteAa38D7rU9QLWmoLFZs2f3ilpVGegxwcD1ruws8POX1mb1SOKtTrQi8PFaM5f4GaRLqniO78RSA+RZRsit1DSycY+oHNfWCrWL4b8Oab4W0mHR9Mj2xRcszfedz1Zj6n9K3A2DXz2JrqrWlPue7h6Ps6ag+g9VpkiBgRSlweh5qu0vJ7iop1ZU5KcHqi6lKM4uMtjyTxb8F/Bfii7fUZoXtbuU5kltm2bz3LL90n3xXM2PwC8F2VwJppbu6VcYSRgBx67QDzXussmD1qlJNgkde9evPPsXKPK2eZHJMMpc1irpunado9uLTSraO2hTgJGuB+NTSyEk4PBqNpMdDVeSXFePKo5O73PTUFFcsdiTzCDg801pMVUMpAzUDS55NMDnvGOm/wBtaJdWPJdkJTH99eR+orn/AIZLc23hjyLlGjZJ3UK4IPHU4OK7ln3Z9KhaQAbB+FdVXEc9OMeqOWlh+ScpdGc14r8Mr4kihMMgt7m3cOkpGcYPTAP5V1ysVjRScsFUE+uBjP41QMhHPammT5c5waxrV3UknI2pUlBWRPNLvGD0r4b/AGgfCclp4vg8Q264g1eIJMRjAuIOPzdMH619tbjjnmvM/ijoC+IPCl3CqhprYfaoRjnfDyfzXI45r3Mgxbi50e609Tzc1pJxU30MX4QaB4Zi8G2Gp2thCL1laO5lYb3MqHaeWzjPXA4pfGvxe03wNrtvolzp8syNCs0kkTKuxXYgbVP3jwe4rA+COqkWN9opbgMt1ED/AHXG1v1ArY+J/wAOLTxvYieBxbarbKwtpyMoQefLkHdSeh6qefWuehSeLqShXn73Quco4eCnSjo9zpdV+I/h+18Iy+MLScXliqAqsXDszEKEIb7rZIBBHFY3gL4l2PxAhurZbZ7K4t1zJCz71aNzt3KwA6HgjHvXxrd6dr2kR3Phe/aW2/eI89sxyjlDlG9CB2Yda9/+AWjparqmpdZCIoAe3OWIH5CumthZYCEKvNrfYxVaOLlKny6DbCzl8DeNWLLuht3O0n+O3l6Ee6jg+4r6QWVJFEkTBlYAqwPBB6H8a8+8eaP9usP7QtlzPZgsR/fiP3l/DqKi8Ca411YtpNw2ZbbmI92iPT/vn+VedmK5p+2jtI6cvlaHsnuj0UuOAT06U1pMcZ4qsSx6VG2a889AkeXcdo/OqrSHPzce1NZjzUByeTUtgf/T/U4Tt1HANWxNlOvNY4n4yP1qeJg/LDoevrXkRPVkaP2gng/zpwboapY5ye1P831qxF15MLjrzVCS4kVwu0kHuO1T7lC5PNV7pwkDyAgBVJ546df0qoxcnyomclFOTOE8c+L7Twhoc2q3jAsDsijzzJKeij6/yr5R8K+HtW8b6+13eylrq8czXEuT+4g77fTj5E/PtUfjrX7vx14mbYTLpunyGO0jTpNKTt3D3Y8L7V9NeAvCyeE9EWGfab64xLdSdcNjiMH+6g4+uT3r6apJYDDezj8ctz5uknj8Q6kvgjsdhp+n2ek2UOnafEsNvAixoijGFXp+Pr6mqGv25udGu4c/eiYe+MVorcRPObcHLhQ/4HipJANpDdDwa8fA1vZ4iNR9z1cdR9ph5Qj2Pz/8Ma8fBPj2K7nD/Z2dops8EqxxnHt1r7egmgureO6t3EkMih0YHIKkcGvl/wCL/gCS1v31ayjLW02Wcrz5ZP4dDXj2jeM/HPhUNbaRqRFtn/UzDeg/A/0r3MxymrVqOtQV0zxcvzalTpqlWdmj79ZlZSyngflWXdTLCplc7VHUmvjv/hbvxBuEMTXNtEpGCUhz+WTVS417xVr1jNbSahPdzSoUjiUbU56/Ko5/GuKOUYhK8lY7Xm+HbSg7n1600NxEs0Lq6k/eU5H04qjKPl4ryzT/ABVoHw28J6Rpniq8S2unTZ5Y+Z2fuQOuBkZ9K9Mgure+tYruzkEsMyh43U5DKwyDXnSumeincpzjL5Ppis24GFOK15k3c1myjIOaodjAuIEkUowyrDBB6EV4H4x+Ea300l/o5CljuMWOMnrjHevoth7UgRQQa9nA5vOhH2cleJ5GLyqNWXPF2Z8SyfDjxHZkr9imK5PKcjPsKW18A+I5ZlVLCUnvuHT8TxX2q4B69+tRlVIxjp0rtlnOHt7tLU4/7Jr396poeCaT8JzPc2mo6vIYpINh8tDnIU5x7fWvcRHg9OKsADNSKleHicU60+dqx6+HoKlDkTIlj3HpzSlcdKskYFMIJ/8A1VgpG9uh5b8S4BceHJliR5J4WWVUQZPy85/L1rzjwF4ustImnXVJhbwGItuc8HHI/H0xXqnjbxZ4d8G6ZNca/MIhdK4UkffYLgKPc9hXxJNfHUX+0qDtk5jHU7CflA/CvrcLg1jMNFz0sfOV6zwuIly63PS/HXxCu/FtyLSzDQ6fG2VU8NKezN/QUzwrCGn3YZpgP3agcE9Mn19q9P8Ah78K7aC0i1jxAglnlQPFAcFY1YcFvViO3avX7Dwxo+luJbO3RHA4bGSPpV4vMMLTpewo9DPD4LETq+1qjNDtJNN0qGK5b5wNzZ6KTzj8Kt2Oq6dqTSLYXMVwYThxG4YqffHSvKvjj4tl8K+EHhtdwu9VJs4HQ7THvUl5Pqq9Pc18q/C3xVe+C9dk1ZI2ngNs8bxbsK5kIwT9CM14jyuu6KxCWjPY+vUlU9m3qj9FlUgY71MqnNeFaN8bLC5WI6rYtbCZ9qmNt4A9TX0DBGCFcHhgD+YyK89xcXaSsdcJRlqh0URwCBWhHET1FTQlFjGcA+9U9W1rTNEtWvdUuI7eFMbpJDtUZ6VN+xbsaCxqo+aoLJHlu2uG4jjYqmOc+9c9B438I6lHiy1e0fcP+egB6ehrq7GWB4E+zSLKgH3kYN+PFJt9Rp3NcCrceFO4DmqQJ4yasRv70rjNeGUDjpxV9JAKwkkA69O9aKv09BQBqptfGa5rV7Rrab7dH9xiN/sexrcilBwBj61LKiTRmOQblYciuijVXws5q9L7UTiNa0KDxvoMvhy4ne38wrJHIh5V4zkdeCD6U/SfhPJCkcN9qbNCg+7CuGYfU9Kupb3GnXi7TwG3IxHavSbSUsiP3I5rpnjp048kUjmjgIVX7STZe8O+H9G8PQ+TpVusRP3nPLt9WPNdbA438kjiuagkfIz0Fa0UuDxyDXlVKs5u82epSpRguWKOkjmzj0q4khzXPQz/ADZPStNJcAcZrJmxr7hS5GPaqolyM4oWQsduO3Wle47MlZwO9fFn7TNr5mtabdKM77ORCfXY/wDga+zn4GTXyZ+0hCXk0mZf+eVwhHb+E19HkEr+0j5Hzufpr2cvM9n+CVx9q+EvheQ9VsREfrG7L/SvRr22t7uFoLpFkjcYZWGQR6GvGP2fbz/i02kxE5MMt1Fj0CzNivYHmyPevEo4ipSlz03ZntVqFOtDlqK6Myw0LRNGZ5NLsoLVn4YxIFJ+p61aaaMHBODTJpwB6k1lyTjO5qVStOpLnm7sdOjClFRgtC68ynkdaoM5Ofeq0l1g8c1Ua5yeR09PSkUWZJduazrifg89e1RTXHbpWTNMTxnighoJ5D3NUJH4yKSSRc8n6VTeTIzVoljHk561VlfI680Oyg5zxVZ5R29atNCaAtgZ/Coy/HpTC/rUDyYH1ou+gt9CxvBJNO8xexrNMx6dqjEozgnpRqFjUZy3SoC4B61TaUnpUZkHrRyiLu/FVHkO4+1RGXPFV3kHPOTVJASO+apSk/gaGlJ68VVnkIQnPagBC2ORULuW56e1R5OAT3oPTigViJ2b8qiJLcHjpUjDvTCPWi4cpAeBnkZ9aibp6GrRXI+lQOo71TZLRDTCc1KVIGahPy1JVugzcRVW4VZEaNhkEYOe4PB/SrBNVJGw5B5FdGEq+zrRmuhz4qkp0nE+ePB9uNB8bpZ42gSz2hA6YbJUfmBivoBsnrXh3jJf7K8Xx6ig2iUw3Qx/eQ4bn8K9jub+CGza9dv3Kx+aXx/DjNdeNi1iW49dTlwkk8OuboeLfF2xtr2WxWNU+1Qh5C+PmCngLn0Jrn/BfiKbwyXTyQ9pdSIZkJ2tG4+Usp+nUH9K7M6eni+/Ouaa5a1nxG/mja0TR4zgehHI+taniPwWmpQRJpbR2zRlQ24cOoGBnHOa9THVqdekoSfvJHBhITpVOdLRnoTkMp4yD2PcH/EV408cnhrxP5kSkRBtyjHWKTqB9K9URvsVnEk8gAiiUM56fKOTk189eLfEF/rOqFLZSqKfLhCjLMCevHrXn4WEqtCUXsjrxE40q8ZLdn0esgZQ6nIIBH0NBcY6VgeHo76HRLODUf8Aj5SICTnP0z74rXJNeaemPJwP1qpIx/h708soByQMdagdgy/KcZrN7gf/1P06QAsFJwT7VoRrtOKhgCg7j196s5wa8c9dq4retMIJpxOaafzquYGh2846dK8V+MXiiXTtH/sOyYreakfKXacFYj99uPbgfWvZ3JWPd1NfGHxG1vzviLDbMDPLIy28KLyFycZ/M5PtXtZRTScq89oniZrUk1HDx3kdp8K/B0T3S6pOoMGmkGPP8VyRwffYD+Br313UsUzk/wCPrVTRdJj0bSrfTIjnyly7Yxukbl2/FjV148HKjknmvPxWJdeo6kjvwuHjRpqERi5Uk9M9qczZTpS7cfeqJuowKwuatFG4tYblSkyBlPXIz/OvNtS+Fng/UZWmnslRySSY8ryfYHFenyOq4xUClTn6969PD5tiaUeSEtDzsRlOHqy5px1PJYvhF4MgJIszJ7Mxx+lbtv4c0nR126dZw2+e6KAT9Tya7fYzMQOlUrxCqHI7E10U8wr4iooTkYyy6hQg5QiflP8AH/U7nUPiRqkcxylmsUEQ/uoF3H8ckkmvun4W3H2vwBoc+3YPsiRgE5OI/lyfckV8E/ExJtW+Jeuu+Mm+MSgekahfzwOa/Q3wHpx03wVotmV2mOyiJHu43H8816vEtOEKsIwVtDjyOcqkJOT6nSSKCKyZlIz3rbYYFZd1wcV82nY9xoyXBziowB3qw49OfWmbWxnGc9Ku4iq3pUZGKsOtVgSwoE1cVQKkQYHvSKvRhU6R7hkUEtDKMDIH41OsRwak8rjp7UxqPc8e+KPgK68aabbQaeI/Ot5xIBL90ggg9qxvC/wO0fS2hvdZlN7dBQWUjEIbPQDqcDua+gIrclc+/WpPsxWvUeb1vYqhDRHF/Z9N1fay1ZiCyKJtXgDgAcYAo8kg49a2vLJXFL9nJGeOK81S1Otqx8h/tIKJoNCsFGZDdSy4x0RUC/zNcN8N/hxD4x1a7s5p2gt7RY3cxj5m/hxk+9exfHCwW71jQV2/dE59R/Dk1e+BGmtDHreoYOHmjiBP+yCSB+Yr7bGZhPDYOn7Pex8xh8JHEYiansdlpfwq8J6JHG4g8/7OCwaY5wfX0rd0Px14S12/l0jSdRhmu4CVMSnlivB29jg+ldDrdtNeaRe2lsxSSaCRFYfwllIz+FfmOsmreENZjnh32t/pUqqw6ENGeue4I59wa8R4KviqDxbd32PUVelh5rDrQ/SLxf4v0zwP4eu/EWr58i2UYVfvO7HCqo7kmvj/AOI3j+7+L+iWtt4ZsrgNp0r3N1bYyzoRtRgB12nqKpfGn4hSfEbSPDujadlTMRdXsQ+6sw+VR9Mkt7V6V+zX4POnTatrkpLoEWyiJ6E53OfwGBXpUMPRy+nHE11zN9Djq1qmLnKlSdrdT5/0TwN4vZUmGk3KhuQShXHr9K9m07XNc8KW8dtDLJaXfDNG56DsMHsa+ymjQBsYPFfGfxRSZPHd80mcPHC0ef7u0D8Oa0bwuOpynCFrHGlicJVjGU73Pr7wlrNxrvh3T9XuQqyXUO9gvTdkjj64rqY5McjP4V518PZ45PBWk+SfuwbD7MpIOfSu9iLeWu85bHJHAzXx3KfVo1Ac1YR+1UYz0FW0GTmlsNqxpRPtOT0q3HID3rFeVYV3MeKu2xdlEgGM0uoWuaTqJyFYcD1rWtzsAGc9qyY2+bFX1Ygg5ocm9xxilsbcLljknpWlDLzwawYcqPf+VX4CynJ5zWbuaROiikAO496vRXXOMgDiue8w5HaphK3akUdcky4wDTLi+S1jMpPPYdyewrCjnO3NZVxIdUna1jYjyWBJ64/+vS0GmzotP1K4vbYzzrsJYgAccCvn/wCPyebaaXIeiyTL+aivoFQEjVVGABjH0rw344RCTQ7CQjOy6bn/AHoz/hXu5HK1SS8jw89henF+Zd+AMwT4cpGOTHqF2pHpls/1r2N7gt04rwH4B3Z/4Qq8hxjy9TnGep+ZUPP517HJcbR9O9eNNe80ezD4UWpbg5xngdaz5rgngEAVRmuSBgHrVFrgYJ5zTRMmXJLn3xiqhuG3ZJqhNMQOaovOT8xOTQI0pbhT82fwrPkn3Ejt6VUeXuelVWl4z0z2qkiCxJKuMg1WLnrmqpm7YqIyYPA6VQmSO+W9PSq7uV5pm8k+lQyuCOnWgVu4GcEYUGoGcdf1qHnPWoyWOec5qrpIL9iRpOxqLeD+FRuCOaRFPIo1FYn8zAxUJkByaa3HFQnPQU7D5RXlI56dqrNITzSufWoGZAcZ60xNWHmUAc1CxZ8jnGKYxJbBPHpSCQLj0qXcLMco2oEzk0uM8VF5wHA7mozLhiR19KFcROduCKhOOxFQtLgdagMrHr3qgLhZVPJ5qtJICPeoTIelVzLyQeCKTfYCVn561C8mOFOahaXLZ4qAsKEuo7Em/wBetQOw65xSO3OKhc8U76ktXPIvi5Z3z6LHqemxNJJaOfM2jcViYcnA9CBXz/a+MPEtx5dlJcXNxCvyLDl2GB2xj+dfapAPDVT+y20ZykSISeqoFJ/EDNfQwzHC8ic4++keJVwGI5mqcvdZ5l8PLLV7R2mmRobOVC2xhjczcg47Ed69Vzg5pny4GBjHFNYkD1rwqs+aTkj2KUHGKizO1izXU7Ce0YlRMhQlfeuI8L+D5tLYTam0crwEiEoSeD35Awa9E61GcLwOta/XZKl7JaI55YSLq+0YhOBxzTSeKOSaawfIxwK5joGEDBz3qqwJO0HHvVtyqrljgZ59KgbaWPGaBo//1f08jkJbsKleUZI6Y/WsyOTg5p7SEjrXjnsGojjjBzTt2Gz2NZqSjqG5HaniVSvvQBbuHzGY/XPNeb2vw48N23iMeKXWSa+Vi6Fz8iMe4A9O2a7vcSMVMsTE4OR/OumGLqQpOjHZnNPC05VFVluhkYLMc1JIgADH1p8KhSRkn60y5t4LhNkwJXI4ziuY2aKxU96XyvQZqwQDnBGajZAy+WSee+cGnzMRTa1QtnHNRPb8nHQVpsoVQi9B61XAzz2FUmBR2YOAKoX6gwvnoFPt2rYZSaxNYcQafPOeiRsx9toz/Su/LVfEw9ThzBpYeTPzGj0k678TNSzyG1GUZ7Es5Tj8K/RWG0SC2itkUBYkWNR6BRgV8d/CHQhqfi1b9tx8+9kuD36FmP8AOvuB7f8Au9fSvW4hxHtMW12PNyOk44a/c5xrcjPr6Vi3VuSWA6CutkgYe39Ky7mAIC3XPWvETPXaOWMLdqY6YBraeLGOOD0qI25YdKpSFymA8TP90dKZ9mJOa3xbhc8c1GYD1x+FVzhymKtu2RngVbjiC5AGMmtIW7dhVlIgByKOYOVmfHDkcirPlLjBHTirioAOKcY8c+tJzFysrBAo6UFQegx9Kl2nvTcHqKLg0QFOOKbggEEdqlbA5PNMODwOpFXGWpEkfPvxXTfqunsw5jhmOe/JAH8q6r4VWYtfCgl24NxPJJx+Q/lXOfFTjVbMPzmCTn/gVegeA1jXwppyqeDFnPqSTmvczSrenTieTlkP3k5G7faha6bbNcXsixRLyzN0H/6/TvXzf8b/AABb3EI8XWUWJIsJdqB9+LnDEf7Ofyr6XuLK0vMfaYlmVCGCuMgFTkH8DzXk/wAVNTItYdFZf3V5kyYPJVex+pro4fxc4VHT+yzLO6UXT5+p8d6Lpjo6wJHmZDtj/wCB8DFfoD4L8Pw+GPD1lo8YBaKMNKf70r8sfz4/Cvka30S4W8HkIVOQ0bHjKj/69fU3gPxXF4itWsZQVvrJAJl7MF43j+tLiGrOVVJ7IWSQj7Nvqd+YgfbNfOnxo8OhZ7DWo15O63c4/wCBLz+dfSe0964D4m2a3PhK6PUwtHInsQ2P5GsskxHLOVJ7NFZxSvGNXqmcr8H73Ol3OkMRm3cTID12yDB5/wB4V7WmWAAr56+E++LVpozxvgYYPfDDFfRMQ715FePLUlE9ShLnhGTLUaYxV5E71WQZxxVpRnjtWVzfqQGNri4SMDKKct/SugVML8vQdKq26KucHFakIUnmp5h2YxIiDuNXY09aNoqaNfmBpcxXKXoIt3Jq8MDp24qrFJsz3FSmbiociiTksB2qyOBVHzhwevNS+coyBnApcwFm5ujBAPLGXYhVHuafp0AsocEgyMSznuSagJU4YgccjNI83OT2oSHc3RcKOpxXjfxqeN/DMTKc7LpM9+qsK743Rzx+Rry34tLfXfhG6azTfJAVmA6/KhJY4+le1kv+8W8jx86u8Pddzn/gHe40HWbfps1ENjP9+Nef0r2qW43HFfPvwIa4fQtUvJYjELm7XGRgNsQAkV7YzkmvOqq1SXqz0KTvTj6IllmbIA6d6qSSknGaU5POOlRFWY5AzUFkMjM3eqrbvU8mr6wM3bpTjbMBnHBoEzHbNRMM/wCNazWo9KZ9lzj0ouTZmE6HdnNG01s/Yzn0p62Dtg4quYOVmC0bHmmG3YjmurXTGGNympfsKgcjpRzIfJc4R4W9OfSmLEeWIrsJ7ePB2gDHQ1mvEoB4o5kS4WMLyueagZSD2rWljABNUWXvTuCRUYkj1qm4weOnSrjZXOazJThyeg9KpSAbLtHJ61S4Z8k1PJkn3qkzH0p8wrCyP6dqplyDxzUsjHBxVRiQcUcwmyQyZqIsc5/WmGmGjVi3HPLimNJx1oPpUW3jucUupXKDO1Qs3apipxUTAU0waICx5NMJJ61OYzjimFPaldkEBBPJpCMfSrAQk89KQxc4ouNFdlHU1GUDD3q6IjjGM0nkNngcUrj6GeYmHTmgxNjkVpCAnqKk8jp9KHMaiY5jOOaiaMMQBnPtW21ueOM1G1sB8w6nrS5g5TIFuwODwD3pfJI61qGIflUbL7dqFMOU566097hWh3lVYEZ75qO3tBa26Q7iSgClick49zW+y8VSnGVIx1p84uVn/9b9GIpiRxwP6VZ8/pisbzWA4qVZN3y5rxz2DU38cHg9arzXNymyK3XczNjcfur6k/4VErdhxUqnimBrQscLk84HPvWnFKFB3nJNc1Lcm2t2lCM+xSwVRktgZwB3J7U7Tb6a6sorm6ga1klG4wOQzRg9AxUkbvUAnFIDojIADjmoHcMfQ+lV95xjNMXg9c0Cv0LP0pysQcnjmmAjgYpw60BZCkluPWlWL5felAGamUYGKLikQNFxXn3xIvF0vwZq10zBSts4B92+UfnmvSGYAH2r53/aG8QW+m+CGiyS11cRxhcZLBfmYY69BXs5JBzxKt0PIziajh3fqcz8CNAEfmXzgbreAJ64aTn+VfSLw8V8DeDP2ho/COnS2R0dppHlLBhJj5QMDJxz7V0k37U+tzKTbaJGoPALSH+WKrE4LFVq0pqDFhsbhqVGMHNH2NLEpU9MViXEKlecZHP5V8mp+0H4xvyFi0+0jDf3txPP4irtx8XPFNnqmnLqEkQguAWZFUdB6nrz2rGWAxMIuU46I1hj8POXLCR9KGEkUzySeO9aemNHqdnb3sYKpcQpMFPUbxnB+lX/ALKOvQfSuTmR2cpgLZtkbuB9Kf8AZFQc9q3jEoXGaqvGAe9HMHKZLwZUY6io/JrTKY4qJ19aOYTiUhGAKa4wMVYbge1VnOWwaa13E0V2XqRUNWGFNCE9BVMRWZQRjP8Ak1XHlxERqeQOh5q+wIHIrIhhM073THjJVR7U09SWtDwr42P9jhstSJwFd0OBySQCPr0rzbRPjddaPolvpVppfmvb7wJJZNq4Zieg54zXuHxc8Fav4s0KK30cKbiCdZQrcBhgg4P0NeP6D+zx4luGDaxdQ2oJ6A+Yce+OBX231XC1qMJ1pW0PlFXxFGrKFKN9TU0n4r+JNVjmlZYIDGCwVRuJ79T/AEr0PwW0HxDtjqOu2v72zbYp/hZX56Y9RzV7w58EdK0CQy3F1JdE9VIAX8sV67p+j2mmWwt7OJYkHZRjP19a8LE16VB2wzPWoUqlZXxCOO1rwjY39uiW8SwSQLtiKADj0+lc74J+H8/h7UZdWvJg0rKyBV/iDdyf6V7B5LHn0qG4icISP061zyxtSvFUnubQwcKDdVbGe08EbbXdV47kCuR8Y6jpk2g31obmHc8XTeM5BBH8q8R1LTfGE17fzzwXDRxyts4PKk8ECvMNQ0/xK1w6yWtwTn/nmxJ/xr18BllWE/aNnl47MadWHs0j3X4coo18EMNrROBjueDj8q+iLaPcQOfY9q+WPhD4f8SjxBHqN7BLDaQo27zQV3FlwAAe/P4V9awRhQK8XHO1eSPZwSvRixjKq/dPSpIyOgpTFk+1PWILzzXJzHTYsIxHSr8TZ5rPBAAqzE6gYNZtlmqj44Jqzvwc4rLD4qXzTjA4qncDR83k4qQOcVnK3vTy7Yxmi4F/zsdeaeZk96zA5p28FgScChgaxlLIMHiml6gzx1pwK4yfzoXkA05yT1xUUq71KnBByCDzkGpm+cABiu1gTjuPT6GmttxkVcKs4PmjoyZU4zXLJFSCyhtrdILWNIYk6IgCgZOegqRYCxPNWEIOOfyqcFVbAqbt6jUFsiBLcAHdg5qZLYE8AVKWAoEoTmhyY+Uf5Kx44prxLIdtNafc2cimGTmpu2VyolNtGBgjI+lRGCMD5RUiuMDJ61IDmlzMOVECW6bsEf8A6qvCGMDC9BUJIB5pGnHRaOZjUUPkCAcfrVCQA8npT2kHrmqss/yEcUXJZQnwzHHFY8mDxWkzjNUpNuD61ZEjKnjzgHNUGjYdRmteQgA5/WqLuMcc1SZJmSxZJPWqbwg1pSOQMA4rPaQZIPaqJsVJowOR361nvEB+NacsmeBVKTHWndkmY6HJ5qo/Wr8g7VWKrmruLlKvWo2HQA45/Spm4prYzzRcZER196Xae3SpABRwOneldARlaYYwenWp/b1oC81LkBGI8ijyV71YGMUqrnNJsdissIznnFK0OPm9Kt7SBQelJSHylLy++KcUzx3qYDjpzQetF0NIhC4pSvFSsKb3pNjsN28VE696nIwMYzQsYYcCpuOzM9wOmDmo8ZrSeHndjNQGBuCe5wKu4jPZQRiqUkQJ+lbhiK9qgaJSDkZxRcGj/9f7+8z170u8hsg8VWcEjP6U2P09a8c9X0NNH5BNSzTzQxloIjM2VGM44PUn6VVVh0PXPXtV4D6VWliy4sgJwOlDE5yDUCHB5p+7ceKyYF1ZCcZqdX4xVIEDkAGnpKQ2DzVJ6AXd/rUoes5mBY9+akDcUuYC/wCZg1KJSBntisoyHjGMetSK3HJ4PSjUGi67lgTXzd8evBfiDxXY6cNCg+0eRMxeMMBkuMA846Yr6BaXHFMMmfTFenlOY/U6rqWueVmmA+t01TvY/PSz/Z68e3smZLaG2HrLN/QA16Fpf7MWtKifb9UtY+5ESM+PbnFfYzOTyKlWTIr3KnFlbaEUePT4Wor45M+Yrb9nW2tfml1ViQOdkY6/jXYr8HfDVw1rJqe66a1bKggLwPU8k17NM3y1UBI4/SvNr53iKyafU9HD5Jh6TUl0HIscahI1CqoAA9FAwB9BTJHJOO1PzVc9SSa8g9cjY9jUEnNSlTnkZIqM59KqIyufrULZqw+c9Kb5ZJNNMloz3DHikSJmNaKxbjg1djtwBgd6fNYnkMCSHHGKBDjnn8a6EwZB4GPpUPkFzxyKrmDkOWv45DGyQDLPx7D1NOS02Rqq8gDFdIbQnqKelovAxxS5xOJix2yuuGFWktQvQcda2UtV24UYB6VKLcrkYpOo9riVPW5lLGPzpskWBmtOSHg9qqOpc4pqQ2ihs4qNkzxitf7MODn604wqB0FCnZ3RLhfRnOvbEj5ufSsx7SNmBaMN2ziurlhJ6VXFpg5xXTHGVUtJMweFpXvymZDb4AxgfStFQetWRAMDjpUiw464rFzbd2bRjbRECrkU1vTFW9gXk1BIo6jvQpDasV+nBqRDtPFNIpuSDQIuiUe9IZCTxVPcc0u7inYDSSbNSeb2rMD5P0pwkOf507sDQabHShJd/tVEtj5aEkI4pPzCxsJI2PXHFTGUgAjnPWs1JcqPyp5kzwDT03KRopLng1E0vzECqfmkcU0t0INTzBqaSSqBzwabNdCGMv1IHA9apBvWoJFDypIWOE7ds+tNAaltNcNDmbgn+XvVguVHXOayhOcYHWniYgUXGmXdzHPNO35xjoP1qn5uVznrSCU+tILF8zFelTrcfKCayS2RQHyuKBpGjJcZGB+tJ5o29azTIB1pBKMcGgGWZJufl4qjLKTk54qOSf5ulVJJc0EoSRznOaqyy4HBpJJVyQevpVGRxnFVclhJIWPNUnkwODyKRn5wKquxJ61RDQSS4Ge5qk0hUZFPkI7mqTMByau4iSSTcOO3rVAycnHeh3Jz6VVck9KYWHM+c1A7kU1m7VXfPTtQA1mJbJphcdAKRgSPaozxz60wsiQPluetSZIqBRkcfnUihuAfwpCsh67icirIx+VJHEQOasqgqWx2IgKkRQD+tO284NScVDY0iN1GKaRjtmnuyohZjwO9CkHpzmldlWQwp3pDH3qbvzSE4qmVykBTNTpbsVHvTl5qQucYFRcfKQGJc8c0qoFBIqXdxTSuckdfypByiFVOcY4qJlOOKUrzvxzil5Py+tO5NiBgTjbjIqGRMnHarewjINQSKWBFLmKaP//Q/QpIgwyBjFJ5Cbs459KvJEVQA4z3xUe05wa8c9exSdMONoq0BwOaeRxg81Kke4Zx9KLjIwOMk9akX7xxUpt5Ow47mnx25C5PJqGBFyOlNyxOTV1Y+56d6BAN2aVwKw9afkn8asNDTwmBjHFAFUjApRmpiMcU0baEwIWFNVSevapjinZH0xQJoj2dqD1wBxTmYdqbvAPrmq5g5SN+Tioio/8ArVLI2OeKreZ61QwK/hTCKlzuGc0ZFUmS4lYrzSFeKlftSD0p3JIBGD14NTiH5cUDjmrAYECk5dhpDUhRe2alC4o3Y6U8NkelLmZXKSKinginbF9KFOBxTxmi7CyIHjUcgYqILk4qy44qIpt60+YGiaOPAzSn2GaaCw4qQcmldg0QGMY6Cq7xJ2Az61eZscVUbBJzT5iXFEDKRUPOanZwTUBbPAqiGncTA7UhwDUZYD6Um/jNArDyy1GzgdKrtKD0NRNLgdqpMqxM0nHNV5JQFqEzAHOKgabrVEOxO0u7GKAwzzWc0+1uvWk84gn5uKtXJsjQL+9I0g4ycCs4zE85oMhPfrQrhoaAfk4PFBlANZwkxwRQZAPeqQKxfNyFIU/xHAIqQTYrH8z5uOlWFcN3Ap+pRspJ/wDXq0rEqDWRFJhf1qwJMDOaTSAulj0FM8xh15FV1kNO3560rIC2zd84ppJIwaYDmnD0oAeh7VLnjrUK49ak3KByetIErkqDC4zk0ZI781Er8U0sTRdDSJWOBmofNKdKCSeppmPxpOQ/QVpS3IppYgdaVkOcim7Dzxk0cxJASeoqs7ZFXjCfx7VAYDRcSRmupOeeTVNt3pmtxohjpmqZgJ7Yx2qrg0ZJ45PB9KrSoVAJ4zW39kP8WMUj2oIx+RpqQuU5tlLHgdPSq0kDehBrqfsyxr8vUdfeqroMFjQ5i5TlGifO3HXvUXkPnArpJYhjoKrugXkAU1PQOUwDbPz60w2xHLcVtkL1xVWQDrQphyGSY1U8cVEYkGTirrqc8UwrnrVORPKVUQDr07dqkCqpyvWlCHd7UpGOnep5gURwPPNAl5xTOR0ptJy6F8pKHz2p4bPeougpVXtSuHKOY5FNHHIFP28+lLtxyKOYqyDJ6mlAJ5pSKaOOKHILDgD34xTlwDnpSFz90c0oBNRzF8opPGRzUYc7iCOKRYySeOlT+Qy8t0NFxco1Sqgk5NRSTKpB25B/SrIUdulMZBjA71LYuURXyM4qpIW5Tp71bHyrjHTjioGTnNLmKsj/0f0eyMYqMjmoRKMVIHGDnrXgqR7jSBwDjP0q7CVGOOao7gevNSq42gDrTewuU1GdegpQQAc9DWWZSOlWRJuXOeO9RcEWcqOtQk5bNQGX/wDXUT3ABoFYus+MCmmbHQVQM5OCaa0zevFOzFoXDICOn1pu/jmsx52DEdv50CfKnHp0q0BeMgDYzTWk4/Ss0TFuT17VI0i9zTSuIsmQA9eaQS5OCck1RMgJzTQ+TjFOwlcuSSDd7mo969zVVmy3HUVG74HFPUZeD7R1p6vxk1QEgyFY8kZp4fHei7EXN4zTS2HAAPP6YqoXY1OHJAbuOtMZYBJNTKMe+ahiYdD3qyvAqWwFC9zTgnOKT09KmB3HPSldgSogA9KkPXFRB8UpfBFICTHGKgduQPzNPMi44qFmUjCjmncCU+3alJ5xUCkgY607nbkmi4DncAVRYnnnrUrtnjrUJYDvzTTE0MYADFVWPGc9KmlkGCR16VnySCrW4mkOlPGSartMVGGqBpBnBNVJJR61djNssmUZqB5MfNkc9qoPOw6nFRvLz7U+UlstNMT16VXM4wcHr3qs8gwfSqJnOD+laJCvcvmYk8dvWo2mY8ZrN80hs54pBM27nmqJ1NMykAelL55HHr6VnGcfdH/6qPMIORz9KEvMLM0/OGB70eYcc9KzN5I/Wp1JK4JosBdMgyMdKlSQ446VnjrUqkqCadxo10kOwCrIPyAGsuFiVHrVzJJGOlS5FJFnzAuAetO83jIqryT60vI6UnIfKaSSHGSP15qZXBGazY2PQdKnQEH60rlcqLJk67e/SpowSuT1qqBk8VPQNRJlz1NO61CCalBBHFAC1Iq598UwA4459akjHPTrSbAcVOeKXnI96f8AhSEcc1N2FrjGFM20p6gdaXGRihsfKRFF68UwxKetWChIz6UYwKLsfKUXULwKrMB06VoSYOQOapuvU0XE4lORSQccGs2T5QM1pyJ+tUJY2znH5U+YlxKLMKpSMMkY4q7Irg4AzVNw2SCO9O4uUrnAz3qJhkdKmZewFQlTz/WmmDRWkAxiq7A449atMuc0zyj0NO7E4lTPtSd8VcEGcikMBPbFHMw5bFPaO3WkK8VpxWTEj09an+xge4pOQ1EyY4Wxk1Js54rXW1AXA696je1AGRwaXMUomfsB4pvlHPB4rSEHy8+uKVIOePxpcw7FYQDjvTHg2sDjitPy/QUnk5wxGfap5yuUzxb7wCB9Kd9nwK0gigcCm7TnFHOHKUPLKHnHPFSdRg4OKnbGcH/JqJsAD1o5hcpEyDqOKYYcn6/hUwHPHNTKVztHUUnIrlMpkIJ7AcUx0xyDV+UBhz0zn8qq5GCT+FQ5By3P/9L9AI5go5/Wplus/d/SsVpwR6UiXC56nPQCvCsj27o3DcE8dM06Fzu4JrFWb5jnk9qlW58s9eTTC5vtOByelKZRtwDxWAbvcQPQ9BUpudwxnFLlRNzTM4Xk/wA6rPcL16VRaTbz2qm0vOe2aLCcjXNyMZB4pPtAIHNZRmGBg9aa0vvimJs1POBGeoNMabAyvWswTbVx1x0pnnDGQeTQCkawlAGc8Gl80EnBrIWQHknGKcZfm+XtVJA5GmZQPamGUleDis4ytjJoaQ8ZGAaoXMWfOOSMjNOM2SBVDPc0uQOc1SQamiJkDYyNw7VMJecY4NZ8YXO7Hzdz6irAYfWpBMu7u54qWNs8YqpkdCeKUkmMhDj3pXLiruyNBJAjZNPnu1hQMo3MzKoXPJLED+tcB4O03WdJ0mf+3LuS8vZ7u4uMu24RxM58qNewCpjjGM1i+F31jxVHdSeJ72ON7a/jlSyssoYFt3Yosrn5nLsAxxwQAMeslqm7cx7HvPQGnhmqgsyLwD+dSNPiqsjMt7qVpMetZwuSc8Uomwc5pPcC6XB6nFL5hrMM3oKcJgTnpQ0BfMp7cUhkOOvFUTKexpjzN0oSAumTnrVKSXnNVjJ71A8u7gf5NVYVyw0oxnPPeqEkuTSu2BVFnHc1aRD1CV9xP86oSymM8c+tTlqhkUZqkS7kLtu4PQ1Az/pUzZHTrVVgQc1ZFiN5GI29qgdiAamZc8jtTdoIxigZnvKx7YoTcxIPWrTQgg09YgvSqugK205xmpEQ+4qykWRk8mpljxjNJgVx1q0oIH0qYQDr3NKU4x+VO+hPKRDI5pIpUkG5HVx0ypBH04zS2ym5VmYFUOVweDkEjP41R0Pwzpvhy1ex0oOsEk0k5WRi+HkxuwTk444Hak5Gvs7Rvc3Y8bQB0q7GOBUUMIxxVxIjxSBKw3ac04J+OashABxRsHJqeYYRoMcVOEAHFOUfKMU/Ge1JspRI9p9alGe55paWMgjnoKEx7COG8tio57YqxGhZFLLg4GaT37VMrjp6UXYEkahVx3p4Qdf5UikduDT8kVDkMaR7U1iOppWxnJPSoWcHpzTTuApxmmnHftTd6jvUZbPPak2BYDgDOc0zzAMk1WMvGABUJfHJPtSux2JmdTmoThh7VA0gHfOKgaUYIzRdiJ5QvbrVGT0oeUDvVUzHJzRdgKyg1VdVJ6Dmpi+cGsm/tZbpXEd3PBuXbiEqMe4JUkGquS11JYJLa683yWD+TI0T47OvUfhmkmjRTgDn1ryLTJ9N8Na74hj1XWL1YUe3n33E2AokQIcYUZJYdgTXpsFtam5iv45p5AqfKHkcr83OSpxz6ZHFMEkyUx+1LsG2pWcEnAqP3zQ2HKQIQWKjqpwfrUvbpUSqomyvQg+9WWwKXMi1Ecjeg6U/J6VEGUZJwMVGZgpNSyuUt54zTDknNQG4QUxrlegNCY7FnPP0pwYDtVA3ByO1KtwQ2M0XYF/cKVpcDAHPaqJnB4J49agluFHAOfekwNHzF2c9u9QGXPPaqHnlRtzTDOSaBNF5pMdOmPxqEyZGDxVPzCDnNML5P1NAlEuJJtYYPSpPN+bPY1R345NP3YOCeaTZRYLc4U8VC+OOwqHzNufU0xpBjH41BN7H/9P7VMxYYPemGZV6ZJHUVnpJuGTTlcEEn1xXiJHrs00uAx44HSpFlHJ9Ky1cA8cCpRJ09+9XYXMy/HLk5Hb1q00o4rOjYH6joKmDEjOOTUNCcidpGPQ8UwuajyaT9aRHMSqRuz1obk0wHaacMGgoTBHWhkxjvkU/IOVB5pMcimgKl9fQaZZyXtzuMcYy2xSzH2AHJJqPTNSt9VtxdwK6Z6pIu1lz6itAgFcEZpFVEHCjJ644zV3HykgAwSetN7UFsjqaiZ/U0CHFgD70gbvVE3KMSqnJ9j6VJE8hJJUgY4Pr61aA0Y3YZ6CpBIelQLnbnrnpSEkdOtFkBfDHGD6UqOQOKpAnuOtTDPQ8GoaHdlzzlAyajQQQuxiRUL8sVAGT71XYke2Kjz+OKFEfM7WL3n7sin+dgYPbis0Fuq08lgAf60OIcxd87Jx0p3nccnOPWqAZs8CpiG6YpWDmZMZcilWQ7eO/6VXMbjr+XWpB0xTFzMsrL8pzTDJ3qPGaCoxSSBsYzbhxnAquzlTleasEYBzwKryDvWiYiN5GI5qA5IPHNPbANQlu9MCPnGT1pjcc08k5zUErbeTwKAEOD7VEeOgz2pxYEAjpTCccdBT5mJIaRnpTMc8etKSQCaiDfjT5hOw/b7YpeDURYnoaVM0uZiZYXB47U8e1QbgBj1p6tjA7ds0+YRZDDvyafmq43E4x+tWMgUrspEykHtT81XZvTikEnzY5pFXRowOu0jP51cEo49utZlvkgn3qcE5wOvrVtAaaHPNKCozxzVPcQKTcTxU2YF9XwPWnI/YnrVRCcYp2QvWkVzMuBgRTlOOlUTLnpzT1kyP6UBdFzeetODcc/jVMy4FHmccHNA7ovedgcGp0nBXmsYSE8qaUXGOtKwJmq04II/Wq7SVQafnI/WonuSB6/SnYZoF8n1qMyYHWsw3Rxxiq5uCxLE5pNC5jV80ZwKgebdk1mGd6ieeiyDmL7SqM81Xa5A4Wsx5jyhyR61UDsO9NC5jUa4wMnJIqDzzjP6mqTuQMnJFVN7H1HtQHMa32nI4P41D5/wAxHoapByPrUbM2SDQkHMeGeJPAh1H4taXrt27S20NpLJDb/wADzxuCrNnqUBO0fjXvfmBTx+ted+LbXUJdU8P3tjdfZfJvWjlbyRKzJMhBUbiAMkdfyrsd7HrTluTF2L/2jk5GPSka4GzFUeQKYzEHmpaLuTPPzgZ96m+0BsKTgdBmszPPNMdjwfTtRyi5jVa5QLjv6VWNwMnOTms8mmnJ5qlErnNE3HeoRJ79qqMcDk0c49KnlQ+YutKR8xIOTSC4/P3qkSaTJJyaLIOZl4Skg881E0pIHXP1qtv7A0nmZ4xSaC5a8wKMscU3zlBz+lUWkD81FuxzRYnmNAz4Oe1N88k9eO1Z5kJ7U1ZMe/FHKHMaQuCOvSnmc4+WsovnPXn1qHzJBwTxUuAcxsmYD7xqGS6AHXNUPMYrj9agd/4TSUQcj//U+so3Y8deO9WQeAMnNVYMcknnjirWRnBrxYnqyHxklsHp71YGTgetMRCOcH64OKab2xUZkuYUIODulRcfmaoRaSIqecketXUHvUFvNDc5NrJHPtOD5UiSYPuFJqwHywz2POeKhsTF2859KAOCSOvpQ0hDGnCUY6dKRKQuOmaZuGSB244pSQ3r7UzdsxxQUxsUKxSO4JzIQxzzgj0q2Mc1UL5Oc4zUiyc4IoBMs7eKeIyykY7UseCKmBCrQi76HLzPf6aZZrtvOiLfwDO0AcDHc1lSx3GuW6xstxAspwzfdwvPb36V3hEcg7MBVZj0HYdK0JM+00u0tQoiTkKEyxycAY6mtBYwOKaGyealUZovZASiEkA01oVP3etW4iqrgnpTyynoO1SpAVkiwasCEU3eB14FSrJ6CjmAYbVW4Pel+wjPA5qYyY6c1IrjHBo5mBD9lWNAO/p6U5baIgqR1pxzn61MroMc0czGhn2ZOo4xT1ijPXnHemvJhf61Q0u9lvoJZZbZrfy55IlDkEuqEYcegbPApXYjSMcYqu8IAz1FSt1OeaMcdapX6gUzGewpuxgdhq8AKaV6H8KYEAgyPU1XeAk8jv0NX6Q5zQBly2ueVFRNalUz69q2GUAYPWmMgIxVJgYLQnv+FY12sss6WsY77nOOw7V2ewcjGarJaRozSD7zHk1QHPLCSMAU427EZXJroRGgOTjpS+XHj5RSugucybaU84x35qD7Oc8V1oiVgQ3THSq4tIlJYfNz3p3I5Wc/9lzggdakFqw4PY4reYKOKAq45oDlObeBw+zb7g1aWzbcMjHethtoHTpz+NRmQE9OlND5TP8As7YOeMHj1p6wr0NSl9zZA4p2R170WDlGNajbxR9njHU9Kc02QFqBphnBNJC0LaKqDjgVICvUCqSylxjINSo46flV3uVzIt4yfQUoAxntVcvjgf5FQvMoBOc47UMTkaIZcZU1AzhjjP8AhVBbk9QKQzbuemaEg5kXC+3jPel807lx+NZzTAJk0omBGKWg7mmz578UxpG6CqPmgHg0jSk4x/8AWouhlktICQDkGpNw61UMmB160wyD+lIaZO8h5x0qB5cAHrUbSr2quzDuaVyXIsiUk4qN3C9O9VvM5NMeXOcDntigm5ZLmoywY4FU/OOcHGaaZQvIptDcidipPvUfyk4x0qpJcYI2/jSedgeuaVg5kW2PFVyF6dKiDGo3k/PpTsUTswXpzUbSKeQciq25if6U3dzQmBxnjzSLa5sItbd50m0uWGePypWRflcZ3Kv3uPWu1Miuu5ejYIHseawPEq3VxoV/BYwLcTPA4WNn2Bjj+960zw7ey3ugaddzR+VJLbR7k3b9rAYI3Dr0oYLQ6EtgcHNV3Yb80wsSDVWWQKdx7DOaQE5c7j6HpQWHQ1TaXcu5Tke1PDFlDZwTRcCySBx6VESckVFuINKZMjAGDTuxpE3BHIyR0pOmetM8wA4A/Co2lzz0qUy9icsPWmZHr0NVzIetIGHXP4UxXJc85FBY0zdxUJkPSgTY9iOlQk9ufSgnPTtUZU5yG60Ej+nSkJqJ2xjJ/CjcSCTnigCXNN6c9aZnJzTS3bNJgSFziqsjZG5utPBJ5HSq8pOAeOtQF7H/1frWMKTj7vvX5n/tDfGP9ofQvFmpPpA1Dw34ZivTptnMkMaCaSNMlvMOWPmcsvGNvfNfbMHxn+GF0kz2vizR5RbxNPIUvIziJPvORnO0dyM4FfC/7YnxT0XxCvhvSPC+p2OqwKbm8uJbWdZ1RwBHGpKkgH5icHpXn4WMZO0kdeJnKPws+Ste+KHxP1pGGseJ9ZuH3ch7uRVHsAm3iuZF1repQh5b64dJCN26WXJ9zubNZl1fzmMNtj28ZyCf69amt9RvhGqIVVQc8L3Pua7/AGUVsjjdWT3Z6L8OtB8ba3rsmm+HLu6tbiO1nufMtp5g7CAAgYRsksSAD261+4Xwxi8U2Pw78PWPjeUTa7bWEUd9IH8zdKB1LfxNtxuPrX5vfsSwy6h461rUp0XFhpexXHGHmkx+oFfp3bzmNBHzgE4z6GvMxDTlojuotqOrNszLjI60xpzxjv1qgsuOe3vQZF6E81z2NbmmHOODink8Zz0rOWUgYpplcnPTHpQO6L4YZ61YSQA7s9KzgwJwR1qdW2n1x+lArdUaYlyRk4+gqZZSQSxNZnm8elTI/cmrS0DmL3mIuRVZ3Jpm9Tk5+pqBpRn2pi5i2r9qtRsMZ79KzlbBq5GSVzQUmXVYE04n6iqofApwkP8AF0qWhky8kCrIAAxVIyZPBqTzgmATSsK5cxn8KUEKapNcDOAelILgEghqpCuae/HIwaiRgxyepqt5oPQ9B2qIzqrnAPTGfaiyHc0Tjp2pythcdABVBp1xyeDTPtKYOOQOKYcyNIOBxTg696yxcrgHoaPtIwWoC6NUMM46/SkLj8f0rJN2O3XtS/as8Ag4ppBdGmXUnHak80dB2rFluuwP1pUutoye9NoOZGzuB/CojJtyAPxrMN7mmG7H8RpWDmNRpQKh88dKzJLnjcpqE3G0ZPUVYc3c1t5IORxQr4zWV9sz1biozc4PXGaVgujZ80qecetR+eW9qyHuMEc5pn2xSODTSC6NRnbOc80vnc+1Yv209+KY15z7igXMjcaZc81SedAxX16VmNdAgtnHfHrVdrgNyT+dBN7mwJATgcUpkB561htdKilwdxHagXOME9/egDUe4wflx9aqNL82c/hWW8+XODwKiaXLZ71okBtw3G1W9qm+1qTyCKwEuMZB6Gpml9MGk79CeY2muSQSPzqsbglfSs8THbjNI8oCg/pQh69S+s5p7TsQMcVjidj+dTGTKn1NMGi20o7tjvz+lTCTnNcF4sspL7S2K3U0HlvGR5T7BwwPb1rrYiY4wpeSUD+KTlvbJoBGkJCOcjmlErAdazt+Bn8hS+ZnPtSaGaBlZsZNIZOODVPzARwaQyADg8GlqgLHmAGmvLkYFVi+eBUbPgYzVICzvIBzUbN6c1X83BIPXFRl8EtSuA5zhs9c/pTfcmkL5/CoHbmhsB7Hn1p+4beagzUbPnpU3KikWcsOh/A0wnjANV2m2qS3SolmB4obuUWyw7du1RlhmqrzgDPGRUPnHkikK4+7vbOzi8y7mjgjPG6Vgo569a4XwZ4g019H+xRStObS4ngPlxsygByVySAOhrq5xBcbfPjSXy23LvUNhh3Ge9YWkkW+sa5ZgEB5orkAfdxKuDwAMcigdzrDIG5U8HvVaT5wQ2CD1FQb8AKvQUjSrtzkfTNAidQFTaAAq8U7zM8VmG7hC7mdcH1YD+tH2636GWPP+8DSaGjTLjHWmlwOnSsv7fbHPz57DAJyaa2oQjqHPphCaY7mt5n51CZAvJNZr3u1d2x/wWoHuXf/AJYTHP8As/8A16BGuZA3Q1FvIJrLW6ueP9FlAHGSVwf/AK1KJrtiD9n2jnq4/ligDXEpHWoJJQDnPWqO+75x5YOMDOT+dMKXZ5eSLB7BSf5mgDRaYbsCkaQHABrPEcx58zH0XpSSQXD/APL06AHI2KATSuBeLZBzzQH3etZX2Vzy9xM3/AsfyFL9mjx85d8/3mJobFdGkXKMVbj2PaozNEoJZ1HqSRxVL7PbDrGCOnPNJ5MWNvlrj0xUBzIle+swCrXES5/2x/SqL6lacjzNwx0Cknn8KtqkEa/LEg9MKP8ACmsdvAAH0oE3rqf/1vyNOi2rkJHcoZCPuqUx7jjqD+VCaBdZJjaNgO4GOfwrmY7bB8vG4seoHBNdrY6UYoVcu6scH5SRj0/GnZLZGbk3uzLbRNQ53RxSL14PP4Z71Vhtr2C5KzI6jhCDgrmumNtqKj9zdS5OCQ2HH0HFKramuZGSOQZAbcpB4+lU56E2PT/g78cdd+Ct1qM+maRZaj/aixJL9reWJlEROApQ45HXIr6j0n9upZn8vW/ChhXIy1ldedj1+WQJn86+IItTkVV87TywAwSjAgH2zirNvZWetXcNhZ6dPNeXHyx28UDPI5wSQoQEnAGTXLKhCTuzsjiHFWZ+mOifth/C/VI1jvb6XS5W5xfWUyqB6b4WlGa918H+P9D8a2ban4cv7TUrVH8vzrdpRHuHUZkReR3A6d6/GLUfCd9puBqFte2Az0uYJIeR6GRVr9Ff2QfDwsPA1zqklxdyi4nlRI3lLWm3cDuSP7oc4+Y4ya5K1FQ1uaQq8x9d/ar5TzArLntJzj8qtR39y6ktZupHo6sCP0OaomFdxKEpnrtNTJJOFwpDfXiuflNUy0L6ZWzJBLjuFUH8sHmpo9Qj3f6ucZ6kxkY+vNZ7XMirzG2e5BB/TrT0vEAxuOeM7gRinyhzGm+pwIuG3g9fuMT+lPTWLAEIZjg92jdcfX5appcRtzuUn2NTCfGRyAetUkCkXxqVmx4nQgjqeB+tRG+ti2EljOTgZkUfzNVWnypH5cVSMduT88aN7lQafKPmOhF3AOsqn6MD1qyLlOqsCO2DmubMVqB8sUa/8BHP6VXa209kKNbR49AuBx9KfKHMjqjckDocDvigXSgcHJx0FcgtjYpkxoY8/wBx2B/nUhsoWG5JZgB0/eHI/GkokOTOuFzjgH/P4077QMEnjt1rivsecD7bdL64mI4/HNOkRYVAXU7n5j3lViP/AB01Vg5mdaZz2IxTkumHU454riTJOOIrm5c9Mnace44xUaJrT4Av2Az/AMtIo2I/ID+dJoXMegLd4Bz9aT7Q7nOQBiuFb/hIo+X1CCZM9BaKrD8n5x+FSJNqTj/j7iJ/64YI+o3UJBzHY/aOfmOMUjXGMFW4+lccX1MdLyPk8/uB/wDFUhkvkUg3YOen7oD+tMDr/tOBuz/SkF4vUngDn0rlDLdKMm4U/WMY/IEVF5l+flW5jGfWEf8AxVNILs61b1HBZc8HjNOa5deh/KuQzfp1uUP0hA/9mpfOvcEG4GT/ANMx0/OjlC/c6v7R2JNI1yV+Qd+vrXItNqGDi5XHTBiHT8DTftGonA+0ovv5IOP1p8ouY6/7WQuT1pn2tsY4z/OuQkN82cXmD6+WuPyqJG1FTlr3cPTyEA/OmohzHXmcnj2pom+owa5Z5b1xgXIHPTywf8KhP2/km8HP/TBT/WnylKSOuNyrHA5FNa6H3R+dcmzXRXb9p29tyxrmoVGobgTqEhHoY4/8M/rTcQudhJdnHB5qsbnA4OD161z7PcLhfPJ4/ujrVeRbw/MLsp9I0/wo5ATsdL9qbjNI1w2c5rliLzjdeu//AGzQf0qVTMPvTOcfT/CnyoTZ0bTgDcenrTGlL8E8A1z+HYNm4lIPoQP6VXZZAxP2mc/V8j+VJqwXOn8wKDniohOPujqO9c2xZus8gJ/iDYP8qjSB1ff9sun74aTj8gKQ7nSvKd4OaUybawAvQ+ZKdvQFzj8qDGrZ3Fzn/aYf1p3Eb8MjO5GMgc1aDY6g1zMdrbhtzBif99v8at+VAeCG9vmPH60XKSNssM0MWPJrF8i1I2lc59Se/wCNILe3XogH5/40heRr+aikqWAPXBOKBcRbSd6jHJ5HT86yPItj1jU/UZp4gtgMeWvPPTrQO6KnieS2m8P30buGDREEK43ZyOmDnNOsXsPJSMiVF2D/AFrnjjudxrN8Rpt0e6+zRwhghPzjA49Md60LFpWtI2uBGWZF/wBWDgjA9etNoLmst9ZRIF85AFGB82f1oXVLQZ/fqxJ4wf8A61UY1VSSQMemKmEmzAAwD6CkHMWxqdvg/NnHoCen4Uz+2LYcESk+0TEfniq7Ouf51EZdrADJ5qL6gpWLv9qRnJVXIHJyhH6VA2p72yI5cY7J/wDXqPzgR9ah344BwOlOI+dky6gxYgQSDHdgB/WnPqMwBDW746Z3Cqxcnr36VA5dnDE/Kvb1NEh8zJHvr9nJW0JQdD5yj8cYo+26kTxaov1lz/JaRZCRSGRQQD1paC5hPM1FnDskKY6fOx/pQzXxz88Yz6An+tP8zIxTN/PpSGQSf2iW/dTRIP8AajLH+dRBdR/iuEznqsYx+VWtwphYdBQO7IJIr1zk3zIP9mJM/qDSLbT7cSXs7n1+Vf5LUrMCDzTAx6Dsc0WEQvZ7iS1xcnP/AE0wP0rxrw9ry6r8VvEnhi8LYsLWJYV3kMVU5yxzls54r16+FxKifZrgwsjbiAoO7/ZOegry9tDtNG+IFv4qZIxdao/2WUqDub5PvMTwBxjFA12PVYbO1jXYqfL6Ek5H4mntY6eyH9wnHP4io93P0p3mHoTQWUo7O22HbDHuU4ztyfzosAD5kcsQVonKqdmFZSMgg98dD70+SeRXMaADgfMeetWMgc45pXEkS9MAAcf1pjn5doppfAwKiLjpg5xQ2PYsK2AaNxPJNVxJTGk/KluBbLnOBTdw/GqquexpRIeaIgTknPPSk5NQNJ2pgkPXim9gLJJXigv/AJ9aqtMf/wBVL5yhQSevP5VAEkhLDj1pmcDk1Wa5UDJOBVc3IY/K3agTRpZ7Ume9UDM3BB6e/FL5zMetOxBbY9hUDyAZJ7VXLNjHPHeoHcjPPDdanUux/9f8jrayeWdSF+VOTjstdmse9uOnp/X61maZGESRGPJAbH0/nWzbpu6DpUSd2SlZCSkhgg/hH8+asRKPKOATxk57VXkBVyD1z9atplI9gB5qW7ByhFbxsgyOhxnpXv37NmlRXXxc0y52c2cF1cBu64TaD+uBXhADYAXue9fV/wCyjYLJ4q1rU2H/AB66fHEp/wBqZyf5D8Kxqv3TanFXPvaVVuYzFcKJYyMFJAHU/g2RSWCx2plW3RIY933Y1CKcD0AAqISqAGY+5qO3lDRlsffdiPpniuNt7M3SS1RtG5J47GpIp8AjHpWYHPaplcL+NIZeaU8AdKVS3JrPMhY57VIJT2PFNAXPLi24KL9cc0RxxKPl3DP+0f8AGollXGGH41GJsYqwLbBgpxI4A98/zFV1kkZeJnB9eMD9KY82VxmqwkP3R35oBl/zJgP9aT9QBQrSscecfyFUmnB6cU0Sk8UCVy8SzNgyucdgaQKhI3Fmx6saqCTZyKaJyetVoLUuMsAk4Xr3JJqcMqjgAAelZZkZm3HgelO8w/nTSQXfU0fNLcA0/eQc1mrKAcdKcJSCcmnYW+poGZmzk9ew6VGxUtuJwQOo6/nVIzYHBzUZmPc4zSsIuPPKmQ43gd16/l3oSdJRlGzjt3H1Has4zjOOv6VDKyHJDbXHcdfzpga3mjHPegsueetYT3Mka75DvGe3BplhrFlqVuLmzk3xtuAJBBypweDz171SsOxvGU569KZ5pGSTxWZ5ue9RB35ycjtSaEarSg4Oc0eeOnSskyHB61L5hwvqafyA0RMoP+NNNxk+lUSzfU1GWbNOwF9pePWm+b2zVISmjcaLjSZcMoH4d6RJiTz0qqOfalGQcincaTLDyt64pockZzUTcjFNwelS2PlZKX7g80CRqh24560uaSHy6EokY8dBUbuee1GO4pMY5PPrT0HykZY96ep54OKYQCpB4FMLYyB0pOSGkXQ3HNAbNV0b9aeDSHyl6M9z2qUsKoxyHd7VZ3Z5qeYHEnB7ntTuMcVW3ADik8w+tHMCiWCeeetLvGMVSMmD1rkJPiH4Mg14eGJtXtk1NsYhZx1P8Oem72o5h8qOk12MXOlXURxzE3X2FWtNVItPtoYwFVYU4HuoP86p6gd1lOG5/dP/ACp+nyK1jbnOf3SDP0FK+gWNMSAHHelMmcVULDJJo34NFw5bFgtnB60zd6dKiMmCMmoPOJ6+tKwWLZbCnHWos/xVAZD07UjSA9DVahaxOz4560xJd3WqzScEA4qHeRwOtIDSWTmms4U81nNKRyapXdzttptjDzUid1UH5uB1x1osBo3mo2dhay315OkVtApaSRj8qAdSTXhs37THwet7oWa64bmQtsAtrWaUbs4ABCcnPpWn8OdSD2V5YXBZ5ROZzuXKkOfXoSO461+bHxCik0T4ma2EGHt9Ua4XjHRxJxj1rSNK8bmU6tpWP2Ct7+O6ghuIwyrKocLIhRwG55U4IPtXF+MfiV4L8AwxzeLdVh08TkmFHy0j4/uooLH8q8eX9pj4eWsMC6rcNFIYEOIQbmTcFGQUjBwc+tfNXxo+Pvhr4g6LJ4d0vRJ0V5YpDf3bRo+IiWCqi7mwT6kY9KqnRchyqqKufWWm/tNfCbWL2PTtP1C6muLhxFDGllMWkY+gCmvd4riOWNWXI3AEAgg888g9DX4gaH4iu/DmpQ6tpMcYuraUSwyPuYIy9CFBA/PtXsC/tN/GeR9i6tCd3TbZx5/z+lEsPJPQca8WtT9TtT1OLS7Ka+nSWRYVLbIUMkjY7Ko5Y18eeJv2mfCGt3SQaXZamlza3MRh82FQu5HAcEByd2OAOua+cbr9oX42XUZgk1ViXz92zjA5GOmOePWvJ7VtYnuZJ2iO/BckRYyzHdkeh3elNUHa7M5YhOVkftXZ3wvraK68qW381A/lTLtkQMAcMATg1Y88KcZzmvyZT4v/AB5WJbeLWtQ8uMKFURR8bRgc7M8e5qVPi5+0Bkf8Ty/A5GdsJz9cpmo9hI09vE/SDxv4su/D9ijWKobiZ9ql/mUDudvGcfWneBfF97r1tLHquzz4MfOi7Qyn1GTX532fxD+Kt86XPiC/l1FLYebHbXCqgeUELtUoq9QxI6jIr1aPRP2mtWvxd+HLVfDNo6qoQ3MALA87nZwWP0Ax9aU6KSJhXu9T7783jJ6VCZQeQRXDeBLLxRpnhOwsfGV8NQ1iNG+0zqwYOScjkBQcD0FdUXFY6I26l7zAx4pjvlgTVQN6UjSYBak2VctLIScKaUynHA5rO35Jccc54qQOfUnNINC35gY88HGc+9V3JXGOM85zmot5zg9KZMzlTsOGx8uecUEti5fpu4J5FN2uuFRyM59+tRFsbGZsNjGB0J70/wA04560BceAPunn3NPOD0wKrM2RuzUZmzwOKAuWy4WhZc9OKoyMzjGMgn1p28DjOBQCRaaQqCyqXI5wOpqtJMzdsdzULTMGJyMVUuL2CBh5zrHkFsyMFGB7k1DZZ//Q/Ha81LUYAZIZWjYc9B09OhrsfCGoaleac09+ow8h8p8YLqBzkex6VyQsdekYTG2hGcHBfgc559a3rWbxUuEWOzRQBt2g5FTK3QULs66Ri0oVgPT8KtmQABcZyM5Fcgn/AAlUsmGFpwMFhnH4VZ8nxEQW324wM/dPT/PaoaGdU0qRRmR24UZJ9Pyr1X4Q/tDeHvhbaatFf6Lf3txfSxMhhaNAY4xjneQeteDLb+JSo33MQA5+WLn+dULrRdSvJhPczxlzxxH6en+FS6SkrManys+y9R/bdZ1xo3hJRnIJvLzJ+gEStj8a4iX9sz4jybVsNJ0qEYxsKSyA/jkHNfMsPh25wUa4C55I2cjPetKHwtc8E3TggcBVAqfY0+pXtJM+hrD9s/4mw3QlvbHSJ4QceT5EsYYg9nDkj8q+qvht+0XB47vdFsdQ8M6lplxrRkW0nhX7TZTGEHzWV+GVUxySOK/NJvDDvIoluZAQewHb3rei0/V7O2it7fW9Ut4rcu0McNw0SRtIMMUCkbSw4bHWspUI/YKjVfU/aUTqBuYhR7kdfzqvLqljCC0lzAgH96ZFz+Zr8Y7TQr6+ugLrV9WnUDc2byY5A6/x96o3mg2U+r3KyvOY4BGoBmc7iRk5yxqPYvqy/aI/ZeTxZokGfO1OyjA/vXMa4/8AHqqN4+8GRMfN17S1I6g3kQwPX71fjefB2izMd8bNjplzUbeDfD2dptEIXjnB/mKtUfMPaI/YS4+KHw+i+VvE2kDsf9Ni6/nWVJ8YvhfCu2bxboysT0+2Jn6YzX5Gp4X0OJWVbRNrHJBUEcenHFMXwpoqsxjs4ssSx+QHmj2PmDqH60SfG74TRSHf4w0dM9M3SnOKwbn9pj4J2morp0viyy3NH5gnQM9sMcbTIBgN7Hk1+YsPhnSCWaS2jJIwMqOPTFRP4e0yCRjHbxhieu0c++KaoruL2h+m1x+1J8C4+V8X2bheG2JK3PtheaxZ/wBrr4E27ceIXmLHCrDaTPn6fLX53DSrNUO1Fyf9kU77HahseWvPbaP8Kfs49xOpc+/bj9sv4KQHCXOqTn/plp0uM/8AAsVm3H7ZXwxDMIrXW5GjAY4tNo57DJHNfDAtIN3CL6DA6CrvlxldpUEHAzimoR7h7R9j7Bm/bb8CxAvD4d16fHIUJEpx25Z8VnN+3JoJLGDwXrrhRn5pYFyP++q+Smt4V4CjGeh5pn2ZDwBgYx+FDhAXPI+qj+3JFM5it/AOpEjH3ryJevuAarv+2vqhysPgFwVGf3mpDk+21DXy7HAq9AAKl8qIMGCjjoaXJFB7TpY+g7j9s7x4byKe08E2i26qVkhkvHaR2PQq4Qbcd8g59qtx/toeK3ybrwNbKFydy37Y49Mx183yqrjBAxmqtxBH5RxznnNXyx6C531PsPw1+2v4Fv0MfjXR9Q0KUE4eBftluw+ow6n6rivefB/xo+EvjhHi8P67ZhocAw3RFnJgjIKrKVJHuO9fl6lhbyxBXjVwR1IB61nXnhHSb11aaKM7VIHyDIPYg9jSlTT2Y1VP2j84yBJLG4ikV8Bf3iuGz6EE1Y88Q8TAoe/1r8U18OSadPFc6RqF9p88JDRtFM/ysOjAbgAR9K9U0740/HrQ9gtPFxvIlz+61C2jn3DnjdgH05qPZT6FxlFn6wo8cg3Ie2eKkTaeM5+lfl5H+1X8atOsWiu9N0a/nQkm7KNHIVHYoh2mtyx/aw+LUunXCXeg6ZPJOgWGaOV4HjU9wBkH8cYqeSXYtSXc/Re11S3vNRuNPtkd/sgAlmH+rVz/AMs892+la21c9K+BvBP7X2n6PLHofjzw3LpFsFVku9OY3iqWOHeZThjk8krmvrvwf8TvAfjy3+0+EdesdTXONscypLn3ifa/6VLk1uaqCex3hj5zT9oxTDKqnDcEdqXdkZqFM09mx2MZxQPmGTUe85wKFfnFHMV7Mc/HAoC9vWoTcRrIEJGe3vTWkLdeKnmYOJMwI47UzIGKj3ds9aUPk80+dhyol3Y79aQtxjPWoi68cZxSNIAOnNDkOyQcH1ApApBPzEioi/qRQj4GKnmYuUsc9qcSB0NVhID1PSovP54PFPmY7IvxnB9zVpWwOTWakoLYFTGTaPalzMlxLYb3prSBapmUAev0qrJPvLRhui/iM9DVrUTSRcllBPHX6818Uav8KfDcn7R9i9xo9xJpN7ayXsn7x/Ka9iI+ct1GMg7QcZr52n1ZPBnx9urjxNrV3Hp9hqTzym3luJkYMNyx+WrnPJwR0BFe/wDiX9pT4YXWvWN7b/2tcRLb3MNwY7ZoW2yqdhTceTk9a15XrE55TTamfas80S2slsXTiJgF3qD0wOp5pNNl/wBAtwMn92AMV+Mmj+ILW08WQ6tq1xqd9pcV0832dp5TI6Zby1Ys3Xpur6Z1T9p/TtR8DyeF7XStYsrkwmFbyxuIomU5JUhmJYDBGe/Bo9jK9ivbx5eY+95vE/h6C8Wwn1OziumYKIXnRZCx6DbnOT9K2DKxGa/E3whq8Xh3xlp3i3V7V9UeyuRcyCVgZJWHcsxJ3Z55NfdOjftV3XiK4Np4f8DapqU/9yGdHOc9yBgD6mpnScXqONSMlc+xvMycnqKaZBgnoaxdKvbq+0y1vb+2NlcTxK8tuW3GJm52k9yO9XHlwCenH4VAy4JMjNIZBjg81QE+RnIA65pvnAZ75ouW0W/MAb603zST0xVF5vlGcZP8qhachN4OB+VBLRou46noK5TxReRafo95q62bXk1lA8qxxcSSbR9xT71ci1WwupDHDdQSspwypKjEEeoBqwJ4mPDDNVF2epL8j85/EHxQ+KV9Cj6Do97osVuzzLJDBLJOoblt0rKEAA9F49a8DuH1zXpbnWLuWS4Z5B5k8rbnZ25yTjmv2A1uYz6XeQTORG8EqEuxVPmUjkkgYr84NP0jT7PTdStlMZAnQ53jHDEcc811RqRtojjnGXNqeIW+kahJI0ZYbfQYXrV2fw7dWkEk7AELhueQc8HHPFexrpVlFqUbM0SLJFnl149MnPFGrx2MmmXkC3Vus3kEoC643Kc1aqX0RLXc8qu/DfkafNfAYKqj+/zD06V2WgWQstKgkVQpny2cAk49PavPrnxT4jdPsTSxGB4whCxgHA4Gc16Xo93E3hOwa6uIhOGIKM4Uqo46delEpvqSrNaG1bSK5IZQfqB1olnWN/lUD1wBWTHqNhFJl7qLAyfvjtVPU9SszFKttexRTbSUbhsHtx3qU2wskbou3Y9etTRzCRZNxyccV4TNrviUsVS6GB/cUDOPbtUw1TWJ0C3V0zLt5GQDn8O1XyuxV4ntMTF98TFicHavUkjnj3r9BPDOtC70jSJQVkNzaplkIIDKoznBOOnevyIijlFwkvnSK8bBwfMbOVPUHNeq/DPxmPBXipNXuvtBtVDNJBFKx8wgggBSxXO3cB9a5K9GXxI6aNSK0P1NNw+MHFJJcPGhdsKAOSxAH5mvkWD9qnRnbbc6BdpHgBWSeNpMe46Zryj46/EDwX4ttbLUfDmp3st+sqRzWplliiWEKS2UBCbtxAyCSfpWUaMpaI1lVij9EoruOZC8bIwA52OrDj6GkaZivPSvyX+H/iOx0PxpperazNM2lQS77hElkYHupMYYBsHtX3ND+0b8Nrj93by6hKxBIVbRj/XtUyg4uzKhJNXR7yZ9gK9z0qeOUmPdz+Xevne7/aG8HQH9zp+sXLkZxHbBePqzcVkN+0po8bKn/CO6soY8bmhH580uVicj6d89jzwOfrURkOcE18taj+05pEVtMlnoV+LoRsYjM0Zi3Y+UttOdueuOawNP+Pfj68sHnk0TTHmcI8T+c8UaoQMhk5ZieafKxcyPsCS7hX/WSRoAcZeRV5/EiubufHfg61RpLnXtNjVCQxa6j4I6jGc5r4N1uY+I9Vn1jV7SJJ5zu8mN5DCnsoLfjkjmq9vpulqwaGztlZe/kpu59yDQ0LmPsib45/C2BHWfxFasyvsHlB5Q30Kqc1iz/tAeCUkdbWDVL4KBgwWb4b6FsD8TXzpDDbNDH+5jXaQcIgADDoeB1rRJfbgsTScktEO56hqf7Q19IAND8J3TDnMt9cJAvHT5V3Nj1rkLv40fFHUkKW6aPpIb+ONJLqRR7byq59M1zTR70KnngjmsdNxUFuvpjpUtpLQpK50F542+KGp2sljeeIgIJF2OLe0SNmU9ctnIz7Yrmf8AhFdGuSs18JbyV/md7ieWTce52l9oz6YxV9GYDGc5FWrYsVKn14/Glz9i0f/R/MTyQBzngY+tSxRjHPWkBwMNzjvj+lTqoxhs/wAs4rmTLSsWYAGPI4Xge9XCoAyPriq8BUZPUDjI9atZHfilcYzYMZXvQYgTkrluMGpQuen1pSFxhqaTFZFNLaKN3kUYaQgsc5yelaEWEBXGT3qpDHyF9Dn86vKMNweCOnrWbYRjqDDcTkds1AxJyvJx/SrwGcdc0bA7Z6k0kymkbmnxDTdFl1CQYeUEJ+PSuHtVWRpp2O5nlJJ9xxXU65f74ILSHiOFBu9CwHX6Vylip8pW7MWP5mqvoQkXVjAYspwf0prKzNvBznr9akLLjbn60wNn2qeYoqzA5weB2psWQ2AT6Zp8zDefp/L+dLB0yec02wLo4T5ecd+9VJNzZLdM8GrGQBxVWR8sFB780uYBNuecdaUqpGafimtxwBkGhyAdGBg1FBI88fmvE8QJO1X+8VHRsds+nWrKEjFMclm5o5gGEGkPHPWl4xScEN2NCYCZ/vHFISc4OaaMAYNBZSSTnj1qgGNtBCjpUd2wWBu+cD86RjlskEVBdMAg5wCyiqTEzVCEIF6cDGO1SouOpphxnI79/wCVPBIXPQ0KRPKPfng1Fsy4bGQKcDuz2pYwxODTbC3cztShU2MvGcqf16VJCixwxr6Iox9AKsahGr2xQHqQD+NKsXOSAOAPTpRzB1KFwAxII4HSsh9J065nWR4VE+ciZCY5QR6OmGFbUwAbHXmmwqWlGBQ7PRlxbjsem6L8Xviz4esYNOsPFN1Jb2xGyO7jjuQVHRSzDftH1zX6S+FdaudY0Cx1G/jEN1cW8csiKcrlgDlfY/pX5PkYB/z1r9S/DQaHwzpBj+V0soOP7wKjiuOslF6HoUJtrU7fzVPGec0GcKCeOATknisiK4EmGByD+ntUF6WlXyI2K7+CR2HrWKZvdiW7Pd3pvjwiFlT3xxWuJO3as2MrCuxfu05ZwCd3I7VSZBdaXj/CkWfjGcVnibjBHNJ5ozg0rsaNQyAcDkimmQHkGs0TbR059qjec8HpzzTQjRM3zcdjTWck5BrK8wg5BpRcS5wBke3Wk2J36GsZiB16VW80HvisvUNVttPtZL69kEECD5mbgD868/n+K/gWIMx1eJ1TljGjuAOvULiqDmPV4pl3bc81YNwPXOa+d9U/aA+HWl7Sl5Jcux+5HC6n65Yc15h4v/aS1G4t/L8GRLpkkbFnk1C2F35qjtGqsoU/71UoN7GcqiW7Ps+5mkCHyNpkxxu6fpXnuv6H4h1u4vhZ6tPo32q0+yK8arMAe7gHoeevWvlXTv2mPFkOiKNVsrK71Ey5+0FGt4RGeimJDkkeua2pf2ljPaSW93oySMUIk8t3RSGGDjJyP1rWKkmtDKpNW0Z8m/G74cyfDzxNp2n2XiD+2VvIpJJnVBGYZQRkHazFic9W5zVTw1pMMlvLNcos2WBVpBuPTgDPSqWraLod5rNzqKfaLWK5kaWO2Q7win+EOx3H8TXY6Xc2FvBGpWdoG/jXAY49j3rtbODdA2naZChkkgi2jqzcAVmtq/hm0+/JbDnGNoY5+taN5P4b1WJra6g1GVQThYykag9iW6n6VyTaB4PkkcQWmqIUBYh5I8HB7cd/WjVrcG+ljr7O+0m/VvsLwykLllUDIHvxX3h8NvF3hzwx8N9EbUbiOy86JhtjQBnIPcIMn6mvgCxHh3QrcfZrS8Cz4JYtGXGf7xx0+lbH/CY31iqWqQyXEUa/u8gEIP7o5rKcXLS5pTkon3nd/H/4W2cpt7nXEjlHVTG7Eexx0P1pJvjv8OooVuW1CUwSfckEDFT+tfnm9vpXiXUo57+2mhmlwokTCKxz1YL94/WvQY9JsLNtkcK4jOFz82PXGehPeueUIp2udCqtrY+sW/aR+Ge4wW91d3EoBOyK1dzgd+COKxdQ/aKtmXGgeHtQumwSGunS1TBHB7t/9avknw8IbbxTcQR7VwGwFGMk8/1r0dolYZb1zWb5U7FqUrXO2n/aH8eSXEkUWi6XahMD95NLM/5jCmuM8X/FPxz4y0W40PU4dKjgm/ihSZJFPqGDjmuR1JNl7Io6HGKoOcDPSto2T2Mpzk1Y5LQtP1fwxqEes6bNAbmAEx+cHkQMeh2kgMR1Ge9e3QeM/indwlX8TyRCYBnaOJSwDDkLx8vtXmExUg7+4I+ld9orGaxtypU4UDis6lSz2KgnbcwfEul32o2cravq+o6k6IW/fzttz/uqQK8b0zRba74uS7MqkBgxHAPbtX0hqNuGt5cgYMbKR+FeIaLbrvdwSdrspH+0DW0J+5dGM4+9qMTwzppRvMEsm4dGkJx6Up8PaSAAlso9SCec/U10pUDp1qEfI/PUdq0VRojlOfbw/pWwbrZSPcnNOh0DS1Yutuo/E8V0OQwO7kikjAXnB4xSc29w5Ohyt54fs5ZlZYVTaD04z7/Ws6XQLUAsI/mAJ5rvZ0Bw3f6VVaEcHB+mKam0DpIx4/DumgB/IDFlU5yfSr9rounQzFltYzuHJI9K1bXEkERBBJBGPoaewK5xgmh1JByIpDRdIUELaoARg9eh61Y/syxZh/o0eUHXHI7dfpThMY2Gc5B7Yq9DKo3OTtMgOQeMg0vaPqNRRg3GnaeoVRaxgBgTgYzU99pdjc280awRI8w+8FzhhyDj61NezQxwvudcgZ5Izx361WTU7V4UbeoZlBI3DjPIPXvSdSVwsIunabwn2WIPjkhOGPc/n2q7a2dvbANDGFK55HXmq4v7bbzNGOccuo/Pmo01K2aQKtxHg853gjj36UpSbWpaSWqNnJ5qtflXt2bAG0qenpUUN9ZfMWuIsj0cEYFV7q/sJY2T7RHhgcYOd1Zpu9htmVeRIyswUAnpn0rpvDlx5mmCBjlonZT646iuIfU7N1XMoBIwAAT/AErR8O6pAJ54wzFWw42ozHHQngVFW9rlQO6IbzhzkOpP0xV+FdrHPQ1iNcLK8UkSTb0JwAhHUc5qKfX47W4+zNbTGQSLG3T7zDcMfUdKyd2aaXO5sQSjfWrZQ4NcfpviCa6HmWluDG2RiRtpBU88+3TFbKX98w+aKFXGf4mK/wCNYtO5poayxlqpyRDzGXOMetZn2vWjuKG1Qk5H7t2GB65NRxx6jcM73V/hjyFhjVQB/wACyT9aLMaaNLy1RsMRn+lLG4D4zweKzHtriKPfNcuoYZ3ySKuQD1qqY4XBU3JkZj90TAnpzjHNLlY9z//S/MrbjHt0NTA5xt5oEae5HfJq8IuABwMfTrXHexpYWEfKMDGfzqY7c49qdArCQEfw+vamN82dvbjApLuA7JIxnAPamOTkU7bhOTgikYZGB+dMBYnKMTjcKshtygcD6VCgUqFPbkj1qwu0cjpioYAiup3ZPIrVgVIbI3ku0FwVXnJ/CqjqZQghbGDyB3zTNTmBlFsMbYVwAPekBl3lyFQ9wqkk/h2qnp0g+wQ78r8vf86rao5W2lOcEgL+ZxxUwbygsWcBQAMnsB3p9ANEsmRtPXvRkY4/P0rOa6jGQCOnan29xFcKMjDc0h3JZhufoKVTgegoMX8ZP3RxVcTx4Y7sKh5P0p3uO1y2S2OODiolGP04pLeZLjPlknHUYwRU+0k8CjlYrCcmkzTwvXOQPypjkZweABzSHyjgTnANMOSc5oDxD7zqCRkc0zz7YcebGCc9WH+NA9B5B6VCCSTjpTWvbNFw1xHn3de3XvTRf2WMi4iI/wB4UC5SUnaM96g5zyCPekkvbRMKZAc8/KCf5A0q3Vu3G4kNjHyvz7fd600xWY7AHzHj361lzSbpYUxnMgHt/kVbmuA2BEk2Ack+TJyB6cc1gXOpWovrZ5CyRq/3nUoM/wDAuf0rRCsdoSFPPSnkZXjvXNt4h0tnZRcKcDrzg/pWtY63p32WS9MmVjwqgg/M56AetFhXRqBccHjNKOOh49O9YkmvWZk5LNkFidjdvwp8Ws2shAXdz0Hlsf6UhmtModV/3h3xU5jUI244Pp7VgXWs2sKK+H2bsElCoH4mqCarcXpaG2ktgDyX88Kyr64cDr+NNJgaj/MxPP0+lOh/1oPpzVN/7SgTMkEcvoUmGT+GMfWmpdXMLFpLY89B5i5/PpVWEzfUBxg9TjP5iv090C5QaHpoR+lnAMf8BFflQmpzswRrfYpIBbzAcDI5GBzX6AeC9buVaC3uJy9slugAfjA2jB9q5q8H8R2YeStY9kMxt5vPU/u5P9Zjsezf41omTgMCMHnIOa5VtTtkQvJIqqeTzxg1Vi8QafGWiadQgzt3HA47Zrm1Oy6OuaYEY6VH5ozwfzrkrrxTo9qheW7iGBnAdSfpjOc1XbxZpRsTfpKpQRmQDIyQPTmq9CXbudq0wA5PWoxN7/jXD2/jHRru1iuBdxL5yghC4LLnsfeqt74z0izheQXCyOo4jRxk0kn0JbR6D55ByTVDVLqWLT7ia3OJVQlSRkA+vvXAp8QNASMzXF0qJ8ue5BPUEdePWsy/+JvhxopVhaWZGQjeqfKcjtk5601FvcTkj03Tbue4sIJpyGkdAWIGAT7V418f9c1jRvCNtdaNeS2cpvEVnhbYxU9sitGw+Iug2ukwyXF0FdUAKKCWz2G0dK8S+O/jXT/EfguKLSppVlhu0kKOmMgDv1FaUYXlqjKtO0bo+edd8Y+Jdeh+wazqlxeQq+7bI5Kknvj2rOTTYkiAkd8YB2gnbXJaUL7U7pYJZQYuCfLJzz7n8a9SvX8LadqI0mSxuXkCqHcP8nzDPGWya7krbHDzNvVnJSRxxzJsG0DH8669xhfmIHHHSuci1Tw1ql8y6PA4+zghzMpHfHGWYGt0xxsoBUH8KzkyltdkMyoYtu4DBB57gUszxgsrEHcvJ45rMvIZRqC2rOVSSMSKygAjJxjp0rNuYrqKcRSTsSJlQ/KBkZ70rg4s2pYo2KbmXAGODmnrJCkQRSCF6elTbFXgDOOM1dVFa3CgcGmnqTZI5+OeKKU5wAxq6Nr7gnJ7YBrmb+11GTUljhLiJmwwX+Aeua7u2LJCu5iTtHPc+9Ob1BGHI8JhEZBO3jBB9arfa0DhMMc8EhTWtPj5nJ5JPFcncaQmozySszAgDaAxAqiZbnUW0yxSxyhcFHDDIruX1UXiGa1gc7s/fZUzjqRnNecQBkRIx2AGT7V02kIpurJmXP8ArEPPY/41zSScrm6loZ1iNT/4SI6itrwpKyb3xjI46DvXoK6hqbQ7ttopdGKq0rMSFGeMKM+4/WorWALe6hDLyEaNlz0C+gqG8s4U1aMlQNgkwMdA47VLgnItS908x1vxdqKSpeJCnPybGBwMdTnOc/pXPDxpqssh2QxIM7skFv5mk1yOVLiUgsSpTA7Zzg8VzrSEfMxKsOBiutU4nK6juaz+MdY2FpYlGR95VI4PHv8ApXqHhvWLsWNtbrdxxlx8ism5jnqDXlOlI1xJ5UhJUDHXNel6PBbi4hjC5ELFQ2eemc1zYiK6HRRnJnpL2+oXUIWbUpVyuGEUcafXnBI/OvKLLTJIp7om4uFK3DpjdjKjpnjrXrcBzCDjGB69a89uAYNYvYs9XVznrlhU0vhHUVpFdrUqoX7RP1+9v5/lWTdBLUgvNdcgncrnHB9eOa3WPesvxBbC78NX64BMaLIM9PlIPWt4K+hlLQykvYJTsiM0hI6CTc2OvAzVSbU7eMsm9wRxhpACOf8Ae4rn/h7HHb+M9M3ch5Gix3+Yf19a5vxpafYfE2p20YACXDnIG373OMfWtOTqQpnr1nEs8e4rKvPVnOT7jnpWh9htCD5oL89C5OD+dSWASTw5pF2h/wBbaIWOOpXg0uQeOozWRra5Wh0nTGBxAOC3IJyM9cH3p09lb7CgUgf7xPAq7ASpde4wc+uabKpPeqjuTKxwq6hYwzmNbSQSA7SQuenpzXUaXc2er2wnSIgDKlXHXB6jFcLD4Z1UeJzqEcQa088sW3gcEc/KT2NdtpEEcDXUEeCsUxK49KKkbO4olu4sLdg2+JCTnsCaji0/TliQC2i+UY+4KvyOXbcfXkZqvDGXi2g8Bjx6Z5/CkmNo5/ULa3gilmt7aHzApK7l+U47GuHTXblHHlRW6uecYOCfSvTp4lcPG2cEEHtXmkPhq+jnM5G5fMLAAHOD68YrWycbmbvseo2zRvawyMkZZkBbCjGSKSfaUJwAfUelVbETpbpHMm0p8oBGDirDfcIJFYLc1voY80x5Gcn9Kk0G6aLUiqtxIpB4x05qnMxDEZwfaq1myw6lbnOFLYz6E0p/CEXqenapDqcVkmoWzIY3wGDLkgn+dNa50lzFea1PLarPbwz74YfNzLExQrtyAM+vaugs8Xnh+7th/D838s/jXBapH52iQnoYpZ4SPQEbx/KqUbIG3fU6Czn8P219c6bpt5czzRTea8c0AiSNZxnCtk7h3z+FW9XgeW1xDLJE6nho2KnkY5x1rhbOc/2xY3KqSt9pwGSc5MHSvRpSJIckdQDg/nWFlz6mjb5dDyTTI757i9t57mZ5IoS8eXLcxnJ4J64617DYlHW3ueP3sQK/3scZ/CvNrQC28ZRR9I52dM5wNsq4/n2rrtOaULaBvvQGSE5zgc4wamtG0tCqUrrU67VNNt9W0TbKoZ494HfAfp+orxLRN0MjF/v28wU/7pGK+gtMYvHcQN93Ak9/lPOPevCr6E2PiK/sOQG3kDt13D68dK15E4kqTvc//9P8wIW1VMiZInPqGKjHpjFWPtOpthUjhxwGBcg8+nFWGJb5sgmkQ4YEnvmuOxq3chFxrCjlYeOuWYgg9MACoxcaqm5tsW45+9u5/StF3x25HNcz4gvbi3smktm2yMRzgHC9+pppE37mn9v1Etj9yB7liBimi+vmOd8SnjHysRXlMuta1uIE4x0G1BmkbWPEAO1JWBOedgOP05quQXN3PZopdQkPEsHHXCtz+tWo49UKgmeEDqf3Z/T5ua888IXur32oP9ulbYkO8KygAnO0EHA7V6ij/KCxGT1+tYvcpFeK61JJ1Jkh+TqBGeT9d39KzJotaeZpGvkAZixKwAHn6txWg5KvuGcHn8aaXyDjvQrdQOW1a21J7QxT3u8TSIpVIVRsEjocnBHXNbf/AAj1okhKT3I5PJZSeP8AgPSoLsb7ywi6h7gFh7L2/OulIPOetEn0GkYx0S2P3p7kgdBuX+e3iry6bZxrtWScHHHz4x/47VlTz60NgcDJqUDVhBZWzxFZHmYZ7yd/XgVXGmWIGPLc9zmRuf1FT57cjn1xUgY1V2OJVWytEzsj755ZuP1phs7fhTECo9Sx/rV5sYXBye4pAR1bFF2UVPsFqfmeFW9zk/1p62diOlrB+KZq0zAYUUxnDcCkwGfZbTtBDz6Iv+FOWGBRtEceAc8xr/hS5wufTvTd4P50CaQ9tgXbsTn/AGFP9KYZGY8np+lNY+nFJvyaCWShnK4DHGfwqRTKBu3Ejvz3qBSRyae7cD+lVcRnXRJDfM3vgmuMvVD3NtGQfmkbPGeAK7KZgEZsdjiuVu1QXVuwyDh+OwOO9axFJ9DmbqKDzQq4QLnHIGcHpWlYyAlIRIu2NtyqCOrfSqjp5kx3Kr7yR8wyPy9axtKskt9S3IQAshwPx/OtHtcm6PT4pxud2bAQZJzwMVeitr6RfMiiZlYEg5AB+hzXNXzCPS7tlOH2HBrm/C3j1tFEdnq6NNZsOGUZkjz3AzyPUVnyPcalrY7e/tbgokFxGULHgHByB6YrktX02cFrh4HCBlAdlIXr0zivSzrmnT24u7QSlCjOrbQGXj7y7u//AOuvMV13VNZhngubp5oMIyowCjBPUgDg/jWiVkS3qdDqF7fxQQJp7AEgZJUMMY4+lWopbh7ENcOHk/iYDAB/wrHhuZRc/YpSW8gKV9Sh7HrnFayv/okm3BUk96myvYd3YytNub2YyfaWTapOwIpXHPXnOa+iIfGz26xh5vnWJY2IHIGB0r5x0wNtdiT/APWzXaw3sbyKkg6gAn/CtI009ylN7npt7461e7Bt0vEjiY7VAyDjtnvWIPEGowOUS5DBuSpdjkjvgnr9K5u9u7NVBgTayn73fHbI6ZrEN85lXDHOSRu9KfLT2Bznvc9Rt/Et1eXAiuyuXznHy5OOOevPepL3WyYjbJKUz1Ac8Y7V5S19qXmcbePu4HX0wetRPfSRt53IbrhuaOSPYlyktbnq9prcKSixaZEniUEqGO7B9R0FWD4nke4a0SUbwoPrn/8AVXg1nqsi6q04BBc85OeP8K6G+1FykF1GQJMMNyDGcUuVLoLnb1PTrjWrhlCs4kLH7uSA35UDXLuMmKNI9gHzHn8e+M140t5dELcAEhGyWHQN/Suoj1M3drmPKlRk465p6PQbaO9/tyQZSQoIwpO7A/kTXBeIdaS7s383Kxlxnce3IHH1rmmml5O9ju7kn+tUp7a3v5oIrkLIocdeeRmlKPKrijK+hW8JXQg1BYXJ/eOoz1xiu/8AFFvL/wAJUXRH4WIbtpI+6RnPQisPTNI0q1mMwRUlgG5DngNng471dubrWzhptSu25yQJBg89OmcfjWUKiVxzpt6nLeEtK1HTrye4ukURXJmMeD83yuRyMcA9q9FUjbyDXL2F5cT6xH9qZ5WjhcAu2cg4656muoUBeck1i371zWK0sZmqlo9SsJcnDQEYI64b/PrWdqsm3WcY4MsYH44rp/t8sIEcthp9yI8iJ7lZC6g84+VlHWseSWe7uTcyWliHJBUgOwGDkYG7t2qErO5tKd42L1wds8igYAcj8Kv25/c59M1lsZCf3xBkJOSBgHPtV23YiI59eKvmMZErH5/ujB68dacQANpH4VWeUZpWmLYyenei/cSKMpRXcLk89KqAkHK+tPuJA0rAZ9Sf8KotLlupx6UPyBqxM0hU56V0+hN/qZOfknPPbJrjywJBOTzz9K9K0/Ubew0uzt4bdM3CZd2PU56+xqJaF9Doioi1a9GP9ZFGy89h/wDrqS+iA1SFs87VPHvkfrWT4qm1SxtrK5tL9ZIrlhEwKKTt68kjPtxWveX9i4s7h5PK2oiyM+QAw9D3+tTfUEjwPxLmLUpg2QAG6cjKsf6VyU0qZfZkjPcYr1jxN4W1K9iv9ZtQZLe33sSMcL15/DnivIl03WpFbbbSEZ4OMcdj+NdsdtDmejLGn3otJN5ztweBwSB9a9Y0G5FzLbzKm0NtIGeffFeRHRtYJAjhYdM9Of616f4PguYIYBeKQ4JXBGcYPFc+I0NqLPVrZ9qKD24xXC6soXXpMDHmwBunHBxXbI+0sF7E1x/iDH9p20ijl4mXj2Oetc9I3q7plGTIAHWpDH9p029tSAWkt5ByeuR/SoSVbofer2mqXuxGoz5oZOenzDiuqm9TGex4xoRNpr+nXWR8lzGQehODg1rfFm28rxtfnPyzeXLj6jmurg+DPxAlmSaG2t9scisjG5Q8K2egNd78RvhH4o8Taxb6jpS2wC2iQz+bME+dcdODkYzzXTdHPbWxx/haUT+A7Fxg+VLLDx2IOR9KmwxwSeldDpXgjWfCPg65sdZ+zs5ufOhEMnmYUjByRXO7wMf0rlbNkTRufM/4D+ZqUv2PBqmrgTICOuQalkcg+9TzMd+43ybYyb2Rdx77eePwqXZGnKKF4x8vH/66rhzkY5qV36A9h9aG7lJLoO3Y5xTbV1Dyrx/C3p14qNicYUjPvTI2IulHUFT7dOf5UJgiy2d5J55quSVG0HvU0hbPt7cVW6kii7Cw/cWAYZ/z61CzdcjilGAcZ61FJyTn8jSFymLdAhuT15H0rId2jdJ1PCupAIyAc1s3qgSBs4yKxLr5kxyOc+xq3sJaM968HSiea4tiQVlh4Gepx2rlrmEmy1W0IGYZIpwO42vsb+dReE9bj08WmpSKXRI8SL1OMYOMda7nRrjw5q2pXMtnbyXTSwlZoJCwUq5/vADHrwcg1CmktS3F3PHog0dpptycqbW8lgYeiyf56V6bYsHtEJJ3cjJ9vSupbwt4clhNrJoMrxyTLMVE7ph15Dbsk8eneueFqLS7uLYAgK+5VP8ACrdAM9frWNSaumi4rRnnniNTZ6taXgxlSjZxyNjd/wAK69f3ep30XRNwmUd8OAfy9KZ4i8O6hq8ER063a4dCwOwdFI5yfStX+wdXt3trya1l8lbFI7uXB2pKvABPY4xTrCpaM6TR2U3kaMcrMCnHfcOK8u8dwm28TwXhG0TooJAxyPl/PoD713emTmAwyKcmN1ORx0NVfiTotxfCC4sY2kkiY/Kgx8rYYHnv1FbUZLl1FUVnof/U/M1Sy5x3p0eS/wAwPttOOafheuemKsQGBJAAM4PPORXGWtyq5wBnjvzXI684JWAE/NyT/IV3F68EhzFHt+XBz1zXAaywe52MfuryByMmri7Es5i2ikit5bgcMHwM+g71VTWp9xDBh2BOP8/lW7Ivl6UoI5bzH475449641IJSyhAznr0NbJXVzNrU9W8HTSXf2mV/m27EXOOM5Jrtzn6Y9a47wVFs0t5cEGSU9RzheK6/fuzjJxwa5Jbmy2IJE3Mqq2D156dfX+lIFABJNKSAxGPwFBbn8PyqRmUm9tct9zArGksg/LGfqK6DftHuKw7cA6ncSddkSJ9NxzWozAD6c02tSticOD0/Kn5LLiqiEZB7noKkLKOQOtFiSYYpwIxjPNQg88dKXcMZ601EBzH5val3D196hJOR096UEngd/enYb3Jcg/jRuC8k5NQg4JA4A/OmnIzkc+mamwiVnBUj1pgJXpTD0GcE+1OBJGT+VO+gCP82D6U7Pf/APVTOM4qKfzDEwiIV8HaW6A9s0LsUmXVYHilJGB7+lVYS6Rr5hDMAN2Omcc4p7NzgYA9akdkV5xlDz1/z1rmZwG1CPH3UiY+uc100uWRgeOOOK5l8i+kGB8seP8AP1raGxlPczLZPMvwAOVB46YyayraDfqSjdwHJyeOhzW/pa79QJYbSo5B9OuKzbFW/tIMeUJcg4/Q1p0IW5p6n/yCrlQCGKEYx615fcWa+TFt7gnP5V6rqKg6fcHPUEfga427tVWODdwfLB47c1UXoJ7nc2i+TpMkY/5ZWzfonXFcboqKLSQ/3vK/Su3YCPS7lj1+zSHj/d61xmkIBYXG4EkFNvpyOKHsD3NKOQ/bDMrct+6PPTcOB+NdAltcQ6ZvkRgu4jdjg5rxzU7iZ9N8wZLm7CcE9h0r3SVpRoMcX8KRQjafUjr9fWpatYpanOW37tGYDjAwPTNSy3cceSx5Bxk9qb5ipayFM5Vck+prn2mL4JPXNGr2K5raHW292jlY3G8HsKvzW5eDNpbuG3fp+PSuRs7kxOjRqGKndgnAI/wrpU8V3SYjW2iHbJYsMfTFFhy1WhJb2eqx4Z4ZAB0I659cU670a6djIHc7u0iYP86RvF2qggR28LP2K7mx6VBN4g1+6T5IkiZT1MZOPc5xWkTOUG0VE8NymYEs4GSScD/HvWqmiu8QjMpBHYr2PvmslNU1aEbJ9QiV88BFB+U9eveiXUtUhkyL1pY8A7kRQDntjqKVRt6ocFbRnW2thA8X2AShFK7Tkdz3qa38Papa5jiKeUSQwJ6j1HvXDW+oTmdXaQkl859vpW/e+J9dGoxJZzxrbkgPGUBJ9eetY0m0rGk+W+iOofR721uYItPtLVrJdvmGYB5ST97BJ/KrOt6XDdLELGOOAxyeax2gHAHHT/8AVXPWHiDU7jWDDPMRC0gym0bdoHPPUVfitdXGsPdmUtBPkOMj7q52hR6An/GtJNvcxWjPN/PutSgkeECN/N2nGcnbXW3EhW2Qg8qAH44zjnFYHh9LmOdlWJw6zcb1yOpHf+db2v8AiG00fXIdCl0/7QZlizKZAoG8/wB0D2rCcH0NozTWpQtZhDqMLHowcH24rp1uolA3svA9R/jXOWurQ317Jp62KRBBIC4fdwvtj/8AVXTwwWqxx/uYyABj5QT+ZrMtbGBqMhuJCyyqY8DGWwQf8KzxCAB++QkjPD8jPQYr0K1tTPl47SKYA92CdfwOauLYyI2V02Ad8mQ54+i1olpsTzJnAw3MUECrLKMrkZyTWhb6pZGJ0EyllIwOc4Nal3C0UrRSKFI52rzgf4CsWfapOMcjsMH9KzKexH/aNrn7/IzwAafJqVsi8Fj9Af8ACuE8RXl7Z+XLakqSxDYGcr/Sui06SaSyjaZyWKAtn17jitOW25KJpL+GQk/PggcbD3qubuEEj5lHYlSM1cJJDZzXN60sskYSPO4ZIHNCQpM3o7m3fDIXbnBAQ4/Ou5s7K81DR4JrVxBHEzJ+8XOWH07GvMdHilhsFWcFXJLNmuy0fVbqOOXTy3mWuPN2LwwfpkH6VlU0LR3vioOvguzmnIZ4Z0yw4zzjj8/wrStAtzaxF1BDIpIPP86h1x9O1PwUujNceVdMUZPNQlcg5xu6f41V065aztIY5wXSIbPNT5lbHf1xWM9DWCOmjUPousWanrGxC++04z+VePpzEjdQVGB+n9K9c0y8W7ku4LVPNEkQ3EHIXg8EV44kmIAhP3C6+mNrED9KuLfKRNK9ySCWSC6jdcAbgOeeD/KoPEEjJKtuuQJJFIO4hufTGKiF2pO7lhGQzD2FZWo6y+o3azSIsYRvkzlnAHb61cldBGyZ7Hp4jS3jiTkKoHPUn/GsDxLkS2UmeBIyE/7wrS0SZri283J+fHXrzVDxWo/s+KTODHcIc+x61jS3LqrQxNygY9KjlWSUBbdmRjyGU4NK+Axz70m9gQYzgqeD71umYWuU7wa5EpL6pfKMDjzmCge2DWPM2pPg/wBoXLSEYZmnk5x9DWhqguiyyMpdtn+sZwR3/hH9aw2lYHLYye2eK05mV7ONi5Y2N/czfZ3u5ZiMkjz3Gc9huPNb6KUTyzwV+U+vFc9DLiVCMbgQAQcY/wAK21LAnc4c5ySDkHNQ2HKiZjllIzwR7c1NKzFiD0J61TY5G4f4VY6jj5sgY+lIUkM5HAq6nlSSRK/yL8qsR1xms3lc4PU81bmQRxwPkN5ibmPoc/4U9xrYWYhZHjBDbGIB6ZAJx+lVg6CeNicDOPxNSmMlPOONrMQD7jsapTts2vnGxwc+3rSGaROCSDVZzzuBPPYVYcYIyQewxVV8Fh3H50ARszBvf2FOZwe31FBXB3E85qMuO5wevuKAMy+IXaTkn0xWRcAFCc88/rW3dKHjAIxySCawmLdMEA9j3q90Q9zpdBcJZBP7jEDt0Fdl4d1Ex3G6MNG5DLnOfcEexrzrRpColjbpkEDGTz/hXUaak8F9FNITh2Xai8lg3duwHpWCj3OhNWueu2GsXU1y26QEgAA4wef0qrqy+XqaybV/fRYzn+JT0P4VhWs0kGoIuMgHoa3da4S2uXXBWXYeeMMKynHUa2IINbuk07VjYfJcafteMg7l2k4+77muLvdc1dtTzfalcDT5BHOtsp/1sx4MYCjp3OTgCumsZLKzvbu4nfi6s3iMRyAxAJU5HevJbjWZJL6zgOFit5NxQDBOfWtJRXKRHRnrunmWO3US58w/MSO2axNQuPFL3MjC+8xFwIwy8hQMY6gGtq1bcgY9CBiuX8QXl7DeCCGXy49isOABk+revpWMG7WN+VM//9X81JXUuz9s8DFWLCHznwfujk/hVQDsOa3LBFSJ378f5NcS0RoZ99Ejyt5QwMAYHrXGXekXt1dNKFAQ8Zz2H9a7tlYtuPOf50BFAyRnmnGRPKcjHosipH553+UuBgY/P1qYaaFywT8enWuo6ZWm7Ux7U+cFEqWURhtgrcZJIHbBqcEDJXpnJ+tOK9uwqA5U8j3rI0SGOT5mfUdBT06gg8j2pHIJ4Pb+dKDsyT07UBpczbDma8lyT++Az0JAHf6Vo5DAnr2qnZBTbZUjLszE+xNXwFA67sc8+9Nk2Ivbn+tPwGPfFL7k/n6U3K/ShOwDweCGBGOPrmnLlQR6dPpTM56GpAQSM/lRdgNJpSeeB603OST6etPIz36daEwGZPOeRjtS8kAjigEdaQnHNDY0HfnpRyOB3o453dKaXHQdu9KwMUnnJ7U0sefamngA+uKbgDr+FAiROB83WgHnsB70xSec880Z56/nQA0nI3dc5rlZgTqlxjtCv4ZNdScHPYDNczIY21K8ZcHaqKD04raOxLJNNTbPKc5Ow/gQKzLBgbroAUQ8Dp1rYsMKt24yMRsenTisLSvmvHP8IQn8/wDGtGStzT1Nf+JdLuyM4H61h3UIMtuqAYEajB9z69629TA/s9wDyTjrjk96y7nAvI4zjeAgx047U+gludDeN5Wi3pI/5dnH4nAHPvXL2UZTSJmxn98uP+AjivQ9PsLXVLe6sJpBGJo9ucgZw3UZ70niDS9D022hsUvI7XLElNvmyyNjvg/zxTTtoEkz56vhNHpyCJGYy3rkbQWIxx2zX0FfbE0THUssXHcjb6VwWl28EdobqVAfmbcqHyhgfxEZ6n0roJbof2aZrdM4XAQH8hk0pu7HFaGYJVexm2/wJz+NZowU5GOmB7etWLYSvDO3l+SDjKjn9TULxooyz4Ix1P8AnpQnoaRpSlqhYXSKYSsc7SflHeqEl00kruxPzHJ9KlvPs3lkxtuYdMHPX1xWKrtnI5B6/SjzJd4uzOihu3DZicq2Oueg/wDrV0aeMzeaZ/ZcCfvU3B5i2dxPqPxrze6nFrD8xIfovfGaoaNcfZrmOQYw8gX5qduolPod0kN0XCoqMNvAwP51aZFtSJp8GU46cYH4VRlu5N7SLjjJ+WqE11JcyEyZ3YB6dSBRJgtNzcmnTepQBQecds1FJMzcAknu3esNLg5XecKevf8AWpBO2cKflbIrildO6NY2a1Ne2upre4WTzSozjGePzq4dRvrm8dXupDETwuegPXBFctNIRwpH0NaOk2099fRQW5+dyMAkduvWtoydtSGle6O0sY1W8iZVLEMCBlv8elHi/wAN32o+LbbVbZQ0EaQ7yXUbWjOSMFgSOabavdj7UyRTQi3RlfdHtzjqVz1HuKx5LC0miNy8Sln+bc2SeapTsS46mnZ6bcWurPcybEicuFbeCST2AHf2rqo5OAByOleeW93bxXVhYoDkTbskcY6fma7+IfKPYnp9awm9bmsE0rF7/hKbPw5bCS8jllWZyB5QB249aW/+JGn2UNtLNZXe26TzIyAoJXpjmqMt1pMQC6vpH9qLuLKBL5W0/wA81HqOqeH9QEUbeGGSO3Qxxp9sGFU9unet00lcw5Xcv392t+y3salFmjVgG6gHscViyAEnPT+VWWvI7lU8q2+yRooRYd/mFQPVuM1UkPT1rBM6Ohj6hYxXiFJeP7pHY1Nawx28KQIMBffOeasNksD0qEgfhWl7iSHFiGK9qjLrnOMelKAc8HqKVAADu60DsRMeDxx1+tWtEZvtjIcneh49cciqT5B3DPXpWz4fsLu6ummgj3pCPnOeQG4zjvWUndDW9j1i3eRNPiVSrRsNjq6hlI6Hr/Osa9haxntktyVV3ZNueOehxXRLZzQ6WhZOUfkAE9sjP1rG14sLizbqcrzjueO1ROBUJWYaPqU+nXUjiWG3Z1ZCZRiN27AkcjPrXlnjBtT8IXkVvcpFKbgM4Mb/ACrznHviux1hQRdAD7pLD2OP0q34t0rT9VtdH+126zbouGaUxhfl9up9K1pQVrMzqT10PL/Dtzf6/LcxQokQRQTuY/MDUiWkT3/2YyKWRtr7c5B/+vW5p9pY6IbmfR4Qkuzn5mbd69c9Ky7vUX+0bpFjWd3QlVUq23PJz61co6Eweup6DpSSsrCyvXTaApDoGGR0Hr+NM8QnVW0mfdDFNjDB0faRjnO0/wBK2baJYQkg6SLninahCJrSWDGS6EAGuODXNY6Zr3bnnizXbqjrb4yoJ/eKeTSE3p+X7OrDocyjHPXtUloQIERsZVQPrjirIYfxV0GLdjDa3vCwK20YyOCZCBx+Heozb3rkKLeHdk5Uuc47dqk1a2mN0rR3EqJLGG2q39309PpVa2024lFyFnkJEDuuWP3l/wDrVpysn2iH/ZdUUE+Tb4HGSzHJ9KsiHWowpZLVAenLY/8ArmuI/wBKZdxndh1xuP5V6hHCsGm2anJwMjPXDDp71Mo2KTvqYM0etFWUSWqhhj7rE/rV2IagEUefECB/zzJ/TNWZG6UxOV/OpCxUlj1EA5uIyACSdmP8+1Z/9psIFPnBm7/IR+Q/rV+ZmAzjIPU157fxvFc3Q3uCJgVO7AHRsD69KtRuri5tbHoaG8lg3x3JQgjA2Ar75B71BNFfGJs3O4ZDbQgHT39K2r5PJaNlxskhRwB2BAx+dZxcOhHTvxzUooV3lZVdZ3CkcBcD8PpWNqNw1vbyXEk07qmG2qQCRnsAO1aCfNHgcADtz0rOvV3RMSDtYfN26VUY3Jk7GC/iEHDeXetkZOe3oc10SRrIu5nkO8Arl+mRXmNvNMutNGSZI87QrH+E9/bHavSbVw8Cd8Lj6kUpKzsTGTYktrbu2WDHaBjLn0qkbaFc8ZI9Sc4rSl4+cc8dKz3Oevp09aVxtMbp0NsNQj8yPcCenPOPxrqZrqw091MpkiC8qyk7eT3HpXGxsYruGYEgbwPYZNddqVutzZSK4B+TPHtUvctPQ9FX7NqktrcRvJtLpIpRsfMMdcdfxrq9aR38PXVxBmR4gJlAU9UOTx64968m0dtBTwhZX2pxXcjRzy2we2ZV27hnLA/e/Piui8NaXpGo2S6na65fQwPuSO3uhnew5IAU4IrGouprF6WJ01WznjWSG4j+dQ20uARnsR61zt5plvcXwuF2nceMMDkDnt6VuAafexySSQIDESh3KM/J3wK537R4SnYAPDE/plo2zntUJ6WKsd1b74449+7heTjpWZr1tNeQpHbxeY+4cg4PHTjv3qqml2UtsVsbmdQ64LCZmHHTrWj/AMIpA9pGsmqagQyhmVpQQDj1I6VMXylpn//W/NFQeFzkEj64roeIbJEMeGkP3s9cetc/AAzIvAyQADW7dyDcIwchRyf9quG+hqlcrAOG5OR6UrHHAHFM3qOCcHsKaXb5gvOOPxpIbQ4kA4ao93JAGBTWwODjPTPbNMJx/THrSZRKWHb+dRswKgHkVFlhweD696RRv59s0C0Y4DPAFE0phik/3CacvyAj09ap6gD9kkwWGQec9N3emkK1hbZAlpECMfICc+/NWCRtz6CmhQkar12qvPsAOaa2VDAD8/ekUODNs3D6804YIGMGo/4aB8vA4/oDQQyYHJI79j604ZFMGd20DmnnjA9arlEG7sRj1pdy55AP1qPI25HT2pMgAn2p8qAkB3ck9TTHDhTjr2HbNNBzyOv+e9OByWGRlevtmpkrbFw5b+9sNgk80EMCpQ7WHoetSEHOTx+NCrsBCjGSSfc1GSSu5W9sUiZWvoJk7jnpxS/NjOOKhWRXbjr0BHTmnB8de+OaBDsY+Yn9KTgjPf8AKgfMMjnNA5Oc0AIVLdeeK5kxYurksclpOc+w/pXUjIrm5APtE7AcmU5raOwFqy/49b5uoETZ9awtLUCWVxjhAMjjPet2Axx6HeXMhcIWMJxGzAFjkcgHr+lTaTbWFpDNK2bhmC5DAxxr+fzE/hiqZKMy+tZ7u3itbVDNLJJuCL3VevJ44rOe0uZdaUpbyfuyqtuKgKyD13YqzrWqiznt54V2bwygRrjGeu3ntWbFLeTMI7ceXHnlmALbj1OPWq6EW1Nq9haWELcRiNw4ON4bHvlf6VmSW1huPlbTKDyeSffk1p3sGI4owxYK3JPU4/8Ar1TjtmSRcclgcemP51DZryi2VlCiNIyBnJxk+n0q821LTa4yoIAGP5VIilIc9jk0y4JSxB4PoD3wfzpXuKxCzrsKoMYI+tV5p7BZDFO0IbptcqCfzrOvGmk024IJV+NpUle/PTmuUGhJdXTtJKZHXBznPBHf3rSMQ9s1ojrrhfOtRE9ijIhzuiZeg98A1gK2lPuSH7Qk6HBR1G3P1rD1vTZNBhVkkkEjMu4Z2gK2ccfhWk5a30W0vnZ5LiV5AXbkgKOPy6U5IzlK7uzJ1dleSONeCOW/pT0svJaNVJDR4Zgffk1iS3jzztMzfMx4JAwMc4rWivBPmSXLOW6445AoqSaVjFb3OphkU4LqT7Zx+gqZmtGwu1hzjI5AxXPR3WBtJGPWlF2qkMGxmsG5G17m1OIioUAh15z/AA4NUiMHGePT1pq3ZkTa+OG/L6UrMuyRv4SPk9M1a2GM4DZ4IFdd4Ny/iCyJ6eYR78g1xuQUGO4zz14rR0i+urS/insmVZkYYLDIGcdR6U0F76HUazcPG16DK523GeHIwA/Trjt+Nbt4svlsERmDhduFPOQOnFZnlX08+Jmgfz5AXUwKQxJyc5yOverXji5u7KHTUhuJISYyrmNtuSMY6Y9OKmau9DSOi1MVbO8a/t5DE4WN1bO0gD15Nd5BMCgB7k4xxXIRySvq0IeWRsbM5Y45GOnTrXQWtuiRMpAILv6+vrWM1qaQd0PvY5JJsIpbjH0rN+zzkZKdO+R/jXRxQWJGLiCSQEf8sguef94istrSRZjstFx0UsE3AfUUWDQhtnMSuZmVQCMbmH+NSvcQbgokRjjswOfyp8lqscSNLbxxM3Rdq/0otoLdmIMScDGdozQK5TeaPP315/2gcfSo/NjwPmAGcdam14yW2lTvaYjcKdrKoJyPwrnvC93eXaO95IW3LwpAHT6CreiGar3MAfYXBz2HP1pv26AZ3OAD/n0q7KACCBjHpWJqkmy1mcHayoSPbFKKb0Qm7alp722Kk7jj1wa7HwTeotxeIMkeRjkEZyfWvGvDt3eXl1IbhyVjUcADBJr1zwu9udSEUrNHvVgCCMluvHY/jUzVtB03roe5eANSW9tdQ0rcLdgMrkbgxb/eznmuO1EyXcymY4dQxO1dq5UnOB6cU/weq2WpXivJIftEJDZxwyn26YHeubS8nFzdx3cjzZZgWLY2qD09AKjoNos6l5czXAT+OIcD1x+tZnjTVLy08I6PeWuzzAUiYOu4FTkEY7Hj2puj3U2qXstjNsURTBEZR821upY96r+OG1yz1MaBKYbm1hjWSNXjQ53txwQCTzxWsGZTjrqcNpGs3t1LMjuAyW8hUoADkdD7kVya6ncPeRz3szSu5XczHJ/D2zXYJPqkKsYLe2QENlvJiDYzgjIH4VnrDqOA7+UAh6iOMYHXAwB+nNVOWhMI2ke8QnNpavnP7sd/binO7SrtHVhWbpd3DdaRazRnJCKGOfw6etX34yc9ev0riS987GrxsefZCO0bdUdl/I07ep7HHei+AW7lJHIbv7VAvAIaupGG5NqGHS3Y8lSR9OOP5U7S8LqCxuCUkjkQ4HPIPT3zUFyhezB7rIM89M06xR49RtWc8+YoyOozxmulI5epxwCjKgEAZB4PUcV3iv52h2kxyMEj0xt4rkb+EJqN1bKSNs0g6e/PfFdTpwMnh0bjkxSEAdzk1nVRrSKrN+Oeaaj/ACsvUE1GTnBPGaIwNzA9ePpWJsLjjb7/AKVYhkZBnbGSp6tErHGMdxzVRsrxn6U+OUAE5yBnFW3YTVy3JNcXEuLpxuVSFyMAgdBWcW9Bj2NTSsZJEIOMLiq2VJIzz6d6gYQEBHXPRj+GeabIAylSN27gg96bF9+UDqcEdqc3OM8ZOKd2hNXRmrZ2cbZESbtpGcAE/jUqbVBVMAdfTNWG29jzntVeQlcmhu5KjbRCt84waouMDOMdqnVnIye9V33MSDnPTFIszZ2KEFMgghhzXolm/mRxOMbXTGD0ww9f6157NHu6njPSup0+cvpiqOGCbQQO49B0GBTS95EvZmlooabwjrOnjLNYXMc4Gc8A8+571oeD3H9jXEW7JstRVgByAknFZ/g63uLi61iyXPl31i+0nOC68/nx+dSeCpRI2qWPQy2izjt88Z549Ris6sdAhJnf+TslcdmPb34NeM+ILNYZXlRfuSMq+o+te3Lhwso5DKv/AI8MivNvFUGw3GcNna/0B/wqKVmjWT1Ot0wKXt5ozhL2xilVB03oSGx24rr4xvtfKbHKleK8+0CUy6DodyF3NDLcWjHAJx95fwNd7avvjJbqpxXJUVmdENUf/9k=;opacity=50;" vertex="1" parent="1">
          <mxGeometry x="70" y="70" width="545" height="726.67" as="geometry" />
        </mxCell>
        <mxCell id="LAPRnQHf4kiXfBzCoPBS-2" value="&lt;font color=&quot;#0000ff&quot; style=&quot;font-size: 50px;&quot;&gt;Super Poziția&lt;/font&gt;" style="text;html=1;align=center;verticalAlign=middle;resizable=0;points=[];autosize=1;strokeColor=none;fillColor=none;" vertex="1" parent="1">
          <mxGeometry x="220" y="180" width="310" height="30" as="geometry" />
        </mxCell>
        <mxCell id="LAPRnQHf4kiXfBzCoPBS-3" value="(SIMILITUDINEA)" style="text;html=1;align=center;verticalAlign=middle;resizable=0;points=[];autosize=1;strokeColor=none;fillColor=none;fontSize=30;fontColor=#0000FF;" vertex="1" parent="1">
          <mxGeometry x="310" y="220" width="250" height="40" as="geometry" />
        </mxCell>
        <mxCell id="LAPRnQHf4kiXfBzCoPBS-4" value="&lt;span style=&quot;font-size: 40px;&quot;&gt;[ACTOR]&amp;nbsp; ~&amp;nbsp; [NARATOR]&lt;/span&gt;" style="text;html=1;align=center;verticalAlign=middle;resizable=0;points=[];autosize=1;strokeColor=none;fillColor=none;fontSize=30;fontColor=#0000FF;" vertex="1" parent="1">
          <mxGeometry x="145" y="280" width="460" height="40" as="geometry" />
        </mxCell>
        <mxCell id="LAPRnQHf4kiXfBzCoPBS-5" value="LIMBAJE" style="text;html=1;align=center;verticalAlign=middle;resizable=0;points=[];autosize=1;strokeColor=none;fillColor=none;fontSize=40;fontColor=#0000FF;" vertex="1" parent="1">
          <mxGeometry x="300" y="440" width="180" height="50" as="geometry" />
        </mxCell>
        <mxCell id="LAPRnQHf4kiXfBzCoPBS-6" value="&lt;font style=&quot;font-size: 30px;&quot;&gt;modulo&lt;/font&gt;" style="text;html=1;align=center;verticalAlign=middle;resizable=0;points=[];autosize=1;strokeColor=none;fillColor=none;fontSize=40;fontColor=#0000FF;" vertex="1" parent="1">
          <mxGeometry x="360" y="310" width="110" height="60" as="geometry" />
        </mxCell>
        <mxCell id="LAPRnQHf4kiXfBzCoPBS-7" value="" style="endArrow=none;dashed=1;html=1;fontSize=30;fontColor=#0000FF;strokeWidth=2;strokeColor=#0000FF;curved=1;" edge="1" parent="1">
          <mxGeometry width="50" height="50" relative="1" as="geometry">
            <mxPoint x="390" y="430" as="sourcePoint" />
            <mxPoint x="312.5" y="330" as="targetPoint" />
            <Array as="points">
              <mxPoint x="390" y="350" />
            </Array>
          </mxGeometry>
        </mxCell>
        <mxCell id="LAPRnQHf4kiXfBzCoPBS-8" value="" style="endArrow=none;dashed=1;html=1;fontSize=30;fontColor=#0000FF;strokeWidth=2;strokeColor=#0000FF;curved=1;" edge="1" parent="1">
          <mxGeometry width="50" height="50" relative="1" as="geometry">
            <mxPoint x="510" y="330" as="sourcePoint" />
            <mxPoint x="440" y="430" as="targetPoint" />
            <Array as="points">
              <mxPoint x="440" y="350" />
            </Array>
          </mxGeometry>
        </mxCell>
        <mxCell id="LAPRnQHf4kiXfBzCoPBS-9" value="&lt;font style=&quot;font-size: 40px;&quot;&gt;$$\lambda_{L}\in \mathbb{V}_{[x]}\rightarrow p\cdot \Delta \mathcal{U}\in \mathbb{R}_{[x]}$$&lt;/font&gt;" style="text;html=1;align=center;verticalAlign=middle;resizable=0;points=[];autosize=1;strokeColor=none;fillColor=none;fontSize=30;fontColor=#0000FF;" vertex="1" parent="1">
          <mxGeometry x="-482.5" y="540" width="1650" height="40" as="geometry" />
        </mxCell>
      </root>
    </mxGraphModel>
  </diagram>
</mxfile>
